<svg width="20" height="20" viewBox="0 0 20 20" fill="none" xmlns="http://www.w3.org/2000/svg">
<rect width="19.21" height="19.15" fill="#FBEBDD"/>
<path d="M9.09 6.69C9.15 6.67 9.21 6.62 9.23 6.57L8.69 6.25L8.55 6.3H7.15V4.23C7.31 4.21 7.38 4.15 7.39 4.06L6.35 4V6.29H4.22V7.03H8.11C7.22 8.82 5.57 10.5 4 11.42C4.14 11.58 4.35 11.94 4.44 12.14C5.07 11.73 5.73 11.2 6.35 10.6V15.15H7.15V10.23C7.75 10.71 8.55 11.41 8.89 11.75L9.36 11.08C9.05 10.83 7.9 9.96 7.31 9.56C8.04 8.68 8.67 7.7 9.1 6.68L9.09 6.69Z" fill="black"/>
<path d="M14.45 11.82C14.37 13.67 14.28 14.16 13.67 14.16H11.58C10.99 14.16 10.87 14.02 10.87 13.37V4.28004C11.03 4.26004 11.1 4.20004 11.11 4.11004C10.88 4.10004 10.64 4.09004 10.04 4.04004V13.35C10.04 14.61 10.36 14.95 11.52 14.95H13.7C14.86 14.95 15.09 14.24 15.21 12.19C14.97 12.14 14.65 11.99 14.44 11.83L14.45 11.82Z" fill="black"/>
</svg>
