<svg width="20" height="20" viewBox="0 0 20 20" fill="none" xmlns="http://www.w3.org/2000/svg">
<rect width="19.18" height="19.11" fill="#FBEBDD"/>
<path d="M13.24 12.68C13.08 12.45 12.94 12.18 12.8 11.93C13.04 11.48 13.26 10.99 13.44 10.47C13.78 9.49 14.04 8.37 14.22 7.12H15.06V6.28H11.55C11.73 5.6 11.88 4.9 12.01 4.18L11.1 4.05C11 4.71 10.86 5.37 10.69 6.02C10.53 6.66 10.33 7.26 10.1 7.81C9.92 8.24 9.72 8.61 9.5 8.95V6.44H7.36V5.83H9.89V5.15H9.11L9.53 4.68C9.39 4.56 9.19 4.44 8.95 4.31C8.71 4.17 8.48 4.07 8.25 4L7.83 4.43C8.05 4.51 8.28 4.62 8.51 4.77C8.74 4.91 8.93 5.04 9.07 5.15H7.35V4.12H6.53V5.14H4.17V5.82H6.55V6.43H4.52V9.75H6.55V10.6H4.09V11.3H5.82C5.78 11.64 5.72 11.97 5.64 12.3C5.53 12.76 5.34 13.18 5.09 13.56C4.83 13.93 4.47 14.24 4 14.48C4.09 14.55 4.18 14.65 4.29 14.77C4.39 14.89 4.47 15 4.53 15.11C5.06 14.81 5.47 14.45 5.77 14.02C6.06 13.61 6.26 13.15 6.4 12.65H8.4C8.36 13.09 8.33 13.44 8.29 13.67C8.24 14 8.18 14.2 8.1 14.28C8.06 14.33 8.01 14.36 7.96 14.36C7.9 14.38 7.84 14.38 7.76 14.38C7.67 14.38 7.52 14.38 7.32 14.37C7.12 14.36 6.88 14.35 6.64 14.32C6.7 14.42 6.75 14.54 6.78 14.68C6.82 14.82 6.84 14.94 6.85 15.04C7.11 15.06 7.35 15.06 7.58 15.06C7.81 15.06 7.99 15.06 8.12 15.06C8.26 15.04 8.39 15.02 8.49 14.98C8.6 14.94 8.7 14.88 8.79 14.8C8.87 14.7 8.94 14.56 8.99 14.37C9.05 14.19 9.09 13.93 9.13 13.59C9.17 13.25 9.21 12.82 9.24 12.29C9.26 12.23 9.26 12.15 9.26 12.07V11.95H6.56C6.6 11.74 6.63 11.51 6.66 11.29H9.96V10.59H7.38V9.74H9.52V9.37C9.52 9.37 9.56 9.39 9.58 9.41C9.68 9.48 9.77 9.56 9.86 9.64C9.96 9.72 10.03 9.78 10.08 9.83C10.34 9.46 10.56 9.02 10.78 8.55C10.93 9.22 11.1 9.87 11.29 10.48C11.45 10.97 11.63 11.43 11.84 11.86C11.68 12.11 11.53 12.38 11.34 12.6C10.76 13.3 10.01 13.88 9.08 14.34C9.14 14.4 9.2 14.47 9.26 14.56C9.32 14.66 9.39 14.75 9.45 14.85C9.51 14.95 9.56 15.03 9.58 15.1C10.56 14.56 11.36 13.92 11.98 13.16C12.1 13.02 12.18 12.85 12.29 12.7C12.39 12.87 12.47 13.05 12.58 13.21C13.12 13.99 13.78 14.62 14.56 15.08C14.61 15 14.66 14.91 14.73 14.82C14.79 14.73 14.87 14.64 14.95 14.56C15.03 14.48 15.11 14.41 15.18 14.36C14.43 13.96 13.79 13.4 13.27 12.67L13.24 12.68ZM5.27 7.05H6.54V7.79H5.27V7.05ZM5.27 8.38H6.54V9.15H5.27V8.38ZM8.71 9.15H7.37V8.38H8.71V9.15ZM8.71 7.79H7.37V7.05H8.71V7.79ZM11.98 10.13C11.68 9.22 11.45 8.23 11.28 7.2C11.28 7.17 11.3 7.14 11.3 7.12H13.33C13.18 8.22 12.97 9.23 12.67 10.11C12.57 10.41 12.43 10.67 12.31 10.95C12.2 10.68 12.07 10.43 11.98 10.14V10.13Z" fill="black"/>
</svg>
