<?xml version="1.0" encoding="UTF-8"?><svg id="b" xmlns="http://www.w3.org/2000/svg" viewBox="0 0 503.2 86.15"><g id="c"><path d="M280.73,46.09c6.24-6.81,7.79-14.02,7.84-27.28,1.31-.02,2.77-.04,4.5-.04h20.69c4.39,0,7.05.07,9.84.24v-3.05c-2.79.16-5.45.24-9.84.24h-1.17c.49-.86,2.08-4.01,2.62-5.33,3.23.02,5.48.09,7.81.23v-3.05c-2.79.17-5.45.24-9.84.24h-6.97c.04-1.54.1-2.89.18-4.26h-5.75c.08,1.37.14,2.73.18,4.26h-6.78c-4.39,0-7.05-.07-9.84-.24v3.05c2.3-.14,4.53-.21,7.71-.23,1.16,1.71,2.06,3.6,2.83,5.33h-1.66c-4.39,0-6.86-.07-9.65-.24.27,7.86.33,21.7-4.86,28.31l2.17,1.83ZM310.09,10.85c-.19,1.28-1.03,4.19-1.62,5.34h-9.75c-.32-1.67-.85-3.72-1.44-5.34h12.81ZM183.34,33.76c-.49-1.03-.92-1.79-1.48-2.77,9.99-4.66,14.59-12.45,16.3-22.02h-6.65c-4.39,0-7.05.07-9.84.24v-3.75c2.79.16,5.45.24,9.84.24h21.78c4.39,0,7.05-.07,9.84-.24v3.75c-2.79-.17-5.45-.24-9.84-.24h-8.83c-.03,1.4-.04,2.97-.04,4.87v21.94c0,4.39.07,7.05.24,9.84h-5.5c.17-2.79.24-5.45.24-9.84v-15.36c-3.18,5.27-8.22,9.66-16.06,13.34ZM205.22,17.47c1.17-.74,1.93-1.29,2.91-2.29,3,5.7,7.75,10.6,14.23,13.86-1.57,1.67-2.27,2.86-3.4,4.72-6.93-5.15-11.26-10-13.73-16.29ZM100.52,10.41c-4.39,0-7.05.07-9.84.24v-4.29c2.79.16,5.45.24,9.84.24h15.01c4.39,0,7.05-.07,9.84-.24v4.29c-2.79-.17-5.45-.24-9.84-.24h-15.01ZM97.91,43.64c-4.39,0-7.05.07-9.84.24v-4.29c2.79.16,5.45.24,9.84.24h20.21c4.39,0,7.05-.07,9.84-.24v4.29c-2.79-.16-5.45-.24-9.84-.24h-20.21ZM112.85,22.52c4.39,0,7.05-.07,9.84-.24v4.29c-2.79-.16-5.45-.24-9.84-.24h-9.66c-4.39,0-7.05.07-9.84.24v-4.29c2.79.16,5.45.24,9.84.24h9.66ZM133.77,43.37l1.77,2.72c2.97-1.69,6.7-3.67,9.09-6.53,1.69-2.03,2.81-4.59,3.43-7.03h14.02v3.25c0,4.39-.07,7.05-.24,9.84h5.75c-.16-2.79-.24-5.45-.24-9.84v-3.25c3.94,0,6.47.08,9.1.24v-3.75c-2.62.16-5.15.23-9.1.24v-14.04c3.08.02,5.27.09,7.53.23v-3.75c-2.26.13-4.45.21-7.53.23.02-3.29.09-5.56.23-7.91h-5.75c.14,2.35.21,4.63.23,7.92h-12.99c.02-3.29.09-5.57.23-7.92h-5.75c.14,2.35.21,4.63.23,7.92-3.72-.01-6.17-.08-8.7-.23v3.75c2.53-.15,4.98-.22,8.69-.23-.06,3.26-.24,10.69-.46,14.05h-.26c-4.39,0-7.05-.07-9.84-.24v3.75c2.75-.16,5.38-.23,9.67-.24-1.13,5.69-4.01,8.89-9.13,10.83ZM149.07,15.21h13.01v14.05h-13.47c.3-3.32.44-9.06.46-14.05ZM311.81,41.35c1.5,0,9.3-.07,12.09-.24v3.24c-2.79-.16-10.58-.24-12.09-.24h-11.96c-1.5,0-9.3.07-12.09.24v-3.24c2.79.16,10.58.24,12.09.24h3.33v-5.08c-2.15.01-8.19.08-10.74.24v-3.24c2.56.15,8.6.22,10.74.24v-5.08c-1.42,0-5.88.05-8.94.16-.89,1.64-2.04,3.25-3.49,4.94l-2.18-1.39c2.4-3.25,3.59-7.81,3.77-11.51h4.3c-.18,1.78-.53,3.39-1.05,4.91,2.9.08,6.36.11,7.59.12-.01-3.15-.09-2.5-.23-5.03h5.78c-.15,2.53-.22,1.88-.23,5.03,1.8,0,9.15-.08,11.86-.24v3.24c-2.71-.16-10.06-.23-11.86-.24v5.08c2.15-.01,8.19-.08,10.74-.2v3.21c-2.56-.18-8.6-.23-10.74-.24v5.08h3.33ZM273.63,11.88h-9.3c.02-3.27.09-5.53.23-7.87h-5.75c.14,2.34.21,4.6.23,7.85-1.74-.03-3.12-.08-4.56-.17v2.98c1.44-.09,2.82-.14,4.56-.17-.04,3.14-.3,13.75-.57,16.03-.54,4.58-2.01,7.75-4.56,10l-.19-1.41c-3.74.38-6.61.67-9.33.94v-2.83h1.17c3.48,0,5.33.06,7.54.19v-2.98c-2.21.13-4.06.19-7.54.19h-1.17v-3.05h.77c3.48,0,5.74.06,7.95.19h0c-.12-2.09-.11-5.87-.11-7.23,0-3.3,0-5.14.11-7.23-2.21.13-4.47.19-7.95.19h-.77v-3.03h1.45c3.48,0,5.33.06,7.54.19v-2.98c-2.21.13-4.06.19-7.54.19h-1.45v-3.54c3.14-.33,6.16-.8,8.74-1.46l-1.35-3.87c-5.51,2.29-14.43,3.66-21.08,3.84l.12,2.15c2.77,0,5.89-.08,9.04-.28v3.16h-1.37c-3.48,0-5.59-.06-7.81-.19v2.98c2.21-.13,4.32-.19,7.81-.19h1.37v3.03h-.69c-3.48,0-5.88-.06-8.09-.19.12,2.09.11,3.94.11,7.23,0,1.37,0,5.14-.11,7.23h0s0,0,0,0c2.21-.13,4.61-.19,8.09-.19h.69v3.05h-1.13c-3.48,0-5.59-.06-7.81-.19v2.98c2.21-.13,4.32-.19,7.81-.19h1.13v3.27c-2.73.26-5.7.51-9.6.83l.66,3.88c8.77-1.52,13.26-2.23,21.66-3.66-1.04.7-2.23,1.3-3.57,1.81l1.77,2.72c2.97-1.69,6.7-3.67,9.09-6.53,2.06-2.47,3.28-5.71,3.77-8.58.47-2.73.66-10.34.67-16.5h4.67c-.06,9.31-.34,19.97-1.09,24.48-.58,3.47-.7,3.59-3.56,3.06-.89-.16-1.78-.35-2.4-.49-.2,1.08-.35,1.79-.58,2.66,1.75.5,5.75,1.51,7.57,1.42,1.61-.08,2.78-.97,3.28-3.62.98-5.21,1.41-22.33,1.41-30.11ZM244.38,19.95h.77c1.34,0,2.53,0,3.59.03.01.89.02,2.08.03,3.33-1.07.02-2.26.03-3.62.03h-.77v-3.38ZM244.38,25.76h.77c1.36,0,2.55,0,3.62.03,0,1.37-.01,2.59-.02,3.34-1.06.02-2.25.03-3.6.03h-.77v-3.4ZM239.86,29.16h-.69c-1.36,0-2.63,0-3.74-.03-.01-.75-.02-1.97-.02-3.34,1.13-.02,2.37-.03,3.77-.03h.69v3.4ZM239.86,23.33h-.69c-1.39,0-2.64-.01-3.76-.03,0-1.25.01-2.43.03-3.32,1.12-.02,2.37-.03,3.74-.03h.69v3.38ZM445.12,22.78c4.39,0,7.05-.07,9.84-.24v4.29c-2.79-.16-5.45-.24-9.84-.24h-15.36c-4.39,0-7.05.07-9.84.24v-4.29c2.79.16,5.45.24,9.84.24h15.36ZM367.13,8.46c-.99-2.53-1.84-4.31-3.08-6.3l2.73-1.16c1.06,1.16,2.69,3.62,3.76,6.02l-3.41,1.44ZM362.06,10.59c-.99-2.53-1.84-4.31-3.08-6.3l2.73-1.16c1.06,1.16,2.69,3.62,3.76,6.02l-3.41,1.44ZM364.95,11.95c-3.14,19.45-12.52,31.25-30.5,34.06l-.7-3.06c9.09-1.76,19.94-6.86,25.09-27.19h-15.38c-2.98,4.67-7.55,8.73-14.35,12.35l-1.61-2.69c8.88-4.68,13.17-11.74,14.8-20.24l4.98,1.38c-.44,1.88-1.03,3.67-1.78,5.39h19.47ZM408.75,20.27l2.89,1.23c-5,13.65-12.67,19.63-23.46,22.38v-25.99c0-4.39-.07-7.05-.24-9.84h5.75c-.16,2.79-.24,5.45-.24,9.84v18.75c6.89-2.97,12.26-8.01,15.3-16.37ZM375.54,19.83c0-4.39-.07-8.67-.24-11.46h5.75c-.16,2.79-.24,7.07-.24,11.46,0,17.36-4.63,19.78-13.54,24.61l-1.71-2.64c7.22-3.69,9.97-6.9,9.97-21.98ZM497.72,2.64c-3.03,0-5.48,2.45-5.48,5.48,0,.89.21,1.72.59,2.46h0s-23.82,0-23.82,0c-4.39,0-7.05-.07-9.84-.24v4.29c2.79-.16,5.45-.24,9.84-.24h20.29c-3.56,13.83-9.81,24.02-23.95,26.95l.81,3.03c17.08-3.39,25.21-13.36,28.97-31.44h0c.77.42,1.65.66,2.58.66,3.03,0,5.48-2.45,5.48-5.48s-2.45-5.48-5.48-5.48ZM497.72,11.58c-1.91,0-3.46-1.55-3.46-3.46s1.55-3.46,3.46-3.46,3.46,1.55,3.46,3.46-1.55,3.46-3.46,3.46ZM220.67,61.31c-.03,1.28-.02,4.2-.02,6.44,3.68,0,6.11-.13,8.43-.26-.04.93-.05,1.91,0,3.01-2.22-.12-4.74-.21-8.42-.21.03,3.15.17,8.87.19,10.15-2.5-.05-3.11-.04-5.46,0,.08-3.08.14-7.17.14-9.63v-3.09c0-2.86-.05-6.75-.14-9.01,0,0,3.8.05,4.75.05,2.07,0,5.57-.01,9.74-.04-.06,1.34-.03,2.14,0,2.96-2.54-.25-5.5-.37-9.21-.37ZM200.34,58.72c-.11,4.63-.15,6.26-.13,10.49,0,4.11.05,8.34.13,11.23-2.02-.04-3.39-.05-5.43,0,.08-2.88.13-7.12.13-11.23.02-4.23-.02-5.86-.13-10.49,2.02.04,3.39.05,5.43,0ZM113.37,69.06c.52,5.94.72,8.06,1.1,11.38-2.44-.06-3.29-.07-5.5,0-.19-5-.54-11-.82-14.97-1.1,2.23-2.02,4.13-3.37,7.17-1.33,3-3.07,7.42-3.07,7.42h-2.78c-1.63-4.06-4.74-10.94-6.26-14.29-.43,4.36-.97,9.67-1.1,14.68-1.44-.08-2.11-.08-3.46,0,.41-2.75,1.12-8.02,1.55-11.38.37-2.84.77-6.31,1.24-10.33h4c2.04,4.64,4.79,10.93,6.73,15.04,1.33-2.8,4.84-10.39,6.92-15.04h4.01s.27,4.08.82,10.33ZM124.92,58.72c-.11,4.63-.15,6.26-.13,10.49,0,4.11.05,8.34.13,11.23-2.02-.04-3.39-.05-5.43,0,.08-2.88.13-7.12.13-11.23.02-4.23-.02-5.86-.13-10.49,2.02.04,3.39.05,5.43,0ZM189.67,58.71c-.21,3.75-.23,8.14-.23,12.26,0,5.86-2.76,9.91-9.11,9.91-7.03,0-9.52-3.31-9.52-9.18,0-2.72.14-7.47-.08-12.99,2.01.03,3.39.04,5.49,0-.18,2.98-.25,5.54-.31,9.05-.11,6.53.34,10.39,5.24,10.39,4.44,0,5.29-3.54,5.29-8.39,0-4.57-.09-7.81-.27-11.05,1.68.04,2.02.05,3.51,0ZM147.56,58.71c-.05.94-.02,2.14,0,3.03-2.4-.13-4.7-.2-6.79-.23-.05,6.36-.03,13.9.17,18.95-1.89-.09-3.35-.1-5.43,0,.2-5.04.23-12.58.17-18.95-2.09.03-4.48.1-6.79.23.05-.89.02-1.99,0-3.04,7.27.06,12.02.11,18.66,0ZM165.77,74.06c.12,5.04-4.12,6.76-8.31,6.76-2.18,0-5.88-.72-7.62-2.07.7-1.77.97-3.39,1.08-4.53h.75c.83,2.82,3.24,4.29,6.04,4.23,1.72-.04,3.17-.74,3.23-2.77.06-1.94-1.38-3.03-3.94-4.17-2.05-.92-6.12-2.39-6.34-6.48-.18-3.33,2.11-6.74,7.05-6.74,2.82,0,5.18,1.05,7.07,2.27,0,0,0,0,0,0-.47,1.11-.81,2.28-1.03,3.49l-.75-.14c-.94-2.13-2.67-3.54-5.39-3.3-1.64.15-2.71,1.07-2.51,2.77.22,1.88,1.73,2.7,4.17,3.73,3.19,1.34,6.41,3.11,6.5,6.94ZM338.59,58.7c-3.25,7.64-7.8,17.8-9.63,21.77,1.05-.04,2.64-.02,3.76,0,.59-1.83,1.34-3.93,2.17-6.13h7.61c.72,2.27,1.41,4.46,1.9,6.13,1.82-.02,3.09-.07,5.82,0-1.91-4.87-6.91-18.71-8-21.77h-3.64ZM335.76,72.09c1.07-2.75,2.21-5.58,3.28-8.25.6,1.69,1.67,4.9,2.75,8.25h-6.03ZM326.11,74.06c.12,5.04-4.12,6.76-8.31,6.76-2.18,0-5.88-.72-7.62-2.07.7-1.77.97-3.39,1.08-4.53h.75c.83,2.82,3.24,4.29,6.04,4.23,1.72-.04,3.17-.74,3.23-2.77.06-1.94-1.38-3.03-3.94-4.17-2.05-.92-6.12-2.39-6.34-6.48-.18-3.43,2.49-6.74,7.43-6.74,2.82,0,5.54.95,7.45,2.27,0,0,0,0,0,0-.47,1.11-.81,2.28-1.03,3.49l-.77-.14c-1.01-2.13-3.03-3.54-5.76-3.29-1.64.15-3.09,1.07-2.89,2.77.22,1.88,1.73,2.7,4.17,3.73,3.19,1.34,6.41,3.11,6.5,6.94ZM253.53,58.71c-.21,3.75-.23,8.14-.23,12.26,0,5.86-2.76,9.91-9.11,9.91-7.03,0-9.52-3.31-9.52-9.18,0-2.72.14-7.47-.08-12.99,2.01.03,3.39.04,5.49,0-.18,2.98-.25,5.54-.31,9.05-.11,6.53.34,10.39,5.24,10.39,4.44,0,5.29-3.54,5.29-8.39,0-4.57-.09-7.81-.27-11.05,1.68.04,2.02.05,3.51,0ZM371.11,58.77c1.07,0,1.63-.06,1.63-.06-.06,1.55-.19,3.3-.19,7.54,0,0-.05,11.75,0,14.22h-3.28c-1.89-2.56-10.79-13.23-12.23-14.82,0,1.95.09,5.12.09,5.84.06,3.19-.03,4.64.31,8.97-.97-.04-2.3-.05-3.32,0,.23-4.35.22-9.32.22-11.24,0-5.01-.02-7.9-.08-10.54h3.76s2.7,3.29,5.54,6.69c3.07,3.69,6.29,7.5,6.36,7.59,0,0-.01-3.51-.06-6.65-.07-4.46-.25-6.72-.36-7.57,0,0,.53.03,1.6.03ZM294.86,58.25c-7,0-11.53,4.44-11.53,11.31s4.52,11.31,11.53,11.31,11.56-4.44,11.56-11.31-4.32-11.31-11.56-11.31ZM294.86,78.48c-3.9,0-6.04-3.17-6.04-8.92s2.09-8.98,6.04-8.98,6.08,3.27,6.08,8.98-2.16,8.92-6.08,8.92ZM267.57,58.73c-.73,0-3.87.06-4.89.06-1.1,0-3.92-.07-3.92-.07.06,2.74.13,6.13.13,9v3.71c.01,4.19-.07,6.68-.13,9h.31c1.16-.04,2.78-.07,3.61-.07s2.41.03,2.41.03c.87.02,1.78.03,2.48.03,2.83,0,5.39-.89,7.45-2.5,2.52-1.97,3.85-5.01,3.85-8.78,0-7.11-3.91-10.42-11.3-10.42ZM266.8,77.99c-1.09.02-1.95-.02-2.63-.08h0c-.05-1.81-.07-4.9-.07-6.62v-3.61c0-1.75.02-4.66.06-6.39,3.2-.17,5.59-.21,7.05.99,1.47,1.21,2.22,3.35,2.22,6.85,0,6.11-2.42,8.8-6.63,8.87ZM493.28,58.69c-.23,0-3.99.06-4.64.06-1.78,0-4.87-.03-4.87-.03.13,4.12.15,8.25.15,10.11,0,0-.02,8.97-.15,11.61,1.64-.04,3.68-.05,5.43,0-.07-2.18-.14-5.44-.17-9.06h1.15c7.08,0,9.68-2.4,9.68-6.83,0-3.78-2.77-5.84-6.57-5.84ZM493.74,67.94c-.9.97-2.21,1.31-4.04,1.31h-.7c0-.14,0-.29,0-.43,0-3.03-.01-5.04,0-7.88,3.39-.26,5.74.43,5.74,3.72,0,1.45-.3,2.52-1.01,3.28ZM442.94,58.26c-7,0-11.53,4.44-11.53,11.31s4.52,11.31,11.53,11.31,11.56-4.44,11.56-11.31-4.32-11.31-11.56-11.31ZM442.94,78.49c-3.9,0-6.04-3.17-6.04-8.92s2.09-8.98,6.04-8.98,6.07,3.27,6.07,8.98-2.16,8.92-6.07,8.92ZM478.53,58.7c-.21,3.75-.23,8.14-.23,12.26,0,5.86-2.76,9.91-9.1,9.91-7.03,0-9.52-3.31-9.52-9.18,0-2.72.14-7.47-.08-12.99,2.01.04,3.39.04,5.49,0-.18,2.98-.25,5.54-.31,9.05-.11,6.53.34,10.39,5.24,10.39,4.44,0,5.29-3.54,5.29-8.39,0-4.57-.09-7.81-.27-11.05,1.68.04,2.02.05,3.51,0ZM427.99,78.62c-2.33-3.24-4.49-6.27-6.26-8.84,2.39-.35,5.43-1.71,5.43-5.98,0-3.34-2.45-5.1-7.08-5.1-2,0-3.17.05-4.41.05s-4.07-.03-4.07-.03c.08,3.04.06,5.71.07,9.38,0,3.64-.07,8.64-.16,12.33,1.96-.04,3.07-.04,5.3,0-.08-2.22-.15-7.75-.18-10.21,1.84,2.75,3.61,5.39,5.52,8.65.64,1.08,1.12,1.6,2.13,1.56,1.78-.07,2.76-.15,5.59.06l.13-.38c-1.12-.2-2.02-1.49-2.02-1.49ZM417.27,68.48h-.64c.01-1.97.04-6.21.07-7.55,3.84-.32,5.07,1.25,5.07,3.55,0,3.52-2.16,4-4.5,4ZM406.66,70.44c-.17,1.49-.18,7.4-.08,9.05-1.87.52-5.33,1.31-8.26,1.3-7.82-.03-12.24-4.1-12.24-11.25,0-3.3,1.04-6.08,3.02-8.05,2.12-2.11,5.23-3.19,9-3.2,3.9,0,6.73.96,8.04,1.63-.27.63-.83,1.88-1.19,3.7l-.8-.15c-1.05-2.49-3.6-2.73-5.47-2.73-4.59,0-7.22,3.14-7.22,8.77,0,7.19,3.84,8.61,7.06,8.61,1.24,0,2.39-.1,3.2-.43-.05-2.28-.22-5.43-.37-7.24,1.62.02,3.6.05,5.3,0Z" fill="#fff"/><path d="M62.07,60.44l11.22-11.22-9.99-9.99-11.22,11.22-16.38-16.38,6.93-6.93c1.62-1.62,2.55-3.87,2.56-6.17,0-1.4-.34-2.8-1-4.04l-6.18-11.81c-1.43-2.73-4.12-4.55-7.19-4.86-1.69-.17-3.41-.26-5.11-.26s-3.42.09-5.11.26c-3.07.31-5.76,2.12-7.19,4.86l-6.18,11.81c-.65,1.25-1,2.65-1,4.04,0,2.3.93,4.55,2.56,6.17l6.93,6.93-8.19,8.19C2.67,47.11,0,53.57,0,60.44s2.67,13.32,7.53,18.18c4.86,4.86,11.31,7.53,18.18,7.53s13.32-2.67,18.18-7.53l8.19-8.19,10.86,10.86h19.98l-20.86-20.86ZM15.69,13.98c.26-.02.52-.04.78-.04h18.49c.26,0,.52.01.78.04-.17.22-.36.43-.56.63l-9.46,9.47-9.46-9.47c-.2-.2-.39-.41-.56-.63ZM25.71,76.81l-16.38-16.38,16.37-16.37,16.38,16.38-16.38,16.38Z" fill="#fff"/><rect x="19.49" y="27.85" width="12.43" height="12.43" transform="translate(-16.56 28.16) rotate(-45)"/><path d="M7.08,20.97c0-1.23.29-2.48.9-3.65l6.18-11.81c-1.34,2.56-1.2,5.49.1,7.85-3.67.87-6.52,3.86-7.18,7.61ZM44.34,20.97c0-1.23-.29-2.48-.9-3.65l-6.18-11.81c1.34,2.56,1.2,5.49-.1,7.85,3.67.87,6.52,3.86,7.18,7.61Z" fill="#a40000"/><path d="M25.71,25.28l-8.79,8.79-7.53-7.53c-1.49-1.48-2.3-3.5-2.31-5.57.66-3.75,3.51-6.74,7.18-7.61.37.67.83,1.3,1.39,1.86l10.07,10.07ZM37.16,13.35c-.37.67-.83,1.3-1.39,1.85l-10.07,10.07,8.79,8.79,7.53-7.53c1.49-1.48,2.3-3.5,2.31-5.57-.66-3.75-3.51-6.74-7.18-7.61ZM37.25,5.51c-1.34-2.57-3.84-4.14-6.52-4.41-1.65-.17-3.33-.25-5.03-.25s-3.37.08-5.03.25c-2.68.27-5.18,1.84-6.52,4.41-1.34,2.56-1.2,5.49.09,7.85.71-.17,1.45-.26,2.21-.26h18.49c.76,0,1.5.09,2.21.26,1.3-2.35,1.43-5.29.1-7.85Z" fill="#e60012"/><path d="M60.87,60.44l-8.79,8.79-8.79-8.79,8.79-8.79,8.79,8.79ZM25.71,78.02h0c-4.85,4.85-12.72,4.85-17.58,0h0c9.71,9.71,25.45,9.71,35.16,0h0s0,0,0,0c-4.85,4.85-12.72,4.85-17.58,0ZM8.13,42.86h0s0,0,0,0c-9.71,9.71-9.71,25.45,0,35.16h0c-4.85-4.86-4.85-12.73,0-17.58h0c-4.85-4.85-4.85-12.72,0-17.58Z" fill="#002063"/><path d="M60.87,60.44l-8.79-8.79,11.22-11.22,8.79,8.79-11.22,11.22ZM34.5,34.07l-8.79,8.79,17.58,17.58,8.79-8.79-17.58-17.58ZM80.87,80.44l-20.01-20.01-8.79,8.79,11.22,11.22h17.58ZM8.13,78.02c4.85,4.85,12.72,4.85,17.58,0h0s-17.58-17.58-17.58-17.58c0,0,0,0,0,0,0,0,0,0,0,0-4.85,4.85-4.85,12.72,0,17.58ZM43.29,60.44l-17.58,17.58c4.85,4.85,12.72,4.85,17.58,0h0s0,0,0,0l8.79-8.79-8.79-8.79ZM16.92,34.07l-8.79,8.79h0,0c-4.85,4.86-4.85,12.73,0,17.58,0,0,17.58-17.58,17.58-17.58l-8.79-8.79Z" fill="#004098"/></g></svg>