<svg width="93" height="71" viewBox="0 0 93 71" fill="none" xmlns="http://www.w3.org/2000/svg">
<g clip-path="url(#clip0_2128_8547)">
<path d="M2.00999 68.6402L1.53 68.2802C1.41 68.5202 1.17 69.1202 1.05 69.1202C0.929995 69.1202 0.609995 68.8802 0.609995 67.8002C0.609995 67.2002 0.729995 66.9602 0.729995 66.6002C0.849995 66.6002 0.969995 66.6002 0.969995 66.4802L0.849995 66.3602L0.249995 66.2402C0.0799951 66.7002 -4.89689e-06 67.1902 0.0099951 67.6802C-0.0600049 68.4002 0.149995 69.1202 0.609995 69.6802C0.729995 69.8002 0.849995 69.9202 0.969995 69.9202C1.45 70.0002 1.68999 69.3602 2.00999 68.6402ZM4.41 68.7602C4.33 67.9002 4.03999 67.0802 3.56999 66.3602L2.97 66.7202C3.38 67.3802 3.65999 68.1202 3.80999 68.8802L4.41 68.7602Z" fill="#231F20"/>
<path d="M2.00999 68.6402L1.53 68.2802C1.41 68.5202 1.17 69.1202 1.05 69.1202C0.929995 69.1202 0.609995 68.8802 0.609995 67.8002C0.609995 67.2002 0.729995 66.9602 0.729995 66.6002C0.849995 66.6002 0.969995 66.6002 0.969995 66.4802L0.849995 66.3602L0.249995 66.2402C0.0799951 66.7002 -4.89689e-06 67.1902 0.0099951 67.6802C-0.0600049 68.4002 0.149995 69.1202 0.609995 69.6802C0.729995 69.8002 0.849995 69.9202 0.969995 69.9202C1.45 70.0002 1.68999 69.3602 2.00999 68.6402ZM4.41 68.7602C4.33 67.9002 4.03999 67.0802 3.56999 66.3602L2.97 66.7202C3.38 67.3802 3.65999 68.1202 3.80999 68.8802L4.41 68.7602Z" fill="white"/>
<path d="M11.53 68.8802C11.58 68.3302 11.17 67.8502 10.62 67.8002C10.56 67.8002 10.51 67.8002 10.45 67.8002C10.02 67.8002 9.59999 67.9202 9.24999 68.1602C9.34999 67.8202 9.46999 67.4902 9.60999 67.1602C10.08 67.1702 10.55 67.1202 11.01 67.0002V66.4002C10.58 66.5502 10.14 66.6702 9.68999 66.7602C9.68999 66.6402 9.80999 66.1602 9.80999 66.0402C9.80999 65.9202 10.05 66.0402 10.05 65.9202H10.01L9.28999 65.6802C9.28999 66.1602 9.16999 66.6802 9.16999 66.8802H8.76999C8.50999 66.8702 8.24999 66.8102 8.00999 66.7202L8.12999 67.3202H9.00999C8.88999 67.8102 8.72999 68.2902 8.52999 68.7602L9.00999 69.1202C9.36999 68.7602 9.84999 68.2802 10.33 68.2802C10.68 68.2602 10.99 68.5202 11.01 68.8702C11.01 68.9102 11.01 68.9502 11.01 69.0002C11.01 69.4802 10.53 70.0002 9.44999 70.0002H8.76999L9.00999 70.4802C9.65999 70.5302 10.31 70.4402 10.93 70.2402C11.35 69.9202 11.57 69.4102 11.53 68.8802Z" fill="#231F20"/>
<path d="M11.53 68.8802C11.58 68.3302 11.17 67.8502 10.62 67.8002C10.56 67.8002 10.51 67.8002 10.45 67.8002C10.02 67.8002 9.59999 67.9202 9.24999 68.1602C9.34999 67.8202 9.46999 67.4902 9.60999 67.1602C10.08 67.1702 10.55 67.1202 11.01 67.0002V66.4002C10.58 66.5502 10.14 66.6702 9.68999 66.7602C9.68999 66.6402 9.80999 66.1602 9.80999 66.0402C9.80999 65.9202 10.05 66.0402 10.05 65.9202H10.01L9.28999 65.6802C9.28999 66.1602 9.16999 66.6802 9.16999 66.8802H8.76999C8.50999 66.8702 8.24999 66.8102 8.00999 66.7202L8.12999 67.3202H9.00999C8.88999 67.8102 8.72999 68.2902 8.52999 68.7602L9.00999 69.1202C9.36999 68.7602 9.84999 68.2802 10.33 68.2802C10.68 68.2602 10.99 68.5202 11.01 68.8702C11.01 68.9102 11.01 68.9502 11.01 69.0002C11.01 69.4802 10.53 70.0002 9.44999 70.0002H8.76999L9.00999 70.4802C9.65999 70.5302 10.31 70.4402 10.93 70.2402C11.35 69.9202 11.57 69.4102 11.53 68.8802Z" fill="white"/>
<path d="M20.01 66.1201C19.89 65.8801 19.65 65.7601 19.53 65.6401L19.29 65.8801L19.77 66.3601L20.01 66.1201ZM19.65 66.4801C19.53 66.3601 19.29 66.2401 19.17 66.1201L18.93 66.3601C19.11 66.4501 19.27 66.5701 19.41 66.7201L19.65 66.4801ZM15.81 69.1201V68.6401C15.81 67.9901 15.9 67.3501 16.05 66.7201C16.05 66.6001 16.05 66.4801 16.17 66.4801C16.17 66.4101 16.22 66.3601 16.29 66.3601C16.29 66.2901 16.24 66.2401 16.17 66.2401L15.73 66.0001C15.49 66.8201 15.36 67.6701 15.37 68.5201C15.34 69.0901 15.42 69.6601 15.61 70.2001L15.97 70.0801C16.1 69.7101 16.26 69.3501 16.45 69.0001L16.09 68.7601L15.81 69.1201ZM18.09 69.3601C18.09 69.6001 18.09 69.7201 17.61 69.7201C17.13 69.7201 17.13 69.6001 17.13 69.4801C17.13 69.3601 17.37 69.2401 17.61 69.2401C17.79 69.2301 17.97 69.2701 18.13 69.3601H18.09ZM19.09 66.7201C18.93 66.8801 18.72 66.9701 18.49 66.9601C18.49 66.5601 18.53 66.3201 18.61 66.2401C18.61 66.1701 18.56 66.1201 18.49 66.1201L18.01 66.0001V67.0801H16.93V67.5601H18.01C17.89 67.9201 18.01 68.0401 18.01 68.7601H17.65C17.05 68.7601 16.65 68.8801 16.65 69.4801C16.65 70.0801 17.65 70.2001 17.73 70.2001C18.45 70.2001 18.57 69.9601 18.57 69.6001C18.79 69.6901 18.99 69.8101 19.17 69.9601L19.41 69.4801C19.05 69.2401 18.81 69.1201 18.41 68.8801C18.41 68.2801 18.29 68.0401 18.29 67.4401C18.54 67.4601 18.78 67.4201 19.01 67.3201L19.09 66.7201Z" fill="#231F20"/>
<path d="M20.01 66.1201C19.89 65.8801 19.65 65.7601 19.53 65.6401L19.29 65.8801L19.77 66.3601L20.01 66.1201ZM19.65 66.4801C19.53 66.3601 19.29 66.2401 19.17 66.1201L18.93 66.3601C19.11 66.4501 19.27 66.5701 19.41 66.7201L19.65 66.4801ZM15.81 69.1201V68.6401C15.81 67.9901 15.9 67.3501 16.05 66.7201C16.05 66.6001 16.05 66.4801 16.17 66.4801C16.17 66.4101 16.22 66.3601 16.29 66.3601C16.29 66.2901 16.24 66.2401 16.17 66.2401L15.73 66.0001C15.49 66.8201 15.36 67.6701 15.37 68.5201C15.34 69.0901 15.42 69.6601 15.61 70.2001L15.97 70.0801C16.1 69.7101 16.26 69.3501 16.45 69.0001L16.09 68.7601L15.81 69.1201ZM18.09 69.3601C18.09 69.6001 18.09 69.7201 17.61 69.7201C17.13 69.7201 17.13 69.6001 17.13 69.4801C17.13 69.3601 17.37 69.2401 17.61 69.2401C17.79 69.2301 17.97 69.2701 18.13 69.3601H18.09ZM19.09 66.7201C18.93 66.8801 18.72 66.9701 18.49 66.9601C18.49 66.5601 18.53 66.3201 18.61 66.2401C18.61 66.1701 18.56 66.1201 18.49 66.1201L18.01 66.0001V67.0801H16.93V67.5601H18.01C17.89 67.9201 18.01 68.0401 18.01 68.7601H17.65C17.05 68.7601 16.65 68.8801 16.65 69.4801C16.65 70.0801 17.65 70.2001 17.73 70.2001C18.45 70.2001 18.57 69.9601 18.57 69.6001C18.79 69.6901 18.99 69.8101 19.17 69.9601L19.41 69.4801C19.05 69.2401 18.81 69.1201 18.41 68.8801C18.41 68.2801 18.29 68.0401 18.29 67.4401C18.54 67.4601 18.78 67.4201 19.01 67.3201L19.09 66.7201Z" fill="white"/>
<path d="M27.49 69.2398L27.13 68.7598C26.89 68.9998 26.53 69.5998 26.13 69.5998C26 69.5998 25.9 69.4898 25.89 69.3598C25.89 69.2398 26.01 68.5198 26.01 68.3598C25.99 68.0398 25.73 67.7798 25.41 67.7598C25.2 67.7598 25 67.7898 24.81 67.8798C24.98 67.3398 25.26 66.8498 25.65 66.4398C25.65 66.3698 25.7 66.3198 25.77 66.3198C25.77 66.2498 25.72 66.1998 25.65 66.1998L25.05 65.8398C24.95 66.0898 24.83 66.3298 24.69 66.5598C24.19 67.7398 23.63 68.8798 23.01 69.9998L23.73 70.2398C23.9 69.7498 24.1 69.2699 24.33 68.7999C24.57 68.6799 24.81 68.4398 25.05 68.4398C25.29 68.4398 25.41 68.5598 25.41 68.6798C25.41 68.7998 25.29 69.5198 25.29 69.6798C25.3 70.0298 25.6 70.2998 25.94 70.2898C25.96 70.2898 25.98 70.2898 26.01 70.2898C26.66 70.2598 27.24 69.8598 27.49 69.2498V69.2398Z" fill="#231F20"/>
<path d="M27.49 69.2398L27.13 68.7598C26.89 68.9998 26.53 69.5998 26.13 69.5998C26 69.5998 25.9 69.4898 25.89 69.3598C25.89 69.2398 26.01 68.5198 26.01 68.3598C25.99 68.0398 25.73 67.7798 25.41 67.7598C25.2 67.7598 25 67.7898 24.81 67.8798C24.98 67.3398 25.26 66.8498 25.65 66.4398C25.65 66.3698 25.7 66.3198 25.77 66.3198C25.77 66.2498 25.72 66.1998 25.65 66.1998L25.05 65.8398C24.95 66.0898 24.83 66.3298 24.69 66.5598C24.19 67.7398 23.63 68.8798 23.01 69.9998L23.73 70.2398C23.9 69.7498 24.1 69.2699 24.33 68.7999C24.57 68.6799 24.81 68.4398 25.05 68.4398C25.29 68.4398 25.41 68.5598 25.41 68.6798C25.41 68.7998 25.29 69.5198 25.29 69.6798C25.3 70.0298 25.6 70.2998 25.94 70.2898C25.96 70.2898 25.98 70.2898 26.01 70.2898C26.66 70.2598 27.24 69.8598 27.49 69.2498V69.2398Z" fill="white"/>
<path d="M32.17 68.7601L31.81 68.6401C31.69 68.7601 31.69 68.8801 31.57 69.0001C31.49 68.7701 31.45 68.5301 31.45 68.2801C31.43 67.6601 31.55 67.0401 31.81 66.4801H31.93V66.3601H31.81L31.33 66.1201C31.23 66.5101 31.15 66.9201 31.09 67.3201C31.09 67.5601 30.97 67.9201 30.97 68.3201C30.99 68.8101 31.07 69.2901 31.21 69.7601C31.21 70.0001 31.33 70.1201 31.33 70.2401L31.81 70.0001C31.83 69.5601 31.95 69.1401 32.17 68.7601ZM34.93 69.7601V69.1601C34.69 69.1601 34.33 69.2801 33.73 69.2801C33.13 69.2801 33.01 69.1601 33.01 68.6801H32.53C32.65 69.6801 32.77 69.8801 33.73 69.8801C34.14 69.9101 34.55 69.8501 34.93 69.7201V69.7601ZM34.69 67.0001V66.4001C34.27 66.5701 33.82 66.6501 33.37 66.6401C33.01 66.6401 32.89 66.6401 32.77 66.5201V67.1201H33.25C33.85 67.0801 34.45 67.0001 34.69 67.0001Z" fill="#231F20"/>
<path d="M32.17 68.7601L31.81 68.6401C31.69 68.7601 31.69 68.8801 31.57 69.0001C31.49 68.7701 31.45 68.5301 31.45 68.2801C31.43 67.6601 31.55 67.0401 31.81 66.4801H31.93V66.3601H31.81L31.33 66.1201C31.23 66.5101 31.15 66.9201 31.09 67.3201C31.09 67.5601 30.97 67.9201 30.97 68.3201C30.99 68.8101 31.07 69.2901 31.21 69.7601C31.21 70.0001 31.33 70.1201 31.33 70.2401L31.81 70.0001C31.83 69.5601 31.95 69.1401 32.17 68.7601ZM34.93 69.7601V69.1601C34.69 69.1601 34.33 69.2801 33.73 69.2801C33.13 69.2801 33.01 69.1601 33.01 68.6801H32.53C32.65 69.6801 32.77 69.8801 33.73 69.8801C34.14 69.9101 34.55 69.8501 34.93 69.7201V69.7601ZM34.69 67.0001V66.4001C34.27 66.5701 33.82 66.6501 33.37 66.6401C33.01 66.6401 32.89 66.6401 32.77 66.5201V67.1201H33.25C33.85 67.0801 34.45 67.0001 34.69 67.0001Z" fill="white"/>
<path d="M38.65 69.3599C39.1 69.6699 39.47 70.0799 39.73 70.5599L40.33 70.0799C40.02 69.5599 39.56 69.1399 39.01 68.8799L38.65 69.3599Z" fill="#231F20"/>
<path d="M38.65 69.3599C39.1 69.6699 39.47 70.0799 39.73 70.5599L40.33 70.0799C40.02 69.5599 39.56 69.1399 39.01 68.8799L38.65 69.3599Z" fill="white"/>
<path d="M46.09 66.1198C46.09 66.0398 46.05 65.9998 45.97 65.9998L45.37 65.7598C45.13 66.5098 44.72 67.1898 44.17 67.7598L44.77 68.1198C44.78 68.0298 44.82 67.9398 44.89 67.8798V70.5198H45.49V67.3198C45.49 67.2398 45.53 67.1998 45.61 67.1998H45.73C45.73 67.0798 45.61 67.0798 45.49 66.9598C45.66 66.6998 45.78 66.4198 45.85 66.1198H46.09ZM49.21 70.3198V69.7198H47.77V68.6398H48.85V67.9998H47.77V67.1998H49.21V66.5998H47.77L48.01 66.3598C47.77 66.0998 47.49 65.8998 47.17 65.7598L46.69 66.1198C46.94 66.2098 47.15 66.3798 47.29 66.5998H46.01V67.1998H47.21V67.9998H46.21V68.5998H47.21V69.6798H45.85V70.2798L49.21 70.3198Z" fill="#231F20"/>
<path d="M46.09 66.1198C46.09 66.0398 46.05 65.9998 45.97 65.9998L45.37 65.7598C45.13 66.5098 44.72 67.1898 44.17 67.7598L44.77 68.1198C44.78 68.0298 44.82 67.9398 44.89 67.8798V70.5198H45.49V67.3198C45.49 67.2398 45.53 67.1998 45.61 67.1998H45.73C45.73 67.0798 45.61 67.0798 45.49 66.9598C45.66 66.6998 45.78 66.4198 45.85 66.1198H46.09ZM49.21 70.3198V69.7198H47.77V68.6398H48.85V67.9998H47.77V67.1998H49.21V66.5998H47.77L48.01 66.3598C47.77 66.0998 47.49 65.8998 47.17 65.7598L46.69 66.1198C46.94 66.2098 47.15 66.3798 47.29 66.5998H46.01V67.1998H47.21V67.9998H46.21V68.5998H47.21V69.6798H45.85V70.2798L49.21 70.3198Z" fill="white"/>
<path d="M53.89 68.3999C53.89 68.6399 53.77 68.8799 53.53 68.8799C53.4 68.8799 53.29 68.7699 53.29 68.6399C53.3 68.4199 53.44 68.2299 53.65 68.1599C53.78 68.1599 53.88 68.2699 53.89 68.3999ZM56.41 69.3999C56.39 69.0299 56.31 68.6599 56.17 68.3199L55.57 68.5599C55.73 68.7699 55.81 69.0199 55.81 69.2799C55.81 69.5199 55.69 69.7599 54.49 69.7599C54.13 69.7599 54.01 69.6399 54.01 69.5199C54.06 69.3099 54.14 69.1099 54.25 68.9199C54.25 68.6799 54.37 68.5599 54.37 68.3199C54.37 68.0799 54.37 68.0799 54.25 68.0799C54.25 67.8399 54.25 67.4799 54.37 67.3599C54.49 67.2399 54.97 67.2399 55.37 67.1199V66.5199C55 66.5499 54.64 66.6399 54.29 66.7599V66.1599C54.37 66.1599 54.41 66.1199 54.41 66.0399H54.53C54.47 65.9699 54.38 65.9299 54.29 65.9199H53.81V66.9199H52.81L52.93 67.5199C53.22 67.5499 53.5 67.5099 53.77 67.3999V67.8799C53.34 67.7699 52.9 68.0399 52.79 68.4799C52.77 68.5599 52.76 68.6399 52.77 68.7199C52.77 69.4399 53.25 69.4399 53.49 69.5599C53.37 69.5599 53.37 69.7999 53.37 69.7999C53.37 70.2799 54.09 70.2799 54.45 70.2799C54.98 70.2699 55.5 70.1999 56.01 70.0799C56.01 69.9999 56.41 69.8399 56.41 69.3599V69.3999ZM56.89 67.1199C56.67 66.7799 56.39 66.4999 56.05 66.2799L55.69 66.7599C55.99 66.9699 56.28 67.2099 56.53 67.4799L56.89 67.1199Z" fill="#231F20"/>
<path d="M53.89 68.3999C53.89 68.6399 53.77 68.8799 53.53 68.8799C53.4 68.8799 53.29 68.7699 53.29 68.6399C53.3 68.4199 53.44 68.2299 53.65 68.1599C53.78 68.1599 53.88 68.2699 53.89 68.3999ZM56.41 69.3999C56.39 69.0299 56.31 68.6599 56.17 68.3199L55.57 68.5599C55.73 68.7699 55.81 69.0199 55.81 69.2799C55.81 69.5199 55.69 69.7599 54.49 69.7599C54.13 69.7599 54.01 69.6399 54.01 69.5199C54.06 69.3099 54.14 69.1099 54.25 68.9199C54.25 68.6799 54.37 68.5599 54.37 68.3199C54.37 68.0799 54.37 68.0799 54.25 68.0799C54.25 67.8399 54.25 67.4799 54.37 67.3599C54.49 67.2399 54.97 67.2399 55.37 67.1199V66.5199C55 66.5499 54.64 66.6399 54.29 66.7599V66.1599C54.37 66.1599 54.41 66.1199 54.41 66.0399H54.53C54.47 65.9699 54.38 65.9299 54.29 65.9199H53.81V66.9199H52.81L52.93 67.5199C53.22 67.5499 53.5 67.5099 53.77 67.3999V67.8799C53.34 67.7699 52.9 68.0399 52.79 68.4799C52.77 68.5599 52.76 68.6399 52.77 68.7199C52.77 69.4399 53.25 69.4399 53.49 69.5599C53.37 69.5599 53.37 69.7999 53.37 69.7999C53.37 70.2799 54.09 70.2799 54.45 70.2799C54.98 70.2699 55.5 70.1999 56.01 70.0799C56.01 69.9999 56.41 69.8399 56.41 69.3599V69.3999ZM56.89 67.1199C56.67 66.7799 56.39 66.4999 56.05 66.2799L55.69 66.7599C55.99 66.9699 56.28 67.2099 56.53 67.4799L56.89 67.1199Z" fill="white"/>
<path d="M65.01 69.8398C63.65 69.3098 62.82 67.9298 63.01 66.4798V65.9998H63.13C63.13 65.9298 63.18 65.8798 63.25 65.8798C63.25 65.7598 63.01 65.7598 63.01 65.7598H62.41V66.8398C62.48 67.6898 62.17 68.5198 61.57 69.1198C61.21 69.4598 60.81 69.7398 60.37 69.9598L60.97 70.4398C61.8 70.0298 62.45 69.3098 62.77 68.4398C63.09 69.3098 63.74 70.0298 64.57 70.4398L65.01 69.8398Z" fill="#231F20"/>
<path d="M65.01 69.8398C63.65 69.3098 62.82 67.9298 63.01 66.4798V65.9998H63.13C63.13 65.9298 63.18 65.8798 63.25 65.8798C63.25 65.7598 63.01 65.7598 63.01 65.7598H62.41V66.8398C62.48 67.6898 62.17 68.5198 61.57 69.1198C61.21 69.4598 60.81 69.7398 60.37 69.9598L60.97 70.4398C61.8 70.0298 62.45 69.3098 62.77 68.4398C63.09 69.3098 63.74 70.0298 64.57 70.4398L65.01 69.8398Z" fill="white"/>
<path d="M70.33 66.72C70.21 67.56 69.73 69 69.49 69C69.25 69 69.13 68.76 69.13 68.28C69.13 67.83 69.3 67.4 69.61 67.08C69.82 66.91 70.07 66.79 70.33 66.72ZM73.01 68C73.05 66.97 72.24 66.11 71.22 66.08C71.15 66.08 71.08 66.08 71.01 66.08C69.8 66.03 68.78 66.98 68.73 68.2C68.73 68.25 68.73 68.31 68.73 68.36C68.69 69.01 69.1 69.61 69.73 69.8C69.97 69.8 70.21 69.32 70.45 68.96C70.77 68.2 70.97 67.39 71.05 66.56C71.42 66.52 71.79 66.65 72.05 66.92C72.36 67.16 72.54 67.53 72.53 67.92C72.47 68.35 72.24 68.74 71.89 69C71.62 69.29 71.27 69.5 70.89 69.6L71.25 70.2C71.8 70.04 72.27 69.68 72.57 69.2C72.84 68.86 73 68.44 73.01 68Z" fill="#231F20"/>
<path d="M70.33 66.72C70.21 67.56 69.73 69 69.49 69C69.25 69 69.13 68.76 69.13 68.28C69.13 67.83 69.3 67.4 69.61 67.08C69.82 66.91 70.07 66.79 70.33 66.72ZM73.01 68C73.05 66.97 72.24 66.11 71.22 66.08C71.15 66.08 71.08 66.08 71.01 66.08C69.8 66.03 68.78 66.98 68.73 68.2C68.73 68.25 68.73 68.31 68.73 68.36C68.69 69.01 69.1 69.61 69.73 69.8C69.97 69.8 70.21 69.32 70.45 68.96C70.77 68.2 70.97 67.39 71.05 66.56C71.42 66.52 71.79 66.65 72.05 66.92C72.36 67.16 72.54 67.53 72.53 67.92C72.47 68.35 72.24 68.74 71.89 69C71.62 69.29 71.27 69.5 70.89 69.6L71.25 70.2C71.8 70.04 72.27 69.68 72.57 69.2C72.84 68.86 73 68.44 73.01 68Z" fill="white"/>
<path d="M79.81 70.0002V69.4002C79.45 69.4002 79.09 69.5201 78.13 69.5201C77.79 69.5501 77.45 69.5202 77.13 69.4002C77.06 69.3402 77.02 69.2502 77.01 69.1602C77.01 69.0402 77.25 68.8002 77.37 68.6802L76.89 68.3202C76.57 68.5802 76.39 68.9802 76.41 69.4002C76.41 69.6402 76.53 69.7602 76.65 69.7602C76.89 70.1202 77.65 70.1202 78.09 70.1202C78.67 70.1502 79.24 70.1102 79.81 70.0002ZM79.57 66.6402L79.33 66.1602C78.94 66.2702 78.53 66.3102 78.13 66.2802C77.65 66.3002 77.16 66.2602 76.69 66.1602L76.81 66.7602H78.49L77.89 67.2402L78.25 67.7202C78.61 67.4402 79.09 67.0002 79.57 66.6002V66.6402Z" fill="#231F20"/>
<path d="M79.81 70.0002V69.4002C79.45 69.4002 79.09 69.5201 78.13 69.5201C77.79 69.5501 77.45 69.5202 77.13 69.4002C77.06 69.3402 77.02 69.2502 77.01 69.1602C77.01 69.0402 77.25 68.8002 77.37 68.6802L76.89 68.3202C76.57 68.5802 76.39 68.9802 76.41 69.4002C76.41 69.6402 76.53 69.7602 76.65 69.7602C76.89 70.1202 77.65 70.1202 78.09 70.1202C78.67 70.1502 79.24 70.1102 79.81 70.0002ZM79.57 66.6402L79.33 66.1602C78.94 66.2702 78.53 66.3102 78.13 66.2802C77.65 66.3002 77.16 66.2602 76.69 66.1602L76.81 66.7602H78.49L77.89 67.2402L78.25 67.7202C78.61 67.4402 79.09 67.0002 79.57 66.6002V66.6402Z" fill="white"/>
<path d="M86.77 70.1998V69.4798C86.18 69.6198 85.58 69.6998 84.97 69.7198C84.49 69.7198 83.97 69.4798 83.97 69.1198C83.97 68.7598 84.33 68.5198 84.57 68.2798C85.2 67.9198 85.87 67.6398 86.57 67.4398L86.45 66.7198C85.96 66.9398 85.48 67.1798 85.01 67.4398C84.89 67.3198 84.77 67.3198 84.65 67.0798C84.56 66.6498 84.52 66.1998 84.53 65.7598L83.81 65.8798C84.05 66.9598 84.05 67.0798 84.17 67.1998C84.29 67.3198 84.29 67.5598 84.41 67.7998C83.81 68.1598 83.41 68.3998 83.41 69.1198C83.38 69.5198 83.56 69.8998 83.89 70.1198C84.26 70.3098 84.68 70.3898 85.09 70.3598C85.81 70.3198 86.41 70.1998 86.77 70.1998Z" fill="#231F20"/>
<path d="M86.77 70.1998V69.4798C86.18 69.6198 85.58 69.6998 84.97 69.7198C84.49 69.7198 83.97 69.4798 83.97 69.1198C83.97 68.7598 84.33 68.5198 84.57 68.2798C85.2 67.9198 85.87 67.6398 86.57 67.4398L86.45 66.7198C85.96 66.9398 85.48 67.1798 85.01 67.4398C84.89 67.3198 84.77 67.3198 84.65 67.0798C84.56 66.6498 84.52 66.1998 84.53 65.7598L83.81 65.8798C84.05 66.9598 84.05 67.0798 84.17 67.1998C84.29 67.3198 84.29 67.5598 84.41 67.7998C83.81 68.1598 83.41 68.3998 83.41 69.1198C83.38 69.5198 83.56 69.8998 83.89 70.1198C84.26 70.3098 84.68 70.3898 85.09 70.3598C85.81 70.3198 86.41 70.1998 86.77 70.1998Z" fill="white"/>
<path d="M91.21 69.1199C91.54 69.1199 91.81 69.3899 91.81 69.7199C91.81 70.0499 91.54 70.3199 91.21 70.3199C90.88 70.3199 90.61 70.0499 90.61 69.7199C90.59 69.4099 90.83 69.1399 91.15 69.1199C91.17 69.1199 91.19 69.1199 91.21 69.1199ZM91.21 68.8799C90.75 68.8799 90.37 69.2599 90.37 69.7199C90.37 70.1799 90.75 70.5599 91.21 70.5599C91.67 70.5599 92.05 70.1799 92.05 69.7199C92.06 69.2699 91.7 68.8899 91.25 68.8799C91.24 68.8799 91.22 68.8799 91.21 68.8799Z" fill="#231F20"/>
<path d="M91.21 69.1199C91.54 69.1199 91.81 69.3899 91.81 69.7199C91.81 70.0499 91.54 70.3199 91.21 70.3199C90.88 70.3199 90.61 70.0499 90.61 69.7199C90.59 69.4099 90.83 69.1399 91.15 69.1199C91.17 69.1199 91.19 69.1199 91.21 69.1199ZM91.21 68.8799C90.75 68.8799 90.37 69.2599 90.37 69.7199C90.37 70.1799 90.75 70.5599 91.21 70.5599C91.67 70.5599 92.05 70.1799 92.05 69.7199C92.06 69.2699 91.7 68.8899 91.25 68.8799C91.24 68.8799 91.22 68.8799 91.21 68.8799Z" fill="white"/>
<path d="M77.53 0H14.53V63H77.53V0Z" fill="#E76425"/>
<path d="M75.25 1.91992H16.45V61.0799H75.61V1.91992H75.25ZM74.89 11.6399H65.89V2.63992H74.89V11.6399ZM55.45 40.9199H36.73V22.0799H55.45V40.9199ZM55.45 41.5199V60.3599H36.73V41.5199H55.45ZM36.01 40.9199H17.17V22.0799H36.01V40.9199ZM65.17 21.3599H56.17V12.3599H65.17V21.3599ZM56.17 11.6399V2.63992H65.17V11.6399H56.17ZM55.45 21.3599H36.73V2.63992H55.45V21.3599ZM56.17 22.0799H74.89V40.9199H56.17V22.0799ZM65.89 21.3599V12.3599H74.89V21.3599H65.89ZM36.01 2.63992V21.3599H17.17V2.63992H36.01ZM17.17 41.5199H36.01V60.3599H17.17V41.5199ZM56.17 60.3599V41.5199H74.89V60.3599H56.17Z" fill="white"/>
<path d="M19.69 5.3999H33.37V6.7199H19.69V5.3999ZM20.53 10.9999H32.53V12.3199H20.53V10.9999ZM19.01 17.1599H34.21V18.5999H19.01V17.1599Z" fill="white"/>
<path d="M43.69 8.75982H48.69V13.1998H43.57C43.57 13.0798 43.69 12.1198 43.69 11.3998V8.75982ZM42.25 7.43982H38.65V8.75982H42.25V11.3998C42.27 11.9998 42.23 12.6098 42.13 13.1998H38.41V14.5198H41.89C41.29 16.6798 39.13 18.1198 38.29 18.5998L39.29 19.6798C42.53 17.5198 43.13 15.5998 43.37 14.5198H48.77V19.6798H50.21V14.5198H53.93V13.1998H50.17V8.75982H53.65V7.43982H50.17V4.31982H48.73V7.43982H43.73V4.31982H42.25V7.43982Z" fill="white"/>
<path d="M46.93 28.56C46.45 31.8 45.37 35.28 43.45 35.28C42.01 35.28 41.29 33.48 41.29 31.92C41.34 29.34 43.43 27.27 46.01 27.24C48.5 27.08 50.64 28.96 50.8 31.45C50.8 31.53 50.8 31.6 50.8 31.68C50.83 33.72 49.51 35.53 47.56 36.12L47.2 34.92C48.7 34.57 49.75 33.22 49.72 31.68C49.69 30.09 48.5 28.76 46.92 28.56H46.93ZM45.85 28.44C43.97 28.49 42.48 30.04 42.49 31.92C42.49 32.92 42.85 34.08 43.49 34.08C44.41 34.08 45.37 31.32 45.85 28.44Z" fill="white"/>
<path d="M50.65 53.4001H41.53V52.3201H50.65V53.4001ZM52.09 49.5601H40.21V56.2801H52.09V49.5601ZM50.65 51.4801H41.53V50.4801H50.65V51.4801ZM50.65 55.3201H41.53V54.2401H50.65V55.3201ZM41.53 45.2401C42.07 44.7701 42.52 44.2001 42.85 43.5601L41.53 43.2001C40.61 44.5701 39.32 45.6501 37.81 46.3201L38.65 47.5201C38.89 47.2801 39.37 47.0401 40.21 46.4401V49.0001H41.53V45.2401ZM48.85 44.7601C50.23 44.7301 51.6 44.5301 52.93 44.1601L52.45 43.0801C51.04 43.4801 49.59 43.7201 48.13 43.8001C45.85 43.9201 44.13 43.9201 43.33 43.9201L43.45 45.0001C45.45 45.0001 46.57 44.8801 47.53 44.8801V45.8801H42.73V46.8801H47.53V47.8801H43.21V48.8801H53.21V47.8801H48.85V46.8801H53.53V45.8801H48.85V44.7601ZM48.01 57.2401C49.68 58.0201 51.46 58.5401 53.29 58.8001L53.89 57.6001C52.17 57.4201 50.48 56.9701 48.89 56.2801L48.01 57.2401ZM38.89 58.8001C40.61 58.5701 42.27 58.0401 43.81 57.2401L42.97 56.2401C41.51 56.9801 39.92 57.4301 38.29 57.5601L38.89 58.8001Z" fill="white"/>
<path d="M59.53 46.6802V48.6802H60.85V45.6002C61.43 45.0602 61.95 44.4502 62.41 43.8002L61.21 43.2002C60.17 44.6602 58.76 45.8202 57.13 46.5602L57.73 47.7602C58.4 47.5302 59.01 47.1602 59.53 46.6802Z" fill="white"/>
<path d="M71.41 56.2801V49.9201C71.51 50.0001 71.64 50.0401 71.77 50.0401L74.17 48.7201L73.45 47.5201C73.45 47.5201 72.01 48.3601 71.65 48.6001C70.42 48.0301 69.31 47.2101 68.41 46.2001L73.21 46.0001L73.09 44.9201H71.01L71.49 44.0801L69.01 42.6001L68.53 43.6801L70.81 45.0001L67.33 45.1201C66.95 44.7101 66.66 44.2201 66.49 43.6801L65.17 44.0001C65.32 44.3801 65.52 44.7501 65.77 45.0801L62.17 45.3201V46.5201L66.61 46.2801C67.59 47.4201 68.74 48.4001 70.01 49.2001H59.53V56.2801H62.17C60.74 57.0001 59.2 57.4401 57.61 57.6001L58.21 58.8001C59.92 58.5201 61.57 57.9901 63.13 57.2401L62.29 56.2401H68.17L67.33 57.2401C68.97 58.0901 70.77 58.6201 72.61 58.8001L73.21 57.6001C71.5 57.4601 69.84 57.0101 68.29 56.2801H71.41ZM60.85 50.2801H70.01V51.3601H60.85V50.2801ZM60.85 52.2001H70.01V53.2801H60.85V52.2001ZM69.97 55.2001H60.85V54.1201H70.01L69.97 55.2001Z" fill="white"/>
</g>
<defs>
<clipPath id="clip0_2128_8547">
<rect width="92.05" height="70.56" fill="white"/>
</clipPath>
</defs>
</svg>
