<svg width="286" height="101" viewBox="0 0 286 101" fill="none" xmlns="http://www.w3.org/2000/svg">
<path d="M40.1941 55.1479H24.7725V56.9347H25.9622V83.0282H25.2565V84.8149H42.4877V83.0282H30.0201V70.7569H37.9187V68.9701H30.0201V56.9347H41.0718V55.1479H40.1941Z" fill="white"/>
<path d="M127.11 55.1479H111.688V56.9347H112.878V83.0282H112.173V84.8149H129.404V83.0282H116.936V70.7569H124.835V68.9701H116.936V56.9347H127.988V55.1479H127.11Z" fill="white"/>
<path d="M49.6396 57.1751C47.9432 58.5537 47.0882 60.2542 47.0882 62.2269C47.0882 63.2699 47.346 64.263 47.8663 65.1655C48.3729 66.0543 49.0786 66.8479 49.9563 67.5145C49.9879 67.5372 57.7146 72.8248 57.7146 72.8248C58.5244 73.3645 59.1532 74.0175 59.5965 74.7657C60.0353 75.514 60.2615 76.3121 60.2615 77.1465C60.2615 78.6929 59.6146 79.9717 58.271 81.0601C56.932 82.1484 55.3622 82.679 53.4577 82.679C52.2589 82.679 51.2003 82.4749 50.3046 82.085C49.3636 81.6632 48.5765 81.178 47.9748 80.6338L46.1562 81.4365C46.1562 81.4365 46.8348 82.6881 48.4996 83.5316C50.2186 84.3932 52.0463 84.824 53.9463 84.824C56.7148 84.824 59.1079 84.0213 61.0622 82.4341C63.012 80.8424 63.9982 78.8924 63.9982 76.6341C63.9982 74.0583 62.7948 71.9314 60.4153 70.2989L52.6208 65.0249C52.0327 64.5669 51.5351 64.0091 51.1822 63.3969C50.8384 62.8073 50.662 62.1725 50.662 61.5194C50.662 60.2633 51.1867 59.2203 52.2679 58.3405C53.3491 57.4608 54.6248 57.0345 56.172 57.0345C56.7963 57.0345 57.3301 56.971 58.2303 57.2068C59.1215 57.4472 60.4334 58.2725 60.4334 58.2725L61.8132 57.1433C61.8132 57.1433 60.5782 56.1184 59.3251 55.6922C58.1896 55.3022 57.0224 55.1072 55.8463 55.1072C53.426 55.1072 51.3405 55.8055 49.6486 57.1796" fill="white"/>
<path d="M253.193 57.1751C251.506 58.5537 250.646 60.2542 250.646 62.2269C250.646 63.2699 250.904 64.263 251.425 65.1655C251.931 66.0543 252.632 66.8479 253.515 67.5145C253.546 67.5372 261.268 72.8248 261.268 72.8248C262.078 73.3645 262.711 74.0175 263.155 74.7657C263.594 75.514 263.82 76.3121 263.82 77.1465C263.82 78.6929 263.168 79.9717 261.834 81.0601C260.495 82.1484 258.916 82.679 257.016 82.679C255.817 82.679 254.754 82.4749 253.858 82.085C252.922 81.6632 252.135 81.178 251.529 80.6338L249.71 81.4365C249.71 81.4365 250.389 82.6881 252.058 83.5316C253.772 84.3932 255.6 84.824 257.5 84.824C260.269 84.824 262.666 84.0213 264.616 82.4341C266.566 80.8424 267.556 78.8924 267.556 76.6341C267.556 74.0583 266.349 71.9314 263.965 70.2989L256.175 65.0249C255.586 64.5669 255.089 64.0091 254.731 63.3969C254.383 62.8073 254.216 62.1725 254.216 61.5194C254.216 60.2633 254.736 59.2203 255.817 58.3405C256.898 57.4608 258.179 57.0345 259.726 57.0345C260.341 57.0345 260.879 56.971 261.779 57.2068C262.675 57.4472 263.983 58.2725 263.983 58.2725L265.362 57.1433C265.362 57.1433 264.123 56.1184 262.874 55.6922C261.739 55.3022 260.567 55.1072 259.395 55.1072C256.975 55.1072 254.885 55.8055 253.189 57.1796" fill="white"/>
<path d="M74.4667 55.1479H70.1826V56.9347H70.6757V83.0282H70.1826V84.8149H75.3398V83.0282H74.8467V56.9347H75.3398V55.1479H74.4621" fill="white"/>
<path d="M4.65953 55.1479H0V56.9301H0.497619V83.0282H0V84.8149H5.16619V83.0282H4.65953V55.1479Z" fill="white"/>
<path d="M92.6294 55.1481H81.8809V56.9348H82.6499V83.0283H81.8809V84.815H92.6294C97.6554 84.815 106.816 82.212 106.816 69.2106C106.816 56.2092 97.6509 55.1436 92.6294 55.1436M90.6842 83.0283H86.7168V56.9348H90.6842C95.1628 56.9348 102.758 59.3972 102.758 69.2378C102.758 80.6656 95.1311 83.0283 90.6842 83.0283Z" fill="white"/>
<path d="M135.954 55.1479V83.0463H134.909V84.8376H139.193V83.0463H138.153V62.839C140.822 66.9295 152.493 84.8058 152.493 84.8058H154.457V56.9483H155.502V55.1616H151.213V56.9483H152.258V77.3188C149.589 73.2193 137.804 55.1525 137.804 55.1525H135.95" fill="white"/>
<path d="M176.533 55.1479H161.215V56.9347H166.979V83.0282H166.155V84.8149H171.715V83.0282H171.046V56.9347H177.411V55.1479H176.533Z" fill="white"/>
<path d="M205.354 55.1479H191.706V56.9347H192.891V83.0282H192.176V84.8149H197.672V83.0282H196.953V70.7796H203.323V68.9928H196.953V56.9347H206.227V55.1479H205.349" fill="white"/>
<path d="M216.206 55.1479H211.922V56.9347H212.415V83.0282H211.922V84.8149H217.08V83.0282H216.586V56.9347H217.08V55.1479H216.202" fill="white"/>
<path d="M285.118 55.1479H269.8V56.9347H275.564V83.0282H274.74V84.8149H280.3V83.0282H279.626V56.9347H285.996V55.1479H285.113" fill="white"/>
<path d="M6.31507 72.6025C6.27888 72.6025 6.26079 72.6116 6.2246 72.6116L5.69531 74.2487C5.80841 74.3122 5.9396 74.3666 6.08888 74.4119C7.12936 74.684 8.16079 75.5774 9.13793 77.0603L11.8522 81.577C13.2094 83.4544 14.8063 84.6335 16.6248 85.1187C17.3894 85.3182 18.2896 85.3999 19.3029 85.3636C20.2439 85.3273 21.6056 84.8648 21.6056 84.8648L20.8048 83.6177L19.9046 83.5224L19.226 83.3683C18.0137 83.0463 17.1768 81.7493 16.0051 80.1304C13.5306 76.702 11.8115 75.5774 10.391 74.3212C8.97055 73.0696 6.31055 72.6116 6.31055 72.6116" fill="white"/>
<path d="M4.63245 55.1479C13.3996 55.1479 17.2991 57.8054 17.2991 64.2675C17.2991 70.7297 10.2284 74.5253 5.76793 74.5253V72.6026C9.68555 72.6026 13.0694 68.8885 13.0694 64.2675C13.0694 59.6465 11.5856 56.9301 4.62793 56.9301V55.1479" fill="white"/>
<path d="M230.484 55.1479H225.838V56.9301H226.331V83.0282H225.838V84.8149H230.995V83.0282H230.488V55.1479" fill="white"/>
<path d="M232.148 72.6025C232.112 72.6025 232.09 72.6116 232.053 72.6116L231.52 74.2487C231.637 74.3122 231.764 74.3666 231.918 74.4119C232.958 74.684 233.99 75.5774 234.967 77.0603L237.681 81.577C239.038 83.4544 240.635 84.6335 242.454 85.1187C243.218 85.3182 244.118 85.3999 245.136 85.3636C246.073 85.3273 247.434 84.8648 247.434 84.8648L246.638 83.6177L245.738 83.5224L245.059 83.3683C243.847 83.0463 243.006 81.7493 241.838 80.1304C239.364 76.702 237.645 75.5774 236.224 74.3212C234.804 73.0696 232.148 72.6116 232.148 72.6116" fill="white"/>
<path d="M230.461 55.1479C239.228 55.1479 243.128 57.8054 243.128 64.2675C243.128 70.7297 236.057 74.5253 231.601 74.5253V72.6026C235.514 72.6026 238.902 68.8885 238.902 64.2675C238.902 59.6465 237.419 56.9301 230.465 56.9301V55.1479" fill="white"/>
<path d="M138.126 98.8865C142.319 98.4829 143.762 95.6305 144.477 93.2815L145.707 93.8166C144.943 95.9706 143.455 100.138 136.773 100.356V90.7102H138.126V98.8865Z" fill="white"/>
<path d="M151.516 93.3541C150.372 92.7782 149.286 92.3792 148.295 92.0935L148.847 90.8781C150.593 91.3951 151.457 91.7942 152.109 92.0935L151.521 93.3541M150.625 96.0388C149.286 95.3132 147.942 94.8688 147.381 94.6965L147.911 93.4902C148.336 93.6262 150.059 94.1341 151.159 94.7327L150.625 96.0433M155.031 92.2023C154.868 91.4178 154.723 90.987 154.488 90.3385L155.443 90.1344C155.628 90.5199 155.814 91.123 156.013 91.971L155.036 92.2023M156.628 92.0481C156.465 91.2681 156.32 90.8373 156.081 90.1888L157.035 89.9802C157.221 90.3702 157.406 90.9779 157.605 91.8214L156.628 92.0481ZM167.083 92.0209C166.938 91.3089 166.807 90.9235 166.594 90.343L167.458 90.1571C167.621 90.5063 167.797 91.0504 167.969 91.8168L167.087 92.0209M168.444 91.8849C168.299 91.1774 168.168 90.7874 167.956 90.2024L168.815 90.0165C168.978 90.3657 169.15 90.9144 169.331 91.6763L168.444 91.8849ZM148.042 98.9003C152.394 98.5375 154.371 97.2224 155.873 92.6014L157.121 93.1546C155.551 97.5443 153.597 99.6939 148.368 100.288L148.046 98.9003H148.042Z" fill="white"/>
<path d="M166.494 90.9324V92.1114H159.302V90.9324H166.494ZM168.223 93.9208V95.118H164.445L164.423 95.4491C164.355 96.4241 164.273 97.7301 163.138 98.9454C162.192 99.9794 160.794 100.333 159.614 100.569L159.062 99.3853C161.355 99.0633 162.975 98.433 163.07 95.44L163.079 95.118H158.573V93.9208H168.223Z" fill="white"/>
<path d="M173.502 93.998C172.638 93.3586 171.204 92.6557 170.014 92.2929L170.638 91.1592C171.665 91.4494 172.67 91.7895 174.221 92.7418L173.507 93.9935M170.132 98.7823C174.149 98.4966 176.863 97.1044 178.564 91.8848L179.872 92.4743C178.13 97.5352 175.606 99.6076 170.562 100.247L170.132 98.7868V98.7823Z" fill="white"/>
<path d="M183.518 90.4335V93.3947C185.544 93.9797 187.471 94.855 189.295 95.9116L188.675 97.2403C188.236 96.9863 187.471 96.5238 186.259 95.898C184.621 95.05 183.925 94.8822 183.518 94.7733V100.655H182.133V90.429H183.518" fill="white"/>
<path d="M198.745 91.3452C198.455 94.6148 197.546 99.1678 191.131 100.37L190.615 99.1406C196.248 98.2518 196.858 94.6284 197.198 92.5742H189.584V91.3452H198.745Z" fill="white"/>
<path d="M208.534 92.8144C208.131 94.8822 207.399 95.9343 205.612 96.9864L204.797 96.0341C206.227 95.2586 206.611 94.3879 206.779 94.0614H200.473V92.8098H208.534M200.758 99.6257C202.314 98.9182 203.427 98.2834 203.418 94.719H204.793C204.644 98.102 203.698 99.8025 201.513 100.587L200.758 99.6257Z" fill="white"/>
<path d="M218.848 99.281C221.4 98.3377 224.259 95.7801 225.512 92.329H219.504V91.0684H227.267C227.118 91.7168 226.693 93.626 225.046 95.8753C225.724 96.4195 227.412 97.7981 228.954 99.3127L227.869 100.415C227.394 99.8569 226.548 98.8774 224.259 96.8684C223.449 97.7981 221.848 99.4624 219.644 100.369L218.844 99.281" fill="white"/>
<path d="M232.33 90.4335V93.3947C234.347 93.9797 236.279 94.855 238.107 95.9116L237.482 97.2403C237.043 96.9863 236.283 96.5238 235.071 95.898C233.424 95.05 232.737 94.8822 232.334 94.7733V100.655H230.945V90.429H232.334" fill="white"/>
<path d="M245.173 92.9458C244.87 93.7122 244.63 94.0659 244.408 94.397L243.255 93.7303C243.39 93.558 243.454 93.4719 243.571 93.2905H242.169V94.2383C242.522 94.8867 243.123 95.5579 243.748 96.1973L243.019 97.2358C242.671 96.8322 242.44 96.4513 242.192 95.9434H242.169V100.886H241.07V95.5352H241.047C240.771 96.424 240.423 97.39 239.708 98.4511L239.179 96.9909C240.002 95.8935 240.536 94.6056 240.907 93.2905H239.405V92.1432H241.074V90.0571H242.173V92.1432H243.576V93.2905H243.603C243.915 92.7735 244.227 92.1432 244.653 90.4381L245.851 90.6149C245.783 90.9369 245.688 91.2951 245.539 91.8076H246.43V90.0617H247.57V91.8076H250.009V92.9458H247.57V94.5648H250.239V95.7121H247.937C248.747 97.195 249.366 97.8979 250.42 98.7459L249.823 100.02C249.384 99.6256 248.299 98.6325 247.593 97.0317H247.57V100.891H246.43V97.068H246.408C245.725 98.2198 244.974 99.0497 243.82 99.9431L243.069 98.8865C244.11 98.179 245.241 97.2403 246.105 95.7121H243.571V94.5648H246.43V92.9458H245.168" fill="white"/>
<path d="M260.843 91.8937H262.092V93.0501H258.627C258.694 95.0499 259.133 97.1224 259.527 98.0747C259.667 98.3967 260.174 99.4351 260.576 99.4351C260.979 99.4351 261.178 98.1064 261.223 97.7028L262.286 98.306C262.124 99.1948 261.811 100.895 260.771 100.895C259.654 100.895 258.889 99.5666 258.613 99.0315C257.604 97.0815 257.527 94.9502 257.459 93.0501H251.33V91.8937H257.414C257.392 91.277 257.36 90.2339 257.346 90.048H258.572C258.572 90.6375 258.572 91.0684 258.586 91.8937H260.676V91.8665C260.038 91.4085 259.531 91.1409 258.952 90.8507L259.644 89.9482C260.558 90.4063 260.581 90.4244 261.504 91.0502L260.848 91.8937M251.325 99.3127C251.615 99.2946 251.737 99.2628 251.9 99.2583C252.18 99.2084 253.474 99.0497 253.773 98.9998V95.6395H251.524V94.4967H257.089V95.6395H254.962V98.8456C256.292 98.6506 256.994 98.5055 257.446 98.4193V99.5077C255.573 99.9113 252.904 100.319 251.524 100.492L251.325 99.3082V99.3127Z" fill="white"/>
<path d="M266.294 93.1908V93.1681C267.588 92.2475 268.212 91.5491 268.674 90.9914C269.389 91.8122 270.189 92.5649 271.076 93.1681V93.1908H266.294ZM273.587 100.315C272.637 98.7006 271.411 97.4626 270.913 96.9773L269.936 97.5805C270.271 97.9115 270.538 98.2199 271.298 99.2357C269.52 99.34 268.968 99.3491 266.584 99.408C266.941 98.7459 267.253 98.0294 267.823 96.7415H273.84V95.6214H263.435V96.7415H266.403C266.068 97.7891 265.652 98.7459 265.295 99.4307C264.743 99.4352 263.874 99.4534 263.634 99.4534L263.806 100.655C265.557 100.655 265.955 100.619 272.008 100.215C272.306 100.691 272.343 100.737 272.483 101.004L273.591 100.315M265.593 94.2882H271.723V93.6306C272.424 94.0841 273.098 94.4197 273.582 94.66L274.32 93.5037C272.067 92.6239 270.185 91.3224 269.33 89.9846H268C267.023 91.4811 264.865 92.9005 263.001 93.5535L263.68 94.6646C264.173 94.456 264.706 94.2111 265.589 93.6669V94.2927L265.593 94.2882Z" fill="white"/>
<path d="M278.025 100.927H276.844V96.4558C276.183 97.068 275.736 97.3582 275.446 97.5306L274.926 96.3515C276.419 95.4808 277.55 94.2292 278.065 92.9685H275.084V91.8348H276.844V90.0254H278.025V91.8348H279.382V92.9685C279.382 93.2134 278.459 94.601 278.215 94.923C278.803 95.5942 279.083 95.7937 279.834 96.3515L279.269 97.4489C278.735 97.0091 278.423 96.7007 278.02 96.2336V100.923M281.974 90.0254H283.186V93.3041H285.656V94.5421H283.186V99.2991H285.923V100.542H279.061V99.2991H281.974V94.5421H279.558V93.3041H281.974V90.0254Z" fill="white"/>
<path d="M218.581 94.8323H209.819V96.1746H218.581V94.8323Z" fill="white"/>
<path d="M39.1856 8.72494V6.15368C40.8549 6.25345 42.4427 6.29426 45.0711 6.29426H54.0508C56.6792 6.29426 58.267 6.24891 59.9363 6.15368V8.72494C58.267 8.62517 56.6792 8.58436 54.0508 8.58436H45.0711C42.4427 8.58436 40.8549 8.6297 39.1856 8.72494ZM43.5149 28.515H55.607C58.2354 28.515 59.8232 28.5603 61.4925 28.6556V26.0843C59.8232 26.1841 58.2354 26.2249 55.607 26.2249H43.5149C40.8865 26.2249 39.2987 26.1795 37.6294 26.0843V28.6556C39.2987 28.5558 40.8865 28.515 43.5149 28.515ZM46.6725 18.1302H52.4539C55.0823 18.1302 56.6701 18.1755 58.3394 18.2708V15.6995C56.6701 15.7993 55.0823 15.8401 52.4539 15.8401H46.6725C44.0442 15.8401 42.4563 15.7948 40.787 15.6995V18.2708C42.4563 18.171 44.0442 18.1302 46.6725 18.1302ZM90.5037 21.9939V19.7446C88.934 19.8398 87.423 19.8806 85.0616 19.8852V11.464C86.9073 11.4776 88.2147 11.5184 89.5673 11.6V9.35074C88.2147 9.43237 86.9073 9.47318 85.0616 9.48679C85.0751 7.51413 85.1159 6.15368 85.2018 4.73881H81.7637C81.8451 6.14914 81.8904 7.51413 81.904 9.49132H74.132C74.1456 7.51867 74.1863 6.15368 74.2723 4.73881H70.8342C70.9156 6.14914 70.9608 7.51413 70.9744 9.48679C68.7487 9.47772 67.283 9.43691 65.7675 9.34621V11.5955C67.283 11.5048 68.7442 11.464 70.9699 11.4549C70.9382 13.4094 70.8251 17.8672 70.6985 19.8806H70.5447C67.9163 19.8806 66.3285 19.8353 64.6592 19.7401V21.9893C66.3058 21.8896 67.8801 21.8488 70.4451 21.8488C69.7711 25.259 68.043 27.1817 64.9804 28.3472L66.0344 29.9797C67.8123 28.9639 70.0425 27.7803 71.472 26.0616C72.4854 24.8463 73.1549 23.3135 73.5259 21.8488H81.913V23.7942C81.913 26.429 81.8678 28.0207 81.7728 29.694H85.2109C85.1113 28.0207 85.0706 26.429 85.0706 23.7942V21.8488C87.4321 21.8533 88.943 21.8987 90.5128 21.9893L90.5037 21.9939ZM73.8425 19.8897C74.0235 17.9035 74.1094 14.4524 74.1185 11.4594H81.8994V19.8897H73.838H73.8425ZM117.968 19.7582C117.027 20.7604 116.606 21.4769 115.932 22.5879C111.788 19.4997 109.196 16.5884 107.712 12.8199C108.414 12.3755 108.866 12.0444 109.454 11.4504C111.25 14.8696 114.095 17.8082 117.963 19.7627L117.968 19.7582ZM118.434 5.61403V7.86332C116.764 7.76355 115.177 7.72274 112.548 7.72274H107.269C107.251 8.56168 107.242 9.50493 107.242 10.6432V23.7988C107.242 26.4335 107.283 28.0252 107.382 29.6986H104.093C104.193 28.0252 104.234 26.4335 104.234 23.7988V14.5885C102.333 17.7493 99.3161 20.3795 94.6249 22.5879C94.3309 21.9712 94.0775 21.5132 93.7383 20.9282C99.7187 18.1347 102.469 13.4593 103.492 7.72274H99.5152C96.8868 7.72274 95.299 7.76808 93.6297 7.86332V5.61403C95.299 5.7138 96.8868 5.75461 99.5152 5.75461H112.544C115.172 5.75461 116.76 5.70927 118.429 5.61403H118.434ZM143.079 9.46411C143.093 7.50506 143.134 6.14914 143.215 4.74334H139.777C139.859 6.14461 139.904 7.50053 139.913 9.45051C138.872 9.43237 138.049 9.40063 137.185 9.35074V11.1375C138.044 11.0876 138.872 11.0558 139.913 11.0377C139.89 12.9197 139.732 19.282 139.569 20.6516C139.243 23.3997 138.37 25.2998 136.837 26.6512L136.724 25.8077C134.489 26.0344 132.77 26.2113 131.141 26.3745V24.6785H131.838C133.923 24.6785 135.027 24.7148 136.348 24.7919V23.0052C135.023 23.0822 133.923 23.1185 131.838 23.1185H131.141V21.291H131.603C133.688 21.291 135.036 21.3273 136.357 21.4044C136.285 20.1482 136.289 17.8853 136.289 17.0645C136.289 15.0873 136.285 13.9808 136.357 12.7247C135.032 12.8018 133.684 12.838 131.603 12.838H131.141V11.0241H132.01C134.095 11.0241 135.199 11.0604 136.52 11.1375V9.35074C135.194 9.42784 134.095 9.46411 132.01 9.46411H131.141V7.34181C133.019 7.14228 134.828 6.86112 136.371 6.46658L135.565 4.14928C132.272 5.52334 126.934 6.34414 122.953 6.44844L123.025 7.73634C124.681 7.73634 126.549 7.68646 128.436 7.56855V9.46411H127.613C125.527 9.46411 124.265 9.42784 122.939 9.35074V11.1375C124.265 11.0604 125.527 11.0241 127.613 11.0241H128.436V12.838H128.024C125.939 12.838 124.505 12.8018 123.184 12.7247C123.256 13.9808 123.252 15.0873 123.252 17.0645C123.252 17.8853 123.256 20.1482 123.184 21.4044C124.509 21.3273 125.939 21.291 128.024 21.291H128.436V23.1185H127.757C125.672 23.1185 124.41 23.0822 123.084 23.0052V24.7919C124.41 24.7148 125.672 24.6785 127.757 24.6785H128.436V26.6376C126.798 26.7917 125.025 26.9459 122.695 27.1364L123.089 29.4628C128.336 28.5467 131.024 28.125 136.045 27.2634C135.421 27.6851 134.715 28.0434 133.91 28.3472L134.964 29.9797C136.742 28.9639 138.972 27.7803 140.401 26.0616C141.632 24.5833 142.365 22.6333 142.659 20.9146C142.939 19.2775 143.057 14.7109 143.061 11.0196H145.857C145.821 16.602 145.654 23.0006 145.206 25.7034C144.862 27.7849 144.789 27.8529 143.075 27.54C142.541 27.4402 142.012 27.3314 141.641 27.2498C141.523 27.8982 141.433 28.3245 141.293 28.846C142.342 29.1499 144.731 29.753 145.825 29.6986C146.789 29.6487 147.49 29.1136 147.789 27.5264C148.377 24.4019 148.63 14.1305 148.63 9.46865H143.066L143.079 9.46411ZM131.146 19.8262V17.7901H131.607C132.421 17.7901 133.132 17.7946 133.774 17.8082C133.774 18.629 133.769 19.3637 133.76 19.8126C133.123 19.8217 132.412 19.8308 131.607 19.8308H131.146V19.8262ZM131.607 14.3028C132.412 14.3028 133.123 14.3073 133.756 14.3209C133.765 14.856 133.769 15.568 133.774 16.3163C133.132 16.3253 132.421 16.3344 131.607 16.3344H131.146V14.3073H131.607V14.3028ZM128.445 14.3028V16.3299H128.029C127.196 16.3299 126.45 16.3253 125.776 16.3117C125.776 15.5635 125.785 14.8515 125.794 14.3164C126.464 14.3073 127.21 14.2983 128.029 14.2983H128.44L128.445 14.3028ZM128.029 19.8262C127.214 19.8262 126.459 19.8217 125.789 19.8081C125.78 19.3591 125.776 18.6245 125.776 17.8037C126.45 17.7901 127.196 17.7855 128.029 17.7855H128.445V19.8217H128.033L128.029 19.8262ZM178.723 27.0003V28.9458C177.053 28.846 172.389 28.8052 171.489 28.8052H164.332C163.432 28.8052 158.768 28.8506 157.099 28.9458V27.0003C158.768 27.1001 163.432 27.1409 164.332 27.1409H166.323V24.098C165.038 24.1026 161.424 24.1479 159.895 24.2386V22.2932C161.424 22.3839 165.038 22.4292 166.323 22.4338V19.3909C165.472 19.3909 162.803 19.4226 160.976 19.4861C160.442 20.4702 159.759 21.4361 158.89 22.4474L157.583 21.6175C159.017 19.6675 159.732 16.933 159.84 14.7109H162.414C162.306 15.7766 162.098 16.7425 161.785 17.6586C163.518 17.7039 165.595 17.7266 166.327 17.7311C166.318 15.8446 166.278 16.2346 166.187 14.7155H169.643C169.553 16.2346 169.512 15.8446 169.503 17.7311C170.584 17.7311 174.981 17.6858 176.601 17.5906V19.536C174.981 19.4408 170.58 19.3954 169.503 19.3954V22.4383C170.788 22.4338 174.402 22.3884 175.931 22.3159V24.2432C174.402 24.1343 170.788 24.1071 169.503 24.1026V27.1455H171.494C172.394 27.1455 177.058 27.1001 178.727 27.0049L178.723 27.0003ZM160.279 13.5999H172.661C175.289 13.5999 176.877 13.6452 178.546 13.7405V11.9084C176.877 12.0082 175.289 12.049 172.661 12.049H171.96C172.249 11.532 173.208 9.64097 173.529 8.85191C175.461 8.86552 176.809 8.90633 178.202 8.98796V7.15588C176.533 7.25565 174.945 7.29646 172.317 7.29646H168.146C168.169 6.37589 168.205 5.56415 168.25 4.73881H164.812C164.862 5.56415 164.893 6.37589 164.916 7.29646H160.858C158.23 7.29646 156.642 7.25111 154.973 7.15588V8.98796C156.352 8.90633 157.682 8.86098 159.582 8.85191C160.274 9.87679 160.817 11.015 161.274 12.049H160.284C157.655 12.049 156.18 12.0036 154.511 11.9084C154.674 16.6246 154.706 24.9189 151.602 28.8868L152.901 29.9843C156.633 25.8984 157.56 21.5767 157.592 13.6226C158.374 13.609 159.248 13.5999 160.284 13.5999H160.279ZM162.794 8.84738H170.458C170.344 9.61376 169.842 11.3642 169.49 12.049H163.654C163.464 11.0468 163.147 9.81783 162.794 8.84738ZM251.253 15.9988C253.881 15.9988 255.469 15.958 257.138 15.8582V18.4295C255.469 18.3297 253.881 18.2889 251.253 18.2889H242.065C239.437 18.2889 237.849 18.3343 236.18 18.4295V15.8582C237.849 15.958 239.437 15.9988 242.065 15.9988H251.253ZM204.585 7.41437C203.993 5.89973 203.481 4.82951 202.744 3.63684L204.377 2.93848C205.01 3.63684 205.988 5.11067 206.625 6.54821L204.585 7.41437ZM201.554 8.69319C200.962 7.17855 200.45 6.10833 199.713 4.91567L201.346 4.2173C201.98 4.91567 202.957 6.38949 203.595 7.82704L201.554 8.69319ZM203.287 9.50493C201.405 21.1731 195.8 28.2474 185.038 29.9344L184.617 28.0978C190.059 27.0412 196.546 23.9801 199.627 11.795H190.421C188.639 14.5976 185.906 17.0328 181.835 19.2004L180.871 17.586C186.187 14.7789 188.752 10.5434 189.725 5.44624L192.706 6.27159C192.443 7.40076 192.09 8.47552 191.643 9.50493H203.291H203.287ZM229.493 14.4978L231.221 15.237C228.227 23.4224 223.644 27.014 217.184 28.6601V13.0738C217.184 10.4391 217.139 8.84738 217.044 7.17402H220.482C220.382 8.84738 220.342 10.4391 220.342 13.0738V24.3157C224.463 22.5335 227.679 19.5088 229.493 14.4933V14.4978ZM209.62 14.2348C209.62 11.6 209.575 9.0333 209.48 7.36448H212.918C212.819 9.03784 212.778 11.6046 212.778 14.2348C212.778 24.6468 210.009 26.1024 204.676 28.9957L203.653 27.413C207.974 25.2 209.62 23.2727 209.62 14.2302V14.2348ZM282.721 3.92254C280.911 3.92254 279.441 5.39636 279.441 7.2103C279.441 7.74087 279.567 8.24424 279.794 8.68412H265.539C262.911 8.68412 261.323 8.64331 259.654 8.54354V11.1148C261.323 11.015 262.911 10.9742 265.539 10.9742H277.676C275.55 19.273 271.805 25.3769 263.35 27.1409L263.834 28.9594C274.053 26.9278 278.916 20.9463 281.169 10.1035H281.173C281.635 10.3575 282.16 10.4981 282.716 10.4981C284.526 10.4981 285.996 9.02423 285.996 7.2103C285.996 5.39636 284.526 3.92254 282.716 3.92254H282.721ZM282.721 9.28272C281.576 9.28272 280.653 8.35308 280.653 7.2103C280.653 6.06752 281.581 5.13787 282.721 5.13787C283.861 5.13787 284.788 6.06752 284.788 7.2103C284.788 8.35308 283.861 9.28272 282.721 9.28272Z" fill="white"/>
<path d="M25.2975 24.4383L29.8213 19.9034L25.7906 15.8629L21.2668 20.3977L14.662 13.7768L17.4577 10.9743C18.1137 10.3168 18.4891 9.4098 18.4891 8.48015C18.4891 7.9133 18.3489 7.35098 18.0865 6.84308L15.5939 2.06789C15.0194 0.961387 13.9337 0.231277 12.6941 0.104301C12.0156 0.0362787 11.3189 0 10.6313 0C9.94366 0 9.25151 0.0362787 8.56842 0.104301C7.32889 0.226742 6.24318 0.961387 5.66865 2.06789L3.17603 6.84308C2.91365 7.34644 2.77341 7.9133 2.77341 8.48015C2.77341 9.4098 3.14889 10.3168 3.80484 10.9743L6.60056 13.7768L3.29817 17.0873C1.34389 19.0509 0.262695 21.6629 0.262695 24.4383C0.262695 27.2136 1.33936 29.8257 3.29817 31.7892C5.25699 33.7528 7.8627 34.8321 10.6313 34.8321C13.3998 34.8321 16.0056 33.7528 17.9644 31.7892L21.2668 28.4788L25.6503 32.8731H33.7118L25.302 24.4428L25.2975 24.4383ZM6.58699 5.65948C6.69103 5.65041 6.79508 5.64588 6.90365 5.64588H14.3589C14.4629 5.64588 14.567 5.65041 14.6756 5.65948C14.6032 5.75018 14.5308 5.83181 14.4494 5.91343L10.6313 9.74084L6.81318 5.91343C6.73175 5.83181 6.65937 5.75018 6.58699 5.65948ZM10.6313 31.0591L4.02651 24.4383L10.6313 17.8174L17.236 24.4383L10.6313 31.0591Z" fill="white"/>
<path d="M10.6322 10.2276L7.08789 13.7805L10.6322 17.3334L14.1765 13.7805L10.6322 10.2276Z" fill="#060001"/>
<path d="M3.11719 8.48021C3.11719 7.98138 3.23481 7.47801 3.47909 7.00639L5.97171 2.2312C5.43338 3.26515 5.48767 4.45327 6.01243 5.40559C4.53314 5.75931 3.38409 6.97011 3.11719 8.48475V8.48021ZM18.1453 8.48021C18.1453 7.98138 18.0277 7.47801 17.7834 7.00639L15.2908 2.2312C15.8291 3.26515 15.7748 4.45327 15.2546 5.40559C16.7339 5.75931 17.8829 6.97011 18.1498 8.48475L18.1453 8.48021Z" fill="#9B1E23"/>
<path d="M10.6314 10.2215L7.0847 13.7768L4.0447 10.7294C3.44755 10.1308 3.11732 9.3145 3.11279 8.48009C3.3797 6.96546 4.52875 5.75465 6.00803 5.40093C6.15732 5.67303 6.3428 5.92698 6.56899 6.14918L10.6268 10.2169L10.6314 10.2215ZM15.2502 5.40547C15.1009 5.67756 14.9154 5.93151 14.6892 6.15372L10.6314 10.226L14.178 13.7813L17.218 10.7384C17.8152 10.1398 18.1454 9.32357 18.1499 8.48916C17.883 6.97452 16.734 5.76372 15.2547 5.41L15.2502 5.40547ZM15.2864 2.23108C14.7435 1.1926 13.7392 0.557724 12.658 0.448888C11.993 0.380865 11.3145 0.349121 10.6314 0.349121C9.94827 0.349121 9.2697 0.3854 8.6047 0.448888C7.52351 0.557724 6.5147 1.1926 5.97184 2.23108C5.43351 3.26502 5.48779 4.45315 6.00803 5.40547C6.29303 5.33745 6.59161 5.30117 6.89922 5.30117H14.3545C14.6621 5.30117 14.9607 5.33745 15.2457 5.40547C15.7704 4.45315 15.8247 3.26502 15.2818 2.23108H15.2864Z" fill="#D71718"/>
<path d="M24.8132 24.4384L21.2665 27.9937L17.7199 24.4384L21.2665 20.8831L24.8132 24.4384ZM10.631 31.5445C8.67223 33.5081 5.50103 33.5081 3.54222 31.5445C7.45984 35.4671 13.8068 35.4671 17.7244 31.5445C15.7656 33.5081 12.5944 33.5081 10.6356 31.5445H10.631ZM3.54222 17.3323C-0.375402 21.2594 -0.375402 27.6218 3.54222 31.549C1.58341 29.5854 1.58793 26.402 3.54222 24.4429C1.58341 22.4793 1.58341 19.3004 3.54222 17.3368V17.3323Z" fill="#1A2C53"/>
<path d="M24.8133 24.4383L21.2666 20.883L25.7905 16.3481L29.3371 19.9034L24.8133 24.4383ZM14.1778 13.7769L10.6312 17.3322L17.72 24.4383L21.2666 20.883L14.1778 13.7769ZM32.8793 32.5284L24.8088 24.4383L21.2621 27.9936L25.7859 32.5284H32.8748H32.8793ZM3.54235 31.5444C5.50116 33.508 8.67235 33.508 10.6312 31.5444L3.54235 24.4383C1.58354 26.4019 1.58354 29.5808 3.54235 31.5444ZM17.72 24.4383L10.6312 31.5444C12.59 33.508 15.7612 33.508 17.72 31.5444L21.2666 27.9936L17.72 24.4383ZM7.0845 13.7769L3.54235 17.3276C1.58354 19.2912 1.58354 22.4747 3.54235 24.4337L10.6312 17.3276L7.0845 13.7769Z" fill="#003F8D"/>
</svg>
