<?xml version="1.0" encoding="UTF-8"?><svg id="b" xmlns="http://www.w3.org/2000/svg" viewBox="0 0 657.46 147.79"><g id="c"><path d="M385.21,96.03c7.64-8.34,9.53-17.15,9.59-33.39,1.6-.03,3.39-.04,5.51-.04h25.32c5.37,0,8.63.09,12.04.29v-3.74c-3.41.2-6.67.29-12.04.29h-1.44c.59-1.05,2.55-4.91,3.21-6.53,3.95.03,6.71.11,9.56.28v-3.74c-3.41.2-6.67.29-12.04.29h-8.53c.05-1.88.12-3.54.22-5.22h-7.04c.1,1.68.17,3.34.22,5.22h-8.3c-5.37,0-8.63-.09-12.04-.29v3.74c2.82-.17,5.55-.25,9.43-.28,1.42,2.1,2.52,4.41,3.46,6.53h-2.03c-5.37,0-8.39-.09-11.81-.29.33,9.62.4,26.55-5.95,34.64l2.65,2.24ZM421.13,52.91c-.23,1.57-1.26,5.13-1.98,6.54h-11.93c-.39-2.04-1.03-4.55-1.76-6.54h15.67ZM266.02,80.94c-.6-1.26-1.12-2.19-1.81-3.39,12.23-5.7,17.86-15.24,19.95-26.95h-8.13c-5.37,0-8.63.09-12.04.29v-4.59c3.41.2,6.67.29,12.04.29h26.65c5.37,0,8.63-.09,12.04-.29v4.59c-3.41-.2-6.67-.29-12.04-.29h-10.8c-.04,1.72-.05,3.64-.05,5.96v26.85c0,5.37.09,8.63.29,12.04h-6.73c.2-3.41.29-6.67.29-12.04v-18.8c-3.89,6.45-10.06,11.82-19.65,16.32ZM292.79,61.01c1.43-.91,2.36-1.58,3.56-2.8,3.67,6.97,9.49,12.97,17.41,16.96-1.92,2.05-2.78,3.5-4.17,5.77-8.48-6.3-13.77-12.24-16.81-19.93ZM164.66,52.37c-5.37,0-8.63.09-12.04.29v-5.25c3.41.2,6.67.29,12.04.29h18.37c5.37,0,8.63-.09,12.04-.29v5.25c-3.41-.2-6.67-.29-12.04-.29h-18.37ZM161.48,93.03c-5.37,0-8.63.09-12.04.29v-5.25c3.41.2,6.67.29,12.04.29h24.74c5.37,0,8.63-.09,12.04-.29v5.25c-3.41-.2-6.67-.29-12.04-.29h-24.74ZM179.76,67.18c5.37,0,8.63-.09,12.04-.29v5.25c-3.41-.2-6.67-.29-12.04-.29h-11.82c-5.37,0-8.63.09-12.04.29v-5.25c3.41.2,6.67.29,12.04.29h11.82ZM205.35,92.7l2.16,3.33c3.64-2.07,8.2-4.49,11.13-8,2.07-2.48,3.44-5.61,4.2-8.6h17.16v3.97c0,5.37-.09,8.63-.29,12.04h7.04c-.2-3.41-.29-6.67-.29-12.04v-3.97c4.83,0,7.92.1,11.13.29v-4.59c-3.21.19-6.3.28-11.13.29v-17.18c3.77.03,6.45.12,9.22.28v-4.59c-2.76.16-5.44.25-9.21.28.02-4.02.11-6.81.28-9.68h-7.04c.17,2.88.26,5.67.28,9.7h-15.9c.02-4.03.11-6.81.28-9.7h-7.04c.17,2.88.26,5.66.28,9.69-4.56-.01-7.55-.1-10.65-.29v4.59c3.1-.18,6.09-.27,10.64-.29-.07,3.99-.3,13.08-.56,17.19h-.32c-5.37,0-8.63-.09-12.04-.29v4.59c3.37-.2,6.59-.29,11.83-.29-1.38,6.96-4.91,10.88-11.18,13.26ZM224.08,58.23h15.92v17.2h-16.49c.37-4.06.54-11.09.57-17.2ZM423.24,90.23c1.84,0,11.38-.09,14.79-.29v3.97c-3.41-.2-12.95-.29-14.79-.29h-14.64c-1.84,0-11.38.09-14.79.29v-3.97c3.41.2,12.95.29,14.79.29h4.07v-6.21c-2.63.01-10.02.1-13.15.29v-3.97c3.13.19,10.52.27,13.15.29v-6.21c-1.74,0-7.2.06-10.94.19-1.09,2.01-2.49,3.98-4.27,6.05l-2.67-1.7c2.93-3.98,4.4-9.56,4.62-14.09h5.27c-.22,2.18-.65,4.14-1.29,6.01,3.55.09,7.79.14,9.29.14-.02-3.85-.1-3.06-.29-6.16h7.07c-.18,3.1-.27,2.31-.29,6.16,2.21,0,11.2-.09,14.52-.29v3.97c-3.31-.2-12.31-.28-14.52-.29v6.21c2.63-.01,10.02-.1,13.15-.25v3.93c-3.13-.22-10.52-.28-13.15-.29v6.21h4.07ZM376.51,54.16h-11.39c.02-4,.11-6.77.28-9.64h-7.04c.17,2.86.26,5.63.28,9.61-2.13-.03-3.82-.1-5.58-.2v3.64c1.76-.1,3.45-.17,5.58-.2-.05,3.84-.37,16.82-.7,19.62-.66,5.61-2.46,9.49-5.59,12.24l-.23-1.72c-4.57.46-8.08.83-11.42,1.16v-3.46h1.43c4.26,0,6.52.07,9.23.23v-3.64c-2.71.16-4.96.23-9.23.23h-1.43v-3.73h.94c4.26,0,7.02.07,9.73.23h0c-.15-2.56-.14-7.18-.14-8.85,0-4.04-.01-6.29.14-8.85-2.71.16-5.47.23-9.73.23h-.94v-3.7h1.78c4.26,0,6.52.07,9.23.23v-3.64c-2.71.16-4.96.23-9.23.23h-1.78v-4.33c3.84-.4,7.54-.98,10.69-1.78l-1.65-4.73c-6.74,2.8-17.65,4.47-25.79,4.7l.15,2.63c3.39,0,7.21-.1,11.06-.35v3.87h-1.68c-4.26,0-6.85-.07-9.55-.23v3.64c2.71-.16,5.29-.23,9.55-.23h1.68v3.7h-.85c-4.26,0-7.2-.07-9.9-.23.15,2.56.14,4.82.14,8.85,0,1.67.01,6.29-.14,8.85h0s0,0,0,0c2.71-.16,5.64-.23,9.9-.23h.85v3.73h-1.39c-4.26,0-6.85-.07-9.55-.23v3.64c2.71-.16,5.29-.23,9.55-.23h1.39v4c-3.35.31-6.98.63-11.75,1.02l.8,4.75c10.74-1.86,16.23-2.73,26.5-4.48-1.28.86-2.72,1.59-4.36,2.22l2.16,3.33c3.64-2.07,8.2-4.49,11.13-8,2.52-3.02,4.02-6.99,4.62-10.5.57-3.34.81-12.65.83-20.19h5.72c-.07,11.39-.42,24.44-1.33,29.96-.7,4.25-.85,4.39-4.36,3.75-1.09-.2-2.17-.43-2.94-.6-.25,1.32-.42,2.19-.71,3.25,2.14.62,7.03,1.85,9.27,1.74,1.97-.1,3.41-1.19,4.02-4.43,1.2-6.37,1.72-27.33,1.72-36.85ZM340.72,64.04h.94c1.64,0,3.1.01,4.4.03.02,1.09.03,2.54.03,4.07-1.31.02-2.77.04-4.43.04h-.94v-4.14ZM340.72,71.15h.94c1.67,0,3.12.01,4.43.03,0,1.68-.01,3.17-.03,4.09-1.3.02-2.75.03-4.4.03h-.94v-4.16ZM335.19,75.3h-.85c-1.67,0-3.21-.01-4.58-.03-.02-.91-.03-2.41-.03-4.09,1.38-.02,2.9-.04,4.61-.04h.85v4.16ZM335.19,68.18h-.85c-1.7,0-3.23-.01-4.6-.04,0-1.53.02-2.98.03-4.07,1.37-.02,2.9-.04,4.57-.04h.85v4.14ZM586.38,67.5c5.37,0,8.63-.09,12.04-.29v5.25c-3.41-.2-6.67-.29-12.04-.29h-18.79c-5.37,0-8.63.09-12.04.29v-5.25c3.41.2,6.67.29,12.04.29h18.79ZM490.93,49.97c-1.21-3.09-2.26-5.28-3.76-7.71l3.34-1.42c1.29,1.42,3.29,4.43,4.6,7.37l-4.17,1.76ZM484.73,52.59c-1.21-3.09-2.26-5.28-3.76-7.71l3.34-1.42c1.29,1.42,3.29,4.43,4.6,7.37l-4.17,1.76ZM488.27,54.25c-3.85,23.81-15.32,38.24-37.33,41.68l-.86-3.75c11.13-2.16,24.4-8.4,30.7-33.27h-18.83c-3.64,5.71-9.24,10.69-17.57,15.11l-1.98-3.3c10.87-5.73,16.11-14.37,18.11-24.77l6.09,1.69c-.54,2.3-1.26,4.5-2.17,6.6h23.82ZM541.88,64.43l3.53,1.51c-6.12,16.7-15.5,24.03-28.71,27.39v-31.8c0-5.37-.09-8.63-.29-12.04h7.04c-.2,3.41-.29,6.67-.29,12.04v22.94c8.43-3.64,15.01-9.81,18.72-20.04ZM501.23,63.9c0-5.37-.09-10.61-.29-14.02h7.04c-.2,3.41-.29,8.65-.29,14.02,0,21.25-5.66,24.21-16.57,30.12l-2.09-3.23c8.84-4.52,12.21-8.44,12.21-26.9ZM650.75,42.85c-3.7,0-6.71,3-6.71,6.71,0,1.08.26,2.11.72,3.01h0s-29.15,0-29.15,0c-5.37,0-8.63-.09-12.04-.29v5.25c3.41-.2,6.67-.29,12.04-.29h24.83c-4.35,16.93-12.01,29.39-29.3,32.99l.99,3.71c20.9-4.15,30.85-16.35,35.46-38.47h.01c.94.51,2.02.8,3.16.8,3.7,0,6.71-3,6.71-6.71s-3-6.71-6.71-6.71ZM650.75,53.79c-2.34,0-4.23-1.9-4.23-4.23s1.9-4.23,4.23-4.23,4.23,1.89,4.23,4.23-1.9,4.23-4.23,4.23ZM311.7,114.66c-.04,1.57-.03,5.14-.02,7.88,4.5,0,7.47-.15,10.31-.32-.05,1.13-.06,2.34,0,3.68-2.72-.14-5.8-.26-10.3-.26.04,3.85.2,10.85.24,12.42-3.06-.06-3.81-.05-6.68,0,.09-3.76.17-8.77.17-11.78v-3.78c0-3.51-.07-8.26-.17-11.02,0,0,4.65.06,5.81.06,2.53,0,6.81-.02,11.91-.05-.08,1.64-.04,2.62,0,3.62-3.11-.3-6.73-.45-11.27-.45ZM286.82,111.49c-.13,5.67-.19,7.66-.16,12.84,0,5.03.06,10.21.16,13.74-2.48-.05-4.15-.06-6.64,0,.1-3.53.16-8.71.16-13.74.03-5.18-.03-7.17-.16-12.84,2.48.05,4.15.06,6.64,0ZM180.39,124.13c.64,7.27.88,9.86,1.35,13.92-2.98-.07-4.03-.08-6.73,0-.24-6.13-.66-13.47-1.01-18.32-1.34,2.72-2.48,5.06-4.13,8.77-1.63,3.67-3.76,9.08-3.76,9.08h-3.4c-1.99-4.96-5.8-13.39-7.66-17.49-.52,5.33-1.19,11.83-1.34,17.96-1.76-.09-2.59-.1-4.24,0,.5-3.36,1.37-9.81,1.9-13.93.45-3.48.95-7.72,1.52-12.64h4.9c2.49,5.67,5.87,13.37,8.23,18.41,1.62-3.42,5.92-12.72,8.46-18.41h4.91s.33,4.99,1,12.64ZM194.53,111.49c-.13,5.67-.19,7.66-.16,12.84,0,5.03.06,10.21.16,13.74-2.48-.05-4.15-.06-6.64,0,.1-3.53.16-8.71.16-13.74.03-5.18-.03-7.17-.16-12.84,2.47.05,4.15.06,6.64,0ZM273.77,111.47c-.26,4.59-.28,9.96-.28,15.01,0,7.17-3.38,12.13-11.14,12.13-8.6,0-11.65-4.05-11.65-11.23,0-3.33.17-9.15-.1-15.9,2.46.04,4.15.05,6.72,0-.22,3.65-.31,6.78-.38,11.07-.14,7.99.42,12.71,6.41,12.71,5.43,0,6.47-4.33,6.47-10.26,0-5.59-.11-9.55-.34-13.52,2.06.05,2.47.06,4.29,0ZM222.23,111.47c-.07,1.15-.02,2.62,0,3.71-2.93-.16-5.75-.24-8.31-.28-.06,7.78-.03,17.01.21,23.18-2.32-.11-4.1-.13-6.64,0,.25-6.17.28-15.4.21-23.19-2.56.04-5.49.13-8.31.28.06-1.09.02-2.44,0-3.72,8.89.07,14.71.14,22.84,0ZM244.52,130.26c.14,6.17-5.04,8.28-10.17,8.28-2.67,0-7.19-.88-9.33-2.53.85-2.17,1.19-4.15,1.32-5.54h.92c1.02,3.45,3.96,5.25,7.39,5.17,2.1-.05,3.88-.91,3.96-3.39.08-2.38-1.69-3.71-4.82-5.11-2.51-1.12-7.49-2.92-7.75-7.92-.22-4.08,2.58-8.25,8.63-8.25,3.45,0,6.34,1.28,8.65,2.78,0,0,0,0,0,0-.57,1.35-.99,2.79-1.26,4.27l-.92-.17c-1.15-2.61-3.26-4.33-6.6-4.03-2,.18-3.32,1.31-3.07,3.39.27,2.29,2.12,3.31,5.1,4.56,3.9,1.64,7.85,3.8,7.96,8.49ZM456.02,111.46c-3.98,9.35-9.54,21.78-11.79,26.64,1.28-.05,3.24-.03,4.61,0,.72-2.24,1.64-4.8,2.66-7.5h9.31c.89,2.78,1.72,5.46,2.33,7.5,2.23-.03,3.78-.09,7.12,0-2.34-5.97-8.46-22.89-9.79-26.64h-4.45ZM452.55,127.85c1.31-3.37,2.7-6.83,4.01-10.1.73,2.06,2.04,5.99,3.37,10.1h-7.38ZM440.74,130.26c.14,6.17-5.04,8.28-10.17,8.28-2.67,0-7.19-.88-9.33-2.53.85-2.17,1.19-4.15,1.32-5.54h.92c1.02,3.45,3.96,5.25,7.39,5.17,2.1-.05,3.88-.91,3.96-3.39.08-2.38-1.69-3.71-4.82-5.11-2.51-1.12-7.49-2.92-7.75-7.92-.22-4.2,3.05-8.25,9.1-8.25,3.45,0,6.78,1.17,9.12,2.78,0,0,0,0,0,0-.57,1.35-.99,2.79-1.26,4.27l-.94-.17c-1.24-2.61-3.71-4.33-7.05-4.03-2,.18-3.79,1.31-3.54,3.39.27,2.29,2.12,3.31,5.1,4.56,3.9,1.64,7.85,3.8,7.96,8.49ZM351.91,111.47c-.26,4.59-.28,9.96-.28,15.01,0,7.17-3.38,12.13-11.14,12.13-8.6,0-11.65-4.05-11.65-11.23,0-3.33.17-9.15-.1-15.9,2.46.04,4.15.05,6.72,0-.22,3.65-.31,6.78-.38,11.07-.14,7.99.42,12.71,6.41,12.71,5.43,0,6.47-4.33,6.47-10.26,0-5.59-.11-9.55-.34-13.52,2.06.05,2.47.06,4.29,0ZM495.82,111.55c1.31,0,1.99-.07,1.99-.07-.08,1.9-.23,4.04-.23,9.23,0,0-.06,14.39,0,17.4h-4.01c-2.31-3.13-13.21-16.19-14.97-18.13,0,2.39.11,6.27.11,7.15.08,3.91-.04,5.67.38,10.98-1.19-.05-2.82-.06-4.06,0,.28-5.33.27-11.41.27-13.75,0-6.13-.02-9.67-.1-12.9h4.61s3.31,4.03,6.77,8.19c3.76,4.51,7.7,9.18,7.79,9.29,0,0-.02-4.29-.08-8.14-.09-5.46-.31-8.22-.44-9.26,0,0,.65.03,1.96.03ZM402.5,110.91c-8.57,0-14.1,5.43-14.1,13.84s5.54,13.84,14.1,13.84,14.14-5.43,14.14-13.84-5.29-13.84-14.14-13.84ZM402.5,135.67c-4.77,0-7.4-3.88-7.4-10.92s2.56-10.99,7.4-10.99,7.43,4.01,7.43,10.99-2.64,10.92-7.43,10.92ZM369.1,111.5c-.89,0-4.74.08-5.98.08-1.34,0-4.79-.09-4.79-.09.08,3.36.16,7.5.16,11.02v4.54c.02,5.12-.08,8.18-.16,11.02h.38c1.42-.05,3.4-.09,4.41-.09s2.95.04,2.95.04c1.07.02,2.17.04,3.03.04,3.47,0,6.59-1.09,9.12-3.06,3.08-2.41,4.71-6.13,4.71-10.75,0-8.7-4.78-12.75-13.83-12.75ZM368.16,135.06c-1.34.02-2.39-.03-3.22-.1h0c-.06-2.21-.09-5.99-.09-8.11v-4.42c0-2.14.02-5.7.08-7.82,3.92-.21,6.85-.26,8.63,1.21,1.8,1.49,2.72,4.1,2.72,8.38,0,7.48-2.97,10.77-8.12,10.86ZM645.32,111.45c-.28,0-4.89.07-5.68.07-2.17,0-5.97-.04-5.97-.04.16,5.04.18,10.1.18,12.37,0,0-.02,10.98-.18,14.2,2.01-.05,4.5-.06,6.64,0-.09-2.67-.17-6.65-.21-11.09h1.41c8.67,0,11.85-2.94,11.85-8.36,0-4.62-3.39-7.15-8.04-7.15ZM645.89,122.77c-1.1,1.18-2.71,1.61-4.95,1.61h-.85c0-.18,0-.35,0-.53,0-3.7-.01-6.17,0-9.64,4.15-.32,7.03.52,7.03,4.55,0,1.77-.37,3.08-1.24,4.02ZM583.72,110.92c-8.57,0-14.1,5.43-14.1,13.84s5.54,13.84,14.1,13.84,14.14-5.43,14.14-13.84-5.29-13.84-14.14-13.84ZM583.72,135.68c-4.77,0-7.4-3.88-7.4-10.92s2.56-10.99,7.4-10.99,7.43,4.01,7.43,10.99-2.64,10.92-7.43,10.92ZM627.26,111.47c-.26,4.59-.28,9.96-.28,15.01,0,7.17-3.38,12.13-11.14,12.13-8.6,0-11.65-4.05-11.65-11.23,0-3.33.17-9.15-.1-15.9,2.46.04,4.15.05,6.72,0-.22,3.65-.31,6.78-.38,11.07-.14,7.99.42,12.71,6.41,12.71,5.43,0,6.47-4.33,6.47-10.26,0-5.59-.11-9.55-.34-13.52,2.06.05,2.47.06,4.29,0ZM565.43,135.84c-2.85-3.96-5.5-7.67-7.66-10.82,2.93-.43,6.65-2.09,6.65-7.32,0-4.09-3-6.25-8.66-6.25-2.45,0-3.88.07-5.4.07s-4.98-.04-4.98-.04c.09,3.72.08,6.99.08,11.48,0,4.46-.09,10.57-.2,15.09,2.4-.05,3.75-.05,6.49,0-.1-2.72-.18-9.48-.22-12.5,2.26,3.37,4.42,6.6,6.76,10.59.78,1.33,1.38,1.96,2.61,1.91,2.18-.08,3.38-.18,6.84.07l.16-.46c-1.37-.25-2.47-1.83-2.47-1.83ZM552.29,123.43h-.78c.02-2.41.05-7.6.09-9.24,4.7-.39,6.2,1.52,6.2,4.34,0,4.31-2.64,4.9-5.5,4.9ZM539.32,125.83c-.21,1.83-.22,9.05-.1,11.07-2.28.63-6.52,1.6-10.11,1.59-9.57-.03-14.97-5.02-14.97-13.77,0-4.04,1.28-7.44,3.69-9.85,2.59-2.58,6.4-3.91,11.02-3.92,4.78,0,8.23,1.17,9.84,2-.33.77-1.02,2.3-1.45,4.53l-.98-.18c-1.29-3.05-4.41-3.35-6.69-3.35-5.61,0-8.83,3.84-8.83,10.73,0,8.8,4.7,10.54,8.64,10.54,1.52,0,2.93-.12,3.91-.52-.06-2.79-.27-6.65-.45-8.87,1.98.03,4.4.06,6.48,0Z" fill="#fff"/><path d="M233.03,12.31s-1.13,0-1.52.08v-1.42c.39.07,1.52.08,1.52.08h2.85s1.13,0,1.52-.08v1.42c-.39-.07-1.52-.08-1.52-.08h-2.85ZM236.38,16.45h-3.7s-1.13,0-1.52-.08v1.22c-.44.06-1.45.06-1.45.06h-1.77v-3.07h1.49s1.13,0,1.52.08v-1.42c-.39.07-1.52.08-1.52.08h-1.49v-1.77s0-1.13.08-1.52h-1.99c.07.39.08,1.52.08,1.52v1.77h-1.42s-1.13,0-1.52-.08v1.42c.39-.07,1.52-.08,1.52-.08h1.42v3.07h-1.89s-1.13,0-1.52-.08v1.42c.39-.07,1.52-.08,1.52-.08h5.5s1.13,0,1.52.08v-1.22c.44-.06,1.45-.06,1.45-.06h1.28v9.85c0,.39-.07.46-.44.46-.89,0-1.59-.05-2.14-.19l.11,1.5s2.88.43,3.32.43c.63,0,1-.44,1-1.18v-10.88s.57,0,.57,0c0,0,1.13,0,1.52.08v-1.42c-.39.07-1.52.08-1.52.08ZM221.43,18.3c.41-.59.76-1.14,1.02-1.59l.72-1.12-1.94-1.06-.56,1.56c-.8,1.63-2.51,4.86-4.2,6.29l.76.81c.72-.6,1.56-1.49,2.37-2.47v7.6s0,1.13-.08,1.52h1.99c-.07-.39-.08-1.52-.08-1.52v-10.02ZM222.21,11.76l.72-1.03-1.94-1.01-.42,1.04c-.71,1.6-2.27,4.07-3.55,5.09l.81.74c1.43-1.12,3.58-3.61,4.38-4.83ZM231.88,25.6c-.94.28-2.4.55-3.94.76v-2.86h1.58s1.13,0,1.52.08v-1.42c-.39.07-1.52.08-1.52.08h-1.58v-1.33s0-1.13.08-1.52h-1.99c.07.39.08,1.52.08,1.52v1.33h-.47s-2.17,0-2.56-.08v1.42c.39-.07,2.56-.08,2.56-.08h.47v3.09c-1.74.2-3.35.32-4.16.32l.59,2.05,1.39-.28c2.09-.38,5.69-1.23,8.13-1.9l-.17-1.18ZM259.87,19.8c0,2.68-.88,5.27-1.8,7.04-.84,1.62-1.6,2.24-3.06,2.24-1.77,0-3.11-1.46-3.85-2.28l.94-1.05c.57.61,1.52,1.77,2.47,1.77.58,0,1.01-.36,1.48-1.18.98-1.73,1.7-4.36,1.7-6.35,0-2.35-.83-3.12-3.16-3.12l-2.01.05c-1.06,3.56-2.27,6.94-4.01,10.41-.25.49-.54.98-.67,1.28l-1.85-.92c1.33-1.89,3.24-5.78,4.72-10.73l-3.31.08s-1.25.08-1.88.19l-.09-1.58c.28.05.97.07,1.31.07l4.35-.1c.45-1.66.84-3.41,1.14-5.24l1.93.57c-.42,1.59-.83,3.13-1.25,4.63l2-.05c3.09,0,4.9.87,4.9,4.25ZM261.13,13.68l-1.2.87c1.63,1.76,2.69,4.36,3.28,7.69l2.07-.82c-1.44-5.24-3.66-7.27-4.15-7.74ZM390.27,19.8c0,2.68-.88,5.27-1.8,7.04-.84,1.62-1.6,2.24-3.06,2.24-1.77,0-3.11-1.46-3.85-2.28l.94-1.05c.57.61,1.52,1.77,2.47,1.77.58,0,1.01-.36,1.48-1.18.98-1.73,1.7-4.36,1.7-6.35,0-2.35-.83-3.12-3.16-3.12l-2.01.05c-1.06,3.56-2.27,6.94-4.01,10.41-.25.49-.54.98-.67,1.28l-1.85-.92c1.33-1.89,3.24-5.78,4.72-10.73l-3.31.08s-1.25.08-1.88.19l-.09-1.58c.28.05.97.07,1.31.07l4.35-.1c.45-1.66.84-3.41,1.14-5.24l1.93.57c-.42,1.59-.83,3.13-1.25,4.63l2-.05c3.09,0,4.9.87,4.9,4.25ZM391.53,13.68l-1.2.87c1.63,1.76,2.69,4.36,3.28,7.69l2.07-.82c-1.44-5.24-3.66-7.27-4.15-7.74ZM203.85,29.78c-.76-1.52-2.09-3.42-3.44-4.59l1.05-1.04c.77.61,1.64,1.36,3.01,2.98.2.25.53.64,1.1,1.27l-1.71,1.39ZM307.57,19.82h6.63s1.13,0,1.52.08v-1.48c-.39.07-1.52.08-1.52.08h-7.4v-3.8h5.69s1.13,0,1.52.08v-1.48c-.39.07-1.52.08-1.52.08h-5.69v-2.09s0-1.13.08-1.52h-2.05c.07.39.08,1.52.08,1.52v2.09h-5.31s-1.13,0-1.52-.08v1.48c.39-.07,1.52-.08,1.52-.08h5.31v3.8h-7.02s-1.13,0-1.52-.08v1.48c.39-.07,1.52-.08,1.52-.08h6.03c-1.66,3.23-4.97,6.5-8.15,7.88l.68.91c2.46-1.15,6.36-3.64,8.47-6.87v6.62s0,1.13-.08,1.52h2.05c-.07-.39-.08-1.52-.08-1.52v-7.54c1.88,3.55,5.22,6.21,8.16,7.41l1.46-2.06c-3.74-1.03-7.21-3.83-8.85-6.34ZM343.8,26.6l-1.55,2.06c-2.91-1.25-5.95-3.71-7.94-6.74v6.43s0,1.13.08,1.52h-2.05c.07-.39.08-1.52.08-1.52v-5.76c-2.14,2.9-6.09,5.24-8.47,6.27l-.68-.91c1.35-.41,5.63-3.01,7.8-6.62h-5.77s-1.13,0-1.52.08v-1.48c.39.07,1.52.08,1.52.08h7.12s0-5.31,0-5.31h-5.98s-1.13,0-1.52.08v-1.48c.39.07,1.52.08,1.52.08h5.98s0-2.09,0-2.09c0,0,0-1.13-.08-1.52h2.05c-.07.39-.08,1.52-.08,1.52v2.09s6.17,0,6.17,0c0,0,1.13,0,1.52-.08v1.48c-.39-.07-1.52-.08-1.52-.08h-6.17s0,5.31,0,5.31h7.31s1.13,0,1.52-.08v1.48c-.39-.07-1.52-.08-1.52-.08h-6.41c1.7,1.9,4.51,3.99,8.6,5.27ZM328.46,19.76l2.07-1.01c-.53-.61-.81-1.17-1.56-2.21s-1.28-1.6-1.28-1.6l-1.09.57c.76,1.24,1.5,3,1.86,4.25ZM337.72,19.73c.78-.78,1.95-2.65,2.6-4.08l-2.22-.76c-.35,1.59-.77,2.97-1.57,4.22l1.19.62ZM166.68,13.33h-5.08c-.64-1.33-1.14-2.48-1.39-3.19l-2.07.83c.15.23.62,1.15,1.22,2.36h-7.31s-1.13,0-1.52-.08v1.48c.39-.07,1.52-.08,1.52-.08h7.97c.6,1.18,2.04,4.05,2.94,5.48-1.04-.71-3.32-1.27-5.46-1.27-3.99,0-6.33,1.89-6.33,4.57,0,3.39,3.41,5.66,8.47,5.66,2.82,0,4.37-.18,4.37-.18l-.09-2.13c-1.42.42-2.35.5-4.08.5-6.35,0-6.61-3.4-6.61-4.16,0-1.89,1.58-3.23,4.52-3.23,2.66,0,5.69,1.46,6.63,2.94l1.89-.95c-1.27-1.93-2.95-5.08-4.04-7.23h4.42s1.13,0,1.52.08v-1.48c-.39.07-1.52.08-1.52.08ZM412.83,13.94l.94-1.91c-1.51-.57-3.74-1.31-6.76-1.8l-.65,1.2c1.74.26,5.51,1.84,6.47,2.51ZM419.38,26.78c-1.16.31-2.08.55-3.5.55-1.81,0-2.36-.28-2.34-1.4l.04-2.49c.03-1.55-.7-2.38-2.07-2.38-.65,0-1.14.14-1.74.42,0,0,3.23-2.97,4.35-3.93.39-.33,1.17-.96,1.44-1.15l-.11-1.29h-11.14s-1.13,0-1.52-.08v1.48c.39-.07,1.52-.08,1.52-.08h8.74s-6.65,6.46-6.65,6.46c-1.24,1.29-4.1,3.99-4.23,4.1-.13.13-.88.76-.88.76l1.52,1.59c.11-.22.78-.96.82-1,2.2-2.44,4.25-4.52,5.02-5.11.75-.59,1.5-.92,2.04-.92.72,0,.98.37.96,1.35l-.05,2.64c-.04,2.05,1.09,2.79,4.04,2.79,1.33,0,2.6-.09,3.79-.26l-.06-2.06ZM435.13,22.63v-6.42h5.31s1.13,0,1.52.08v-1.48c-.39.07-1.52.08-1.52.08h-5.31v-2.91s0-1.13.08-1.52h-2.05c.07.39.08,1.52.08,1.52v10.17c-2.24-.5-3.8-.48-5.29-.06-2.02.56-3.05,2.04-2.93,3.75.11,1.65,1.57,3.34,4.47,3.51,2.82.17,5.65-1.13,5.65-4.94v-.39c2.53.89,5.59,3.4,6.14,3.97l1.21-1.98c-.74-.3-3.6-2.26-7.35-3.36ZM429.94,27.99c-2.38-.04-3.18-1.57-2.92-2.96.28-1.51,1.93-2.73,6.2-1.62v.59c0,2-.34,4.03-3.29,3.99ZM460.08,13.85c-1.21-.76-3.97-1.88-7.46-2.26l.61-1.27c3.37.51,6.34,1.27,7.7,1.83l-.85,1.69ZM449.65,18.02c.73-.34,4.91-1.65,7.57-1.65,2.84,0,4.43,1.34,4.43,3.91,0,2.49-1.2,4.54-3.58,6.13-1.51,1-3.51,1.73-4.87,1.94l.57,1.16c2.49-.73,9.97-2.63,9.97-9.32,0-3.29-2.26-5.21-6.16-5.21-1.04,0-2.66.23-4.39.59-.78.16-3.19.81-4.02.89l.48,1.56ZM189.87,17.42l.45-.73-1.35-.65-.55.97c-.87-.12-2.8-.26-4.55.04.03-.8.11-2.21.13-2.41h7.35s1.13,0,1.52.08v-1.48c-.39.07-1.52.08-1.52.08h-7.25c.06-.72.1-1.21.11-1.3.04-.37.12-.88.27-1.39l-2.16-.18c.05.22,0,.93,0,1.14-.04.55-.07,1.13-.11,1.73h-3.94s-1.13,0-1.52-.08v1.48c.39-.07,1.52-.08,1.52-.08h3.87c0,.14-.1,1.98-.12,2.87-4.03,1.37-5.94,4.65-5.94,6.9s1.64,3.98,3.96,3.99c1.62,0,2.82-1.24,3.14-1.53.09.2.19.41.31.63l1.68-1.2c-.21-.39-.37-.76-.49-1.09,2.37-2.91,4.71-6.99,4.71-6.99,1.98.67,2.7,2.31,2.7,4.37,0,4.07-3.7,5.82-5.85,5.89l.23,1.03c.97-.19,7.73-1.14,7.73-7.11,0-2.65-2.17-4.38-4.31-4.98ZM180.25,27.11c-1.36,0-2.19-1.09-2.19-2.73s1.06-4.26,3.91-5.63c-.06,2.21.13,4.86.7,6.73-.9.97-1.76,1.63-2.42,1.63ZM184.2,23.64c-.42-1.74-.41-3.82-.37-5.53,1.73-.4,3.42-.28,4.09-.2,0,0-1.76,3.12-3.72,5.73ZM282.66,14.7c-1.74-1.37-4.78-2.7-6.93-3.24l.59-1.24c1.74.34,5.74,1.77,7.28,2.59l-.94,1.88ZM281.87,18.1c-2.68,0-5.36.93-7.07,2.63.43-2.28.72-4.17.91-6.26l-2.04-.26c-.02,2.11-.67,7.21-1.06,9.03l1.79.31c.15-.44.35-.74.72-1.16,1.7-1.9,3.99-3.14,6.44-3.14,2.81,0,4.54,1.45,4.54,3.63,0,1.48-.72,2.85-2.14,3.69-2.35,1.41-4.35,1.61-6.56,1.56l.22,1.15c3.11,0,5.78-.68,7.51-1.57,2.03-1.05,3.1-2.76,3.1-4.83,0-2.95-2.47-4.78-6.33-4.78ZM361.35,27.27c-3.65,0-4.98-.58-4.98-2.22,0-1.75,2.18-3.02,4.46-3.79.1-.03.2-.07.3-.1,0,.11,0,2.23,0,2.23,0,0,0,1.13-.08,1.52h2.05c-.07-.39-.08-1.52-.08-1.52,0,0,.02-2.6-.03-2.87,1.71-.6,2.84-1,5.03-1.49l-.49-1.74c-1.39.65-3.14,1.26-4.86,1.87-.61-1.5-1.93-2.23-3.18-2.23-1.71,0-2.94.57-3.71,1.27.62-.82,1.53-2.15,2.4-3.55h6.05s1.13,0,1.52.08v-1.48c-.39.07-1.52.08-1.52.08h-5.24c.59-1,1.11-1.97,1.45-2.73l-1.86-.79c-.34,1.04-.87,2.24-1.53,3.52h-4.39s-1.13,0-1.52-.08v1.48c.39-.07,1.52-.08,1.52-.08h3.67c-1.38,2.43-3.1,4.94-4.68,6.78l1.65,1.13c.33-.65,2.78-4.28,5.61-4.28,1.05,0,1.7.51,2,1.5-1.68.62-3.2,1.27-4.18,1.97-1.48,1.07-2.31,2.19-2.31,3.52,0,1.44.74,2.48,2.05,3.07,1.11.48,2.83.63,5.31.63,1.01,0,3.69-.2,4.68-.28l-.09-2.04c-2.14.42-3.18.6-5.04.6Z" fill="#fff"/><path d="M106.49,103.68l19.24-19.24-17.14-17.14-19.24,19.24-28.09-28.09,11.89-11.89c2.78-2.78,4.38-6.64,4.38-10.58,0-2.4-.59-4.8-1.71-6.94l-10.61-20.26c-2.45-4.69-7.06-7.8-12.33-8.33-2.89-.29-5.84-.44-8.77-.44s-5.87.15-8.77.44c-5.27.53-9.89,3.64-12.34,8.34l-10.61,20.26c-1.12,2.14-1.71,4.54-1.71,6.94,0,3.94,1.6,7.8,4.38,10.58l11.89,11.89-14.04,14.04C4.59,80.82,0,91.9,0,103.68s4.59,22.86,12.92,31.19c8.33,8.33,19.41,12.92,31.19,12.92s22.86-4.59,31.19-12.92l14.05-14.05,18.64,18.64h34.28l-35.78-35.78ZM26.91,23.99c.45-.04.89-.06,1.34-.06h31.71c.45,0,.89.02,1.34.06-.3.38-.62.74-.96,1.07l-16.24,16.24-16.24-16.24c-.34-.34-.66-.7-.96-1.08ZM44.11,131.77l-28.09-28.09,28.09-28.09,28.1,28.09-28.09,28.09Z" fill="#fff"/><rect x="33.44" y="47.78" width="21.33" height="21.33" transform="translate(-28.41 48.31) rotate(-45)"/><path d="M12.14,35.97c0-2.11.49-4.26,1.54-6.26l10.61-20.26c-2.3,4.39-2.06,9.42.16,13.46-6.3,1.5-11.18,6.63-12.31,13.06ZM76.06,35.97c0-2.11-.49-4.26-1.54-6.26l-10.61-20.26c2.3,4.39,2.06,9.43-.16,13.46,6.3,1.49,11.19,6.63,12.31,13.06Z" fill="#a40000"/><path d="M44.1,43.36l-15.08,15.08-12.92-12.92c-2.55-2.55-3.95-6.01-3.96-9.55,1.13-6.43,6.02-11.57,12.31-13.06.64,1.15,1.43,2.23,2.38,3.18l17.27,17.27ZM63.75,22.91c-.64,1.15-1.43,2.23-2.38,3.18l-17.27,17.27,15.08,15.08,12.92-12.92c2.55-2.55,3.95-6,3.96-9.55-1.13-6.43-6.02-11.57-12.31-13.06ZM63.91,9.45c-2.3-4.4-6.59-7.09-11.19-7.56-2.83-.28-5.71-.43-8.62-.43s-5.79.15-8.62.43c-4.6.46-8.89,3.15-11.19,7.56-2.3,4.39-2.06,9.43.16,13.46,1.22-.29,2.48-.44,3.79-.44h31.71c1.3,0,2.57.16,3.79.44,2.23-4.04,2.46-9.07.16-13.46Z" fill="#e60012"/><path d="M104.42,103.68l-15.08,15.08-15.08-15.08,15.08-15.08,15.08,15.08ZM44.1,133.84h0c-8.33,8.33-21.83,8.33-30.15,0h0c16.66,16.65,43.66,16.65,60.31,0h0s0,0,0,0c-8.33,8.33-21.83,8.33-30.16,0ZM13.95,73.52h0s0,0,0,0c-16.66,16.66-16.66,43.66,0,60.31h0c-8.32-8.33-8.32-21.83,0-30.16h0c-8.33-8.33-8.33-21.83,0-30.16Z" fill="#002063"/><path d="M104.42,103.68l-15.08-15.08,19.24-19.24,15.08,15.08-19.24,19.24ZM59.18,58.44l-15.08,15.08,30.16,30.16,15.08-15.08-30.16-30.16ZM138.74,138l-34.32-34.32-15.08,15.08,19.24,19.24h30.16ZM13.95,133.84c8.33,8.33,21.83,8.33,30.16,0h0s-30.16-30.16-30.16-30.16c0,0,0,0,0,0,0,0,0,0,0,0-8.33,8.33-8.33,21.83,0,30.16ZM74.26,103.68l-30.16,30.16c8.33,8.33,21.83,8.33,30.16,0h0s0,0,0,0l15.08-15.07-15.08-15.08ZM29.02,58.45l-15.07,15.07h0,0c-8.33,8.33-8.33,21.83,0,30.16,0,0,30.16-30.16,30.16-30.16l-15.08-15.08Z" fill="#004098"/></g></svg>