<?xml version="1.0" encoding="UTF-8"?>
<svg id="ward-map" xmlns="http://www.w3.org/2000/svg" viewBox="0 0 556.36 532.37" class="c-ward-map">
  <g id="chuo" data-js-ward-select="chuo" class="c-ward-map__item">
    <path
      d="M360.9,231.56v33.88l-39.38,39.38-4.66-4.66v-15.39c0-.13-.06-.26-.15-.35l-7.9-7.9,13.51-13.51c.09-.1.15-.23.15-.36v-20.62l10.47-10.47h27.96Z"
      fill="#f9f9f9" stroke-width="0" />
    <path
      d="M334.7,257.94v5.15h-.84v-.63h-3.16v3.56h-.85v-3.56h-3.15v.68h-.8v-5.2h3.95v-1.96h.85v1.96h3.99ZM329.86,261.66v-2.92h-3.15v2.92h3.15ZM333.87,261.66v-2.92h-3.16v2.92h3.16Z"
      fill="#000" stroke-width="0" />
    <path
      d="M342.07,261.92c.76,1.75,2.21,2.9,4.39,3.36-.18.17-.41.51-.53.73-2.3-.57-3.77-1.87-4.6-3.9-.51,1.57-1.73,2.99-4.55,3.93-.08-.19-.3-.53-.45-.69,2.55-.85,3.69-2.08,4.18-3.42h-4.09v-.8h1.21v-3.61h3.22v-1.53h.81v1.53h3.42v3.61h1.13v.8h-4.15ZM340.72,261.12c.1-.54.13-1.09.13-1.63v-1.19h-2.42v2.82h2.29ZM341.67,258.3v1.19c0,.54-.02,1.09-.11,1.63h2.68v-2.82h-2.57Z"
      fill="#000" stroke-width="0" />
    <path
      d="M357.24,265.41h-8.55v.64h-.81v-9.38h9.11v.78h-8.29v7.2h8.55v.77ZM355.25,263.74c-.52-.66-1.32-1.44-2.24-2.23-.92,1.03-1.95,1.94-2.99,2.64-.14-.17-.46-.47-.66-.63,1.09-.66,2.12-1.52,3.04-2.52-.84-.67-1.74-1.31-2.57-1.85l.57-.52c.81.51,1.69,1.12,2.52,1.76.66-.8,1.23-1.66,1.69-2.56l.78.26c-.53.99-1.16,1.93-1.85,2.79.96.77,1.8,1.56,2.35,2.23l-.64.62Z"
      fill="#000" stroke-width="0" />
  </g>
  <g id="chiyoda" data-js-ward-select="chiyoda" class="c-ward-map__item">
    <path
      d="M341.38,230.56h-8.65c-.13,0-.26.05-.36.15l-10.76,10.76c-.09.09-.14.22-.14.35v20.62l-13.57,13.58h-17.72l-21.11-21.11v-14.76l22.86-22.86h36.18l13.27,13.27Z"
      fill="#f9f9f9" stroke-width="0" />
    <path
      d="M283.84,244.78h-4.51v4.94h-.85v-4.94h-4.43v-.8h4.43v-2.62c-1.21.18-2.45.31-3.62.41-.02-.21-.14-.54-.23-.73,2.66-.24,5.76-.67,7.5-1.22l.63.67c-.96.29-2.15.53-3.43.74v2.75h4.51v.8Z"
      fill="#000" stroke-width="0" />
    <path
      d="M288.66,240.04c-.32.77-.73,1.51-1.18,2.22v7.44h-.83v-6.26c-.47.62-.97,1.15-1.47,1.62-.09-.2-.33-.61-.47-.79,1.25-1.07,2.46-2.74,3.18-4.47l.77.24ZM291.56,243.75c.37,2.92,1.09,4.88,2.27,4.99.32.02.5-.63.6-1.89.17.15.52.35.68.43-.24,1.88-.68,2.45-1.25,2.42-1.8-.13-2.68-2.41-3.1-5.84l-2.64.33-.11-.77,2.66-.33c-.09-1.02-.17-2.11-.21-3.26h.81c.03,1.11.1,2.18.21,3.15l3.29-.42.11.77-3.32.42ZM294.04,242.1c-.35-.5-1.12-1.27-1.77-1.8l.59-.4c.66.52,1.44,1.27,1.82,1.76l-.64.44Z"
      fill="#000" stroke-width="0" />
    <path
      d="M305.38,240.43v9.19h-.84v-.67h-7.21v.67h-.8v-9.19h8.85ZM297.34,241.22v3h3.12v-3h-3.12ZM297.34,248.13h3.12v-3.09h-3.12v3.09ZM304.54,241.22h-3.27v3h3.27v-3ZM304.54,248.13v-3.09h-3.27v3.09h3.27Z"
      fill="#000" stroke-width="0" />
    <path
      d="M316.86,249.09h-8.55v.64h-.81v-9.38h9.11v.78h-8.29v7.2h8.55v.77ZM314.87,247.42c-.52-.66-1.32-1.44-2.24-2.23-.92,1.03-1.95,1.94-2.99,2.64-.14-.17-.46-.47-.66-.63,1.09-.66,2.12-1.52,3.04-2.52-.84-.67-1.74-1.31-2.57-1.85l.57-.52c.81.51,1.69,1.12,2.52,1.76.66-.8,1.23-1.66,1.69-2.56l.78.26c-.53.99-1.16,1.93-1.85,2.79.96.77,1.8,1.56,2.35,2.23l-.64.62Z"
      fill="#000" stroke-width="0" />
  </g>
  <g id="toshima" data-js-ward-select="toshima" class="c-ward-map__item">
    <path
      d="M294.43,158.81h-16c-.07,0-.13,0-.2.04-.06.02-.11.06-.16.11l-26.98,26.98c-.09.09-.15.22-.15.35v10.8h-20.83v-22.55c0-.28-.23-.5-.5-.5h-37.23v-21.34l12.96-12.97h9.94l9.18,9.19c.2.19.52.19.71,0l10.5-10.5h38.36l20.4,20.39Z"
      fill="#f9f9f9" stroke-width="0" />
    <path
      d="M228.41,164.53v.65h-9.79v-.65h2.96c-.11-.32-.32-.73-.53-1.02l.55-.18h-1.56v-2.11h6.93v2.11h-1.47l.47.18c-.21.37-.44.74-.64,1.02h3.08ZM228.26,160.64h-9.46v-.62h9.46v.62ZM227.31,159.45h-7.69v-3.3h2.26v-.79h.72v.79h1.62v-.79h.7v.79h2.4v3.3ZM220.38,157.52h1.5v-.78h-1.5v.78ZM220.38,158.86h1.5v-.78h-1.5v.78ZM220.83,162.75h5.31v-.97h-5.31v.97ZM221.77,163.33c.26.35.48.79.59,1.1l-.27.1h2.73l-.23-.09c.21-.3.48-.76.64-1.11h-3.45ZM222.59,156.74v.78h1.62v-.78h-1.62ZM222.59,158.08v.78h1.62v-.78h-1.62ZM226.52,156.74h-1.61v.78h1.61v-.78ZM226.52,158.08h-1.61v.78h1.61v-.78Z"
      fill="#000" stroke-width="0" />
    <path
      d="M231.82,161.08v.79h7.17s-.01.22-.03.33c-.15,1.88-.32,2.63-.59,2.94-.19.19-.37.25-.68.27-.26.02-.81.01-1.39-.02-.01-.21-.1-.52-.21-.7.54.05,1.05.05,1.23.05s.29-.01.38-.1c.19-.18.31-.75.44-2.13h-4.68v1.53h1.85v-1.21h.77v1.86h-5.24v.54h-.76v-2.37h.76v1.18h1.86v-1.53h-1.69v-6.26h2.54c.14-.31.26-.66.34-.91l.94.12c-.13.27-.29.55-.43.79h3.34v3.44h-5.93v.76h7.56v.63h-7.56ZM231.82,156.86v.84h5.12v-.84h-5.12ZM236.94,159.09v-.84h-5.12v.84h5.12Z"
      fill="#000" stroke-width="0" />
    <path
      d="M250.43,164.8h-8.55v.64h-.81v-9.38h9.11v.78h-8.29v7.2h8.55v.77ZM248.44,163.13c-.52-.66-1.32-1.44-2.24-2.23-.92,1.03-1.95,1.94-2.99,2.64-.14-.17-.46-.47-.66-.63,1.09-.66,2.12-1.52,3.04-2.52-.84-.67-1.74-1.31-2.57-1.85l.57-.52c.81.51,1.69,1.12,2.52,1.76.66-.8,1.23-1.66,1.69-2.56l.78.26c-.53.99-1.16,1.93-1.85,2.79.96.77,1.8,1.56,2.35,2.23l-.64.62Z"
      fill="#000" stroke-width="0" />
  </g>
  <g id="bunkyo" data-js-ward-select="bunkyo" class="c-ward-map__item">
    <path
      d="M327.81,201.75v14.54h-35.88l-19.05-19.06c-.05-.04-.1-.08-.16-.1-.06-.03-.13-.04-.19-.04h-20.59v-10.59l26.69-26.69h34.88l5.8,5.8v27.43c0,.13.05.25.14.35l8.36,8.36Z"
      fill="#f9f9f9" stroke-width="0" />
    <path
      d="M281.15,183.61c-.65,1.8-1.52,3.26-2.66,4.41,1.2,1.01,2.68,1.76,4.47,2.18-.2.19-.46.56-.58.79-1.84-.47-3.33-1.26-4.54-2.35-1.21,1.03-2.7,1.79-4.47,2.37-.08-.2-.34-.59-.52-.78,1.75-.51,3.19-1.21,4.37-2.18-1.13-1.2-1.99-2.68-2.62-4.43h-1.62v-.8h4.48v-1.86h.83v1.86h4.57v.8h-1.69ZM275.49,183.61c.54,1.47,1.32,2.77,2.37,3.84,1.01-1.02,1.78-2.29,2.34-3.84h-4.71Z"
      fill="#000" stroke-width="0" />
    <path
      d="M286.76,188.14c-.52.87-1.38,1.83-2.18,2.44-.18-.15-.46-.36-.65-.48.79-.56,1.6-1.46,1.99-2.22l.84.26ZM293.65,183h-9.53v-.78h4.3v-1.28h.85v1.28h4.38v.78ZM289.27,187.24v2.81c0,.47-.11.7-.48.83-.36.12-.99.12-1.96.12-.04-.22-.17-.55-.27-.76.76.02,1.44.01,1.63,0,.21,0,.25-.04.25-.2v-2.79h-2.97v-3.23h6.92v3.23h-3.11ZM286.28,186.52h5.26v-1.8h-5.26v1.8ZM291.65,187.89c.73.72,1.65,1.72,2.09,2.36l-.79.41c-.41-.64-1.29-1.68-2.04-2.42l.74-.35Z"
      fill="#000" stroke-width="0" />
    <path
      d="M304.81,190.37h-8.55v.64h-.81v-9.38h9.11v.78h-8.29v7.2h8.55v.77ZM302.82,188.7c-.52-.66-1.32-1.44-2.24-2.23-.92,1.03-1.95,1.94-2.99,2.64-.14-.17-.46-.47-.66-.63,1.09-.66,2.12-1.52,3.04-2.52-.84-.67-1.74-1.31-2.57-1.85l.57-.52c.81.51,1.69,1.12,2.52,1.76.66-.8,1.23-1.66,1.69-2.56l.78.26c-.53.99-1.16,1.93-1.85,2.79.96.77,1.8,1.56,2.35,2.23l-.64.62Z"
      fill="#000" stroke-width="0" />
  </g>
  <g id="taito" data-js-ward-select="taito" class="c-ward-map__item">
    <path
      d="M387.02,166.58v18.94l-25.97,25.98c-.05.05-.09.1-.11.16-.03.06-.04.13-.04.19v18.71h-18.12s-.02-.04-.04-.05l-13.93-13.93v-15.04c0-.13-.05-.26-.14-.35l-8.36-8.36v-22h29.04c.07,0,.13-.01.19-.04s.12-.06.17-.11l4.09-4.1h33.22Z"
      fill="#f9f9f9" stroke-width="0" />
    <path
      d="M341.19,188.71c1.11.88,2.41,2.17,2.97,3.07l-.7.54c-.19-.31-.46-.67-.78-1.06-2.99.17-6.16.27-8.17.36l-.05-.81c.48-.01,1.04-.03,1.65-.06.65-.98,1.4-2.33,1.83-3.34l.9.31c-.51.98-1.17,2.1-1.78,2.99,1.51-.06,3.23-.13,4.94-.21-.46-.47-.96-.94-1.43-1.33l.64-.46ZM335.73,192.84h6.96v4.63h-.87v-.46h-5.27v.48h-.83v-4.65ZM336.56,193.61v2.62h5.27v-2.62h-5.27Z"
      fill="#000" stroke-width="0" />
    <path
      d="M351.29,194.19c1,1.03,2.56,1.98,3.97,2.45-.2.17-.45.47-.57.7-1.43-.57-3.04-1.66-4.09-2.85v2.99h-.83v-2.96c-1.04,1.18-2.61,2.22-4,2.79-.13-.21-.37-.52-.57-.68,1.39-.48,2.92-1.43,3.89-2.45h-2.66v-4h3.34v-.92h-4.3v-.77h4.3v-1.03h.83v1.03h4.41v.77h-4.41v.92h3.53v4h-2.84ZM347.22,191.88h2.55v-1.04h-2.55v1.04ZM347.22,193.55h2.55v-1.07h-2.55v1.07ZM350.59,190.83v1.04h2.71v-1.04h-2.71ZM353.3,192.48h-2.71v1.07h2.71v-1.07Z"
      fill="#000" stroke-width="0" />
    <path
      d="M366.14,196.87h-8.55v.64h-.81v-9.38h9.11v.78h-8.29v7.2h8.55v.77ZM364.15,195.2c-.52-.66-1.32-1.44-2.24-2.23-.92,1.03-1.95,1.94-2.99,2.64-.14-.17-.46-.47-.66-.63,1.09-.66,2.12-1.52,3.04-2.52-.84-.67-1.74-1.31-2.57-1.85l.57-.52c.81.51,1.69,1.12,2.52,1.76.66-.8,1.23-1.66,1.69-2.56l.78.26c-.53.99-1.16,1.93-1.85,2.79.96.77,1.8,1.56,2.35,2.23l-.64.62Z"
      fill="#000" stroke-width="0" />
  </g>
  <g id="arakawa" data-js-ward-select="arakawa" class="c-ward-map__item">
    <path
      d="M396.83,147.26v18.32h-43.23c-.07,0-.13.02-.2.04-.06.03-.11.07-.16.11l-4.09,4.1h-28.84v-4.43c0-.13-.05-.26-.15-.35l-5.73-5.74,10.23-10.23c.09-.09.14-.22.14-.35,0-.14-.05-.26-.14-.36l-21.08-21.07v-7.39h36.63l27.22,27.2c.09.1.22.15.35.15h29.05Z"
      fill="#f9f9f9" stroke-width="0" />
    <path
      d="M331.15,149.86h.8v.78c0,.92-.32,2.2-2.22,3.03-.12-.15-.4-.42-.58-.55,1.75-.71,2-1.75,2-2.5v-.76ZM331.84,145.14h-2.46v-.73h2.46v-.81h.81v.81h3.07v-.81h.8v.81h2.53v.73h-2.53v.96h-.8v-.96h-3.07v.94h-.81v-.94ZM336.55,148.82c.48,0,1.25-.02,1.63-.08.02.23.07.56.09.75-.25.05-1,.07-1.66.07h-4.24c-1.19,0-1.61-.31-1.61-1.24v-.95h-1.35v-.7h4.37v-1.03h.79v1.03h4.47v.7h-7.47v.96c0,.36.13.5.74.5h4.25ZM333.74,149.94h.77v3.52h-.77v-3.52ZM338.27,152.82c.25,0,.3-.13.33-1.13.17.14.48.25.7.31-.08,1.24-.3,1.55-.95,1.55h-1.07c-.79,0-.99-.22-.99-1.02v-2.67h.79v2.66c0,.26.04.31.32.31h.86Z"
      fill="#000" stroke-width="0" />
    <path
      d="M342.32,144.21v3.72c0,2.09-.17,4.18-1.58,5.81-.14-.19-.47-.44-.67-.57,1.29-1.47,1.43-3.37,1.43-5.25v-3.71h.83ZM345.79,144.66v8.03h-.83v-8.03h.83ZM349.48,144.17v9.46h-.84v-9.46h.84Z"
      fill="#000" stroke-width="0" />
    <path
      d="M361.14,153.03h-8.55v.64h-.81v-9.38h9.11v.78h-8.29v7.2h8.55v.77ZM359.15,151.36c-.52-.66-1.32-1.44-2.24-2.23-.92,1.03-1.95,1.94-2.99,2.64-.14-.17-.46-.47-.66-.63,1.09-.66,2.12-1.52,3.04-2.52-.84-.67-1.74-1.31-2.57-1.85l.57-.52c.81.51,1.69,1.12,2.52,1.76.66-.8,1.23-1.66,1.69-2.56l.78.26c-.53.99-1.16,1.93-1.85,2.79.96.77,1.8,1.56,2.35,2.23l-.64.62Z"
      fill="#000" stroke-width="0" />
  </g>
  <g id="sumida" data-js-ward-select="sumida" class="c-ward-map__item">
    <path
      d="M437.87,181.05l-10.01,10.01c-.09.09-.14.22-.14.35v21.59h-24.32c-.28,0-.5.22-.5.5v14.7l-12.35,12.35h-28.65v-28.49l25.98-25.98c.09-.09.14-.22.14-.35v-19.15h9.31c.27,0,.5-.22.5-.5v-19.11l7.28-7.28v8.39c0,.13.05.26.14.36l32.62,32.61Z"
      fill="#f9f9f9" stroke-width="0" />
    <path
      d="M392.88,204.82v.67h-9.91v-.67h4.52v-.81h-3.37v-.66h3.37v-.74h.79v.74h3.43v.66h-3.43v.81h4.6ZM392.67,201.35h-9.51v-.59h4.33v-.62h-3.52v-.58h3.52v-.54h-3.34v-2.9h7.54v2.9h-3.41v.54h3.66v.58h-3.66v.62h4.39v.59ZM385.13,201.59c-.29.63-.77,1.3-1.36,1.68l-.61-.42c.53-.32,1.01-.87,1.29-1.45l.68.19ZM384.92,197.3h2.57v-.66h-2.57v.66ZM387.5,198.48v-.67h-2.57v.67h2.57ZM386.53,202.95c-.06-.35-.23-.88-.41-1.27l.68-.15c.2.38.37.9.44,1.24l-.71.18ZM390.88,196.64h-2.61v.66h2.61v-.66ZM390.88,197.81h-2.61v.67h2.61v-.67ZM389.16,202.94c-.15-.35-.5-.87-.81-1.24l.62-.24c.33.37.68.86.85,1.19l-.65.3ZM391.13,201.36c.57.43,1.26,1.04,1.62,1.45l-.65.37c-.32-.42-1.01-1.06-1.58-1.5l.62-.33Z"
      fill="#000" stroke-width="0" />
    <path
      d="M403.36,196.51v9.19h-.84v-.67h-7.21v.67h-.8v-9.19h8.84ZM395.32,197.3v3h3.12v-3h-3.12ZM395.32,204.21h3.12v-3.09h-3.12v3.09ZM402.52,197.3h-3.27v3h3.27v-3ZM402.52,204.21v-3.09h-3.27v3.09h3.27Z"
      fill="#000" stroke-width="0" />
    <path
      d="M414.84,205.17h-8.55v.64h-.81v-9.38h9.11v.78h-8.29v7.2h8.55v.77ZM412.85,203.5c-.52-.66-1.32-1.44-2.24-2.23-.92,1.03-1.95,1.94-2.99,2.64-.14-.17-.46-.47-.66-.63,1.09-.66,2.12-1.52,3.04-2.52-.84-.67-1.74-1.31-2.57-1.85l.57-.52c.81.51,1.69,1.12,2.52,1.76.66-.8,1.23-1.66,1.69-2.56l.78.26c-.53.99-1.16,1.93-1.85,2.79.96.77,1.8,1.56,2.35,2.23l-.64.62Z"
      fill="#000" stroke-width="0" />
  </g>
  <g id="koto" data-js-ward-select="koto" class="c-ward-map__item">
    <path
      d="M443.64,227.3v74.28h-60.79l-20.95-20.95v-39.08h28.86c.13,0,.26-.05.35-.15l12.64-12.64s.08-.1.11-.16c.02-.06.04-.12.04-.19v-14.41h26.44l13.3,13.3Z"
      fill="#f9f9f9" stroke-width="0" />
    <path
      d="M390.05,263.9c-.44-.33-1.33-.85-2.01-1.18l.45-.6c.65.3,1.56.78,2.02,1.11l-.46.67ZM388.4,268.33c.59-.82,1.45-2.27,2.09-3.51l.59.54c-.58,1.16-1.35,2.51-2,3.52l-.68-.55ZM389.1,259.15c.65.35,1.54.88,1.98,1.23l-.51.64c-.42-.37-1.29-.92-1.95-1.3l.47-.57ZM398.05,267.51v.81h-6.91v-.81h2.9v-6.68h-2.39v-.8h5.79v.8h-2.54v6.68h3.15Z"
      fill="#000" stroke-width="0" />
    <path
      d="M405.12,265.73c1,1.03,2.56,1.98,3.97,2.45-.2.17-.45.47-.57.7-1.43-.57-3.04-1.66-4.09-2.85v2.99h-.82v-2.96c-1.04,1.18-2.61,2.22-4,2.79-.13-.21-.37-.52-.57-.68,1.39-.48,2.92-1.43,3.89-2.45h-2.66v-4h3.34v-.92h-4.3v-.77h4.3v-1.03h.82v1.03h4.41v.77h-4.41v.92h3.53v4h-2.84ZM401.05,263.42h2.55v-1.04h-2.55v1.04ZM401.05,265.09h2.55v-1.07h-2.55v1.07ZM404.43,262.37v1.04h2.71v-1.04h-2.71ZM407.13,264.02h-2.71v1.07h2.71v-1.07Z"
      fill="#000" stroke-width="0" />
    <path
      d="M419.97,268.41h-8.55v.64h-.81v-9.38h9.11v.78h-8.29v7.2h8.55v.77ZM417.98,266.74c-.52-.66-1.32-1.44-2.24-2.23-.92,1.03-1.95,1.94-2.99,2.64-.14-.17-.46-.47-.66-.63,1.09-.66,2.12-1.52,3.04-2.52-.84-.67-1.74-1.31-2.57-1.85l.57-.52c.81.51,1.69,1.12,2.52,1.76.66-.8,1.23-1.66,1.7-2.56l.78.26c-.53.99-1.16,1.93-1.85,2.79.96.77,1.8,1.56,2.35,2.23l-.64.62Z"
      fill="#000" stroke-width="0" />
  </g>
  <g id="edogawa" data-js-ward-select="edogawa" class="c-ward-map__item">
    <path
      d="M555.36,204.71v26.55l-17.42,17.42h-34.75c-.27,0-.5.23-.5.5v65.66l-20.17,20.16h-17.79l-12.76-12.75v-23.01c0-.14-.05-.26-.14-.36l-7.19-7.18v-64.61c0-.13-.05-.26-.14-.35l-13.6-13.6c-.09-.09-.22-.14-.35-.14h-1.83v-21.38l9.86-9.86,11.66,11.66c.1.1.22.15.36.15h29.66c.27,0,.5-.22.5-.5v-37.5l29.81-29.82,16.42,16.42v33.95c0,.14.06.26.15.36l28.22,28.23Z"
      fill="#f9f9f9" stroke-width="0" />
    <path
      d="M472.55,222.58c-.44-.33-1.33-.85-2.01-1.18l.45-.6c.65.3,1.56.78,2.02,1.11l-.46.67ZM470.9,227.01c.59-.82,1.45-2.27,2.09-3.51l.59.54c-.58,1.16-1.35,2.51-2,3.52l-.68-.55ZM471.6,217.83c.65.35,1.54.88,1.98,1.23l-.51.64c-.42-.37-1.29-.92-1.95-1.3l.47-.57ZM480.55,226.19v.81h-6.91v-.81h2.9v-6.68h-2.39v-.8h5.79v.8h-2.54v6.68h3.15Z"
      fill="#000" stroke-width="0" />
    <path
      d="M490.46,224.76h-.83v-.6h-6c-.14,1.25-.54,2.62-1.55,3.6-.12-.17-.45-.45-.64-.56,1.3-1.27,1.44-3.05,1.44-4.42v-2.46h7.57v4.46ZM491.29,218.33v.77h-9.45v-.77h9.45ZM483.72,221.06v1.72c0,.2,0,.41-.01.62h5.93v-2.33h-5.92Z"
      fill="#000" stroke-width="0" />
    <path
      d="M494.65,218.27v3.72c0,2.09-.17,4.18-1.58,5.81-.14-.19-.47-.44-.67-.57,1.29-1.47,1.43-3.37,1.43-5.25v-3.71h.83ZM498.13,218.72v8.03h-.83v-8.03h.83ZM501.81,218.23v9.46h-.84v-9.46h.84Z"
      fill="#000" stroke-width="0" />
    <path
      d="M513.47,227.09h-8.55v.64h-.81v-9.38h9.11v.78h-8.29v7.2h8.55v.77ZM511.48,225.42c-.52-.66-1.32-1.44-2.24-2.23-.92,1.03-1.95,1.94-2.99,2.64-.14-.17-.46-.47-.66-.63,1.09-.66,2.12-1.52,3.04-2.52-.84-.67-1.74-1.31-2.57-1.85l.57-.52c.81.51,1.69,1.12,2.52,1.76.66-.8,1.23-1.66,1.7-2.56l.78.26c-.53.99-1.16,1.93-1.85,2.79.96.77,1.8,1.56,2.35,2.23l-.64.62Z"
      fill="#000" stroke-width="0" />
  </g>
  <g id="katsushika" data-js-ward-select="katsushika" class="c-ward-map__item">
    <path
      d="M516.54,67.64v10.59l-17.36,17.36c-.09.1-.15.22-.15.36v18.07c0,.13.06.25.15.35l10.68,10.68-29.96,29.96c-.09.09-.14.22-.14.35v37.21h-28.96l-44.69-44.7v-9.37c0-.1-.03-.19-.08-.28l-.03-.03s-.02-.05-.04-.06l-14.44-14.45v-13.5h13.59v4.05c0,.28.22.5.5.5h18.78s0,0,.01,0c.06,0,.13-.02.19-.04.03-.02.05-.04.08-.06s.06-.03.08-.05l21.98-21.99h16.85c.28,0,.5-.22.5-.5v-6.14c0-.13-.05-.26-.15-.35l-18.1-18.11v-22.74l3.73-3.74,9.53,9.53c.19.19.52.19.71,0l6.06-6.07h23.01v22.66c0,.28.23.5.5.5h27.17Z"
      fill="#f9f9f9" stroke-width="0" />
    <path
      d="M449.39,126.42s-.01.22-.02.33c-.15,2.3-.3,3.17-.59,3.5-.19.19-.36.26-.66.29-.25.02-.74.01-1.24-.01-.01-.18-.07-.41-.14-.58h-4.19v.46h-.78v-2.6c-.38.33-.8.63-1.28.91-.11-.19-.36-.44-.54-.56,1.22-.68,2.15-1.58,2.71-2.39h-1.01v-3.07h6.89v3.07h-4.94c-.14.22-.3.43-.47.65h6.28ZM449.8,121.1v.69h-2.52v.71h-.81v-.71h-2.89v.71h-.8v-.71h-2.49v-.69h2.49v-.6h.8v.6h2.89v-.6h.81v.6h2.52ZM447.08,129.86c.31.02.56.02.69.02.18,0,.26-.01.35-.11.19-.2.33-.9.45-2.71h-6.02c-.11.11-.23.23-.34.34h.32v1.9h4.54v.55ZM442.42,123.97h5.3v-.73h-5.3v.73ZM442.42,125.24h5.3v-.75h-5.3v.75ZM445.41,127.18c-.09.23-.2.44-.33.65.56.31,1.22.7,1.57.98l-.43.46c-.33-.28-.95-.68-1.49-1-.36.38-.8.69-1.27.93-.11-.12-.35-.34-.51-.44.81-.37,1.51-.94,1.79-1.68l.65.1Z"
      fill="#000" stroke-width="0" />
    <path
      d="M458.68,122.71v1.44h2.09v3.98c0,.34-.07.55-.29.67-.23.11-.56.12-1.07.12-.02-.2-.14-.5-.24-.68.33.01.61.01.7,0,.1,0,.13-.03.13-.12v-3.23h-1.33v5.64h-.75v-5.64h-1.23v4.03h-.74v-4.74c-.07.1-.14.19-.21.28-.13-.13-.47-.36-.66-.48v2.97h-2.62v2.06c.53-.13,1.1-.28,1.68-.42-.19-.33-.41-.66-.62-.95l.63-.3c.59.77,1.18,1.79,1.4,2.48l-.69.33c-.08-.28-.22-.61-.38-.96-1.14.33-2.33.66-3.25.91l-.25-.75c.22-.05.47-.11.75-.18v-5.73c-.14.13-.3.26-.45.4-.11-.17-.35-.42-.52-.52,1.06-.83,1.78-1.95,2.19-2.82h.78c.67.56,1.44,1.35,1.8,1.91l-.54.61c-.32-.51-.95-1.29-1.55-1.83-.37.67-.91,1.46-1.66,2.19h1.38v-1.04h.7v1.04h1.22v.56c.74-.83,1.29-2.13,1.61-3.45l.8.17c-.11.44-.25.89-.41,1.31h3.88v.75h-2.3ZM452.48,123.98v.87h1.89v-.87h-1.89ZM454.37,126.3v-.88h-1.89v.88h1.89ZM457.94,122.71h-1.14c-.24.54-.52,1.02-.81,1.44h1.96v-1.44Z"
      fill="#000" stroke-width="0" />
    <path
      d="M471.96,129.91h-8.55v.64h-.81v-9.38h9.11v.78h-8.29v7.2h8.55v.77ZM469.97,128.24c-.52-.66-1.32-1.44-2.24-2.23-.92,1.03-1.95,1.94-2.99,2.64-.14-.17-.46-.47-.66-.63,1.09-.66,2.12-1.52,3.04-2.52-.84-.67-1.74-1.31-2.57-1.85l.57-.52c.81.51,1.69,1.12,2.52,1.76.66-.8,1.23-1.66,1.69-2.56l.78.26c-.53.99-1.16,1.93-1.85,2.79.96.77,1.8,1.56,2.35,2.23l-.64.62Z"
      fill="#000" stroke-width="0" />
  </g>
  <g id="adachi" data-js-ward-select="adachi" class="c-ward-map__item">
    <path
      d="M463.08,86.17v5.43h-16.56c-.13,0-.26.05-.35.15l-21.98,21.98h-18.08v-4.05c0-.28-.22-.5-.5-.5h-14.59c-.28,0-.5.22-.5.5v14.21c0,.13.05.26.15.35l14.23,14.24-7.78,7.78h-29.13l-27.21-27.2c-.05-.05-.11-.08-.17-.11-.04-.02-.08-.02-.12-.02-.02-.01-.04-.02-.07-.02h-36.84v-18.36c0-.06-.01-.13-.04-.19-.02-.06-.06-.11-.11-.16l-21.93-21.94v-6.66h9.66c.14,0,.26-.06.36-.15l21.46-21.46c.09-.1.14-.22.14-.35v-14.41c0-.13-.05-.25-.14-.35l-14.76-14.76,19.12-19.12h13.71l21.59,21.6c.09.09.22.15.35.15h50.33v17.85c0,.27.23.5.5.5h22.79c.27,0,.5-.23.5-.5v-7.98h14.06l7.69,7.7-3.88,3.88c-.1.09-.15.22-.15.35v23.16c0,.13.05.26.15.35l18.1,18.11Z"
      fill="#f9f9f9" stroke-width="0" />
    <path
      d="M356.71,76.51c.58.12,1.22.17,1.91.17.34,0,2.21,0,2.67-.01-.12.2-.25.56-.3.79h-2.42c-2.33,0-4.02-.42-5.06-2.32-.36.98-.9,1.87-1.68,2.47-.13-.17-.41-.44-.57-.55,1.3-1,1.83-2.85,1.98-4.42l.87.1c-.07.45-.15.91-.27,1.38.44,1.16,1.13,1.82,2.05,2.17v-4.46h-3.27v-3.73h7.48v3.73h-3.39v1.69h3.69v.76h-3.69v2.23ZM353.43,71.04h5.83v-2.16h-5.83v2.16Z"
      fill="#000" stroke-width="0" />
    <path
      d="M372.15,76.32v.8h-9.79v-.8h5.56c.55-1.41,1.17-3.69,1.49-5.3l.92.18c-.42,1.67-1.03,3.74-1.56,5.13h3.39ZM371.83,70.5h-9.11v-.79h4.08v-2.15h.84v2.15h4.19v.79ZM365.21,75.77c-.05-1.21-.47-3.07-1.01-4.49l.76-.2c.58,1.44.99,3.26,1.08,4.49l-.83.2Z"
      fill="#000" stroke-width="0" />
    <path
      d="M383.17,76.98h-8.55v.64h-.81v-9.38h9.11v.78h-8.29v7.2h8.55v.77ZM381.18,75.31c-.52-.66-1.32-1.44-2.24-2.23-.92,1.03-1.95,1.94-2.99,2.64-.14-.17-.46-.47-.66-.63,1.09-.66,2.12-1.52,3.04-2.52-.84-.67-1.74-1.31-2.57-1.85l.57-.52c.81.51,1.69,1.12,2.52,1.76.66-.8,1.23-1.66,1.69-2.56l.78.26c-.53.99-1.16,1.93-1.85,2.79.96.77,1.8,1.56,2.35,2.23l-.64.62Z"
      fill="#000" stroke-width="0" />
  </g>
  <g id="kita" data-js-ward-select="kita" class="c-ward-map__item">
    <path
      d="M323.6,148.73l-10.09,10.08h-17.67l-21.25-21.25c-.09-.09-.22-.14-.35-.14h-20.75v-28.79c0-.06-.01-.13-.03-.19-.03-.06-.07-.11-.11-.16l-42.63-42.63v-29.21l17.92,17.93c.09.09.22.15.35.15h39.99l5.94,5.93v10.65c0,.27.23.5.5.5h5.08v6.87c0,.13.05.26.14.35l21.94,21.94v26.74c0,.14.05.26.15.36l20.87,20.87Z"
      fill="#f9f9f9" stroke-width="0" />
    <path
      d="M261.4,89.34h.83v9.74h-.83v-2.46c-.99.43-1.98.85-2.77,1.18l-.38-.83c.8-.25,1.98-.72,3.16-1.17v-3.08h-2.82v-.8h2.82v-2.58ZM267.08,98.13c.51,0,.58-.47.66-2.29.2.17.55.33.78.39-.1,1.99-.32,2.71-1.39,2.71h-1.76c-1.02,0-1.31-.33-1.31-1.5v-8.09h.83v3.63c1.02-.62,2.06-1.34,2.72-1.97l.61.7c-.91.73-2.17,1.46-3.32,2.11v3.62c0,.57.1.68.57.68h1.62Z"
      fill="#000" stroke-width="0" />
    <path
      d="M279.27,98.56h-8.55v.64h-.81v-9.38h9.11v.78h-8.29v7.2h8.55v.77ZM277.28,96.89c-.52-.66-1.32-1.44-2.24-2.23-.92,1.03-1.95,1.94-2.99,2.64-.14-.17-.46-.47-.66-.63,1.09-.66,2.12-1.52,3.04-2.52-.84-.67-1.74-1.31-2.57-1.85l.57-.52c.81.51,1.69,1.12,2.52,1.76.66-.8,1.23-1.66,1.69-2.56l.78.26c-.53.99-1.16,1.93-1.85,2.79.96.77,1.8,1.56,2.35,2.23l-.64.62Z"
      fill="#000" stroke-width="0" />
  </g>
  <g id="itabashi" data-js-ward-select="itabashi" class="c-ward-map__item">
    <path
      d="M252.49,108.84v28.58h-17.03c-.13,0-.26.05-.35.14l-10.29,10.29-8.98-8.97c-.09-.09-.22-.15-.35-.15h-10.35c-.13,0-.26.06-.36.15l-12.4,12.41v-8.75c0-.13-.05-.26-.15-.35l-12.76-12.76v-21.63c0-.13-.05-.26-.14-.35l-15.25-15.25c-.09-.09-.22-.15-.35-.15h-44.03l-6.58-6.57v-9.3c0-.28-.22-.5-.5-.5h-9.01v-6.64l33.31-33.31h72.8v30.13c0,.13.05.26.15.35l42.62,42.63Z"
      fill="#f9f9f9" stroke-width="0" />
    <path
      d="M153.01,70.03c-.19-.36-.63-1.05-1-1.58v5.01h-.78v-5.19c-.4,1.23-.92,2.43-1.47,3.16-.09-.22-.29-.55-.42-.74.72-.92,1.44-2.64,1.79-4.15h-1.54v-.76h1.64v-2.35h.78v2.35h1.42v.76h-1.42v.96c.34.38,1.29,1.6,1.51,1.89l-.51.65ZM159.22,67.04c-.33,1.74-.96,3.14-1.78,4.21.6.67,1.33,1.21,2.18,1.55-.18.17-.43.47-.55.68-.83-.39-1.54-.95-2.13-1.64-.65.69-1.4,1.22-2.19,1.61-.1-.19-.33-.5-.51-.65.8-.33,1.55-.87,2.2-1.57-.7-1-1.23-2.21-1.61-3.58h-.06c-.04,1.8-.3,4.17-1.52,5.78-.13-.14-.47-.4-.65-.48,1.25-1.68,1.38-4.05,1.38-5.79v-3.07h5.36v.76h-4.57v2.06h3.81l.14-.02.5.15ZM155.56,67.66c.32,1.1.77,2.11,1.38,2.96.6-.81,1.08-1.82,1.38-2.96h-2.75Z"
      fill="#000" stroke-width="0" />
    <path
      d="M162.8,67.38c.3.41,1.09,1.63,1.28,1.91l-.44.6c-.15-.35-.53-1.03-.84-1.58v5.14h-.75v-5.03c-.35,1.16-.8,2.28-1.27,2.97-.1-.21-.3-.53-.43-.71.66-.91,1.31-2.63,1.62-4.13h-1.39v-.76h1.46v-2.38h.75v2.38h1.21v.76h-1.21v.83ZM168.6,65.91c.52.69,1.29,1.32,2.04,1.66-.17.13-.4.4-.52.59-.38-.21-.78-.51-1.14-.85v1.3h-3.51v-1.29c-.34.32-.73.6-1.18.87-.11-.19-.33-.44-.51-.54.88-.47,1.52-1.09,1.97-1.75h-1.63v-.65h2c.11-.23.21-.47.28-.7-.65.04-1.3.07-1.89.08-.02-.15-.11-.42-.19-.56,1.71-.06,3.82-.22,4.94-.48l.48.55c-.68.15-1.58.27-2.54.36-.08.25-.17.51-.28.76h3.45v.65h-1.78ZM170.19,72.62c0,.38-.08.59-.36.71-.29.11-.74.12-1.42.12-.04-.2-.15-.5-.26-.68.52.02.97.02,1.11.01.14-.01.19-.04.19-.17v-2.85h-4.43v3.7h-.76v-4.35h5.94v3.5ZM166.43,72.4v.48h-.62v-2.52h2.81v2.03h-2.19ZM166.59,65.91c-.13.23-.27.45-.44.67h2.13c-.17-.22-.33-.44-.46-.67h-1.23ZM168.24,67.12h-2.08v.96h2.08v-.96ZM166.43,70.89v.97h1.56v-.97h-1.56Z"
      fill="#000" stroke-width="0" />
    <path
      d="M181.41,72.85h-8.55v.64h-.81v-9.38h9.11v.78h-8.29v7.2h8.55v.77ZM179.42,71.18c-.52-.66-1.32-1.44-2.24-2.23-.92,1.03-1.95,1.94-2.99,2.64-.14-.17-.46-.47-.66-.63,1.09-.66,2.12-1.52,3.04-2.52-.84-.67-1.74-1.31-2.57-1.85l.57-.52c.81.51,1.69,1.12,2.52,1.76.66-.8,1.23-1.66,1.69-2.56l.78.26c-.53.99-1.16,1.93-1.85,2.79.96.77,1.8,1.56,2.35,2.23l-.64.62Z"
      fill="#000" stroke-width="0" />
  </g>
  <g id="ota" data-js-ward-select="ota" class="c-ward-map__item">
    <path
      d="M394.91,505.33l-25.85,25.84-19.66-19.68c-.1-.09-.22-.15-.36-.15h-87.81c-.13,0-.26.06-.35.15l-12.56,12.56h-23.09v-39.46c0-.27-.22-.5-.5-.5h-18.63l-25.2-25.18v-34.32c0-.27-.22-.5-.5-.5h-29.08l-9.74-9.73h36.84c.07,0,.13-.02.19-.04.07-.03.12-.06.17-.11l17.45-17.45s.08-.1.1-.16c.03-.06.04-.13.04-.19v-14.37h10.16l8.95,8.95v15.1c0,.28.23.5.5.5h26.03l22.69,22.69c.05.05.1.08.16.11.07.03.13.04.2.04h46.05c.07,0,.13-.01.19-.04.07-.03.12-.06.17-.11l17.39-17.38,23.86,23.85-11.32,11.33h-28.78c-.2,0-.38.12-.46.3-.08.19-.03.41.11.55l15.42,15.42c.05.04.1.08.16.11.06.02.13.04.19.04h25.03l41.84,41.83Z"
      fill="#f9f9f9" stroke-width="0" />
    <path
      d="M253.76,461.57c.77,2.42,2.2,4.41,4.32,5.28-.2.19-.47.53-.62.77-2.11-1-3.51-2.95-4.38-5.45-.53,2.11-1.72,4.22-4.39,5.45-.12-.22-.38-.51-.62-.67,2.73-1.19,3.83-3.3,4.28-5.38h-4.06v-.84h4.19c.17-1.16.15-2.25.17-3.12h.88c-.01.88-.02,1.97-.18,3.12h4.54v.84h-4.15Z"
      fill="#000" stroke-width="0" />
    <path
      d="M268.52,458.36v9.19h-.84v-.67h-7.21v.67h-.8v-9.19h8.85ZM260.48,459.15v3h3.12v-3h-3.12ZM260.48,466.06h3.12v-3.09h-3.12v3.09ZM267.68,459.15h-3.27v3h3.27v-3ZM267.68,466.06v-3.09h-3.27v3.09h3.27Z"
      fill="#000" stroke-width="0" />
    <path
      d="M280,467.02h-8.55v.64h-.81v-9.38h9.11v.78h-8.29v7.2h8.55v.77ZM278.01,465.35c-.52-.66-1.32-1.44-2.24-2.23-.92,1.04-1.95,1.94-2.99,2.64-.14-.16-.46-.47-.66-.63,1.09-.66,2.12-1.52,3.04-2.52-.84-.67-1.74-1.31-2.57-1.85l.57-.52c.81.51,1.69,1.12,2.52,1.76.66-.8,1.23-1.66,1.69-2.56l.78.26c-.53.99-1.16,1.93-1.85,2.79.96.77,1.8,1.56,2.35,2.23l-.64.62Z"
      fill="#000" stroke-width="0" />
  </g>
  <g id="shinagawa" data-js-ward-select="shinagawa" class="c-ward-map__item">
    <path
      d="M328.15,411.19l-17.24,17.24h-45.65l-22.69-22.69c-.09-.09-.22-.15-.35-.15h-25.74v-14.8c0-.14-.05-.26-.14-.36l-6.17-6.17,30.43-30.43c.09-.09.15-.22.15-.35v-21.27l31.26,31.27c.09.09.22.14.35.14h23.64c.13,0,.26-.05.35-.14l10.89-10.89h4.88v42.37c0,.06.02.12.04.19.03.06.06.11.11.16l15.88,15.88Z"
      fill="#f9f9f9" stroke-width="0" />
    <path
      d="M250.5,388.31h3.88v4.69h-.8v-.5h-2.3v.59h-.78v-4.79ZM251.28,389.11v2.61h2.3v-2.61h-2.3ZM258.08,387.16h-5.98v-3.64h5.98v3.64ZM257.25,384.3h-4.37v2.08h4.37v-2.08ZM259.67,388.31v4.71h-.8v-.52h-2.5v.59h-.79v-4.79h4.09ZM258.87,391.71v-2.61h-2.5v2.61h2.5Z"
      fill="#000" stroke-width="0" />
    <path
      d="M263.16,383.65v3.72c0,2.09-.17,4.18-1.58,5.81-.14-.19-.47-.44-.67-.57,1.29-1.47,1.43-3.37,1.43-5.25v-3.71h.83ZM266.64,384.1v8.03h-.83v-8.03h.83ZM270.32,383.62v9.46h-.84v-9.46h.84Z"
      fill="#000" stroke-width="0" />
    <path
      d="M281.98,392.47h-8.55v.64h-.81v-9.38h9.11v.78h-8.29v7.2h8.55v.77ZM279.99,390.8c-.52-.66-1.32-1.44-2.24-2.23-.92,1.03-1.95,1.94-2.99,2.64-.14-.17-.46-.47-.66-.63,1.09-.66,2.12-1.52,3.04-2.52-.84-.67-1.74-1.31-2.57-1.85l.57-.52c.81.51,1.69,1.12,2.52,1.76.66-.8,1.23-1.66,1.69-2.56l.78.26c-.53.99-1.16,1.93-1.85,2.79.96.77,1.8,1.56,2.35,2.23l-.64.62Z"
      fill="#000" stroke-width="0" />
  </g>
  <g id="minato" data-js-ward-select="minato" class="c-ward-map__item">
    <path
      d="M320.81,305.53l-8.54,8.54c-.05.05-.08.1-.11.16-.02.06-.04.13-.04.19v37.17h-5.09c-.13,0-.26.05-.35.15l-10.89,10.88h-23.22l-31.62-31.61,19.16-19.16c.19-.19.19-.51,0-.71l-24.24-24.23,11.97-11.98c.1-.09.15-.22.15-.35v-11.84l7.12-7.12h13.26l21.25,21.25c.09.09.22.15.35.15h17.93l7.96,7.96v15.38c0,.14.05.26.14.36l4.81,4.81Z"
      fill="#f9f9f9" stroke-width="0" />
    <path
      d="M274.46,312.55c-.39-.36-1.2-.85-1.88-1.16l.46-.61c.66.28,1.48.73,1.89,1.09l-.47.67ZM280.79,311.77c.48.92,1.29,1.79,2.11,2.23-.19.14-.44.44-.57.64-.56-.35-1.11-.9-1.56-1.54v2.3h-3.38v1.29c0,.31.13.37.84.37h2.4c.57,0,.67-.15.73-1.24.19.13.51.25.73.29-.11,1.38-.37,1.68-1.4,1.68h-2.5c-1.21,0-1.55-.21-1.55-1.09v-1.97h3.39v-1.18h-2.89v-.44c-.48.66-1.05,1.24-1.61,1.64-.08-.12-.2-.26-.32-.38-.48,1.1-1.08,2.34-1.6,3.3l-.73-.51c.52-.84,1.25-2.27,1.79-3.51l.47.36c.74-.51,1.49-1.38,1.95-2.24h-1.96v-.74h1.94v-1.29h-1.47v-.73h1.47v-1.23h.79v1.23h2.13v-1.23h.79v1.23h1.64v.73h-1.64v1.29h1.95v.74h-1.95ZM275,309.69c-.39-.38-1.19-.91-1.86-1.23l.47-.59c.65.3,1.47.78,1.86,1.18l-.47.65ZM280.61,312.89c-.24-.36-.45-.74-.62-1.12h-2.09c-.17.38-.38.76-.63,1.12h3.33ZM277.86,311.03h2.13v-1.29h-2.13v1.29Z"
      fill="#000" stroke-width="0" />
    <path
      d="M293.59,317.19h-8.55v.64h-.81v-9.38h9.11v.78h-8.29v7.2h8.55v.77ZM291.6,315.52c-.52-.66-1.32-1.44-2.24-2.23-.92,1.03-1.95,1.94-2.99,2.64-.14-.17-.46-.47-.66-.63,1.09-.66,2.12-1.52,3.04-2.52-.84-.67-1.74-1.31-2.57-1.85l.57-.52c.81.51,1.69,1.12,2.52,1.76.66-.8,1.23-1.66,1.69-2.56l.78.26c-.53.99-1.16,1.93-1.85,2.79.96.77,1.8,1.56,2.35,2.23l-.64.62Z"
      fill="#000" stroke-width="0" />
  </g>
  <g id="shinjyuku" data-js-ward-select="shinjyuku" class="c-ward-map__item">
    <path
      d="M291.02,216.79l-22.8,22.8c-.09.09-.15.22-.15.35v14.68h-13.17c-.13,0-.26.05-.35.14l-7.06,7.06-19.77-19.77c-.05-.05-.1-.08-.16-.11-.07-.02-.13-.04-.2-.04h-39.85l13.84-13.84c.09-.1.15-.22.15-.36v-29.23c0-.13-.06-.26-.15-.35l-8.97-8.98v-14.1h36.73v22.55c0,.27.22.5.5.5h42.71l18.7,18.7Z"
      fill="#f9f9f9" stroke-width="0" />
    <path
      d="M226.79,224.8c-.23-.28-.79-.81-1.25-1.23v2.79h-.79v-2.89c-.54.85-1.22,1.64-1.84,2.12-.13-.19-.37-.45-.55-.59.79-.52,1.66-1.51,2.21-2.48h-1.97v-.69h2.15v-1.15h-2.18v-.69h5.1v.69h-2.13v1.15h2.05v.69h-2.05v.26c.42.31,1.48,1.18,1.74,1.41l-.48.61ZM227.54,218.18h-4.82v-.68h2.02v-1.11h.79v1.11h2v.68ZM223.81,219.97c-.04-.43-.22-1.09-.43-1.58l.64-.17c.23.5.42,1.14.47,1.56l-.68.19ZM225.61,219.8c.2-.44.45-1.12.55-1.6l.75.18c-.21.55-.43,1.17-.64,1.56l-.66-.14ZM232.52,220.8h-1.23v5.52h-.8v-5.52h-1.64v.28c0,1.64-.21,3.84-1.75,5.37-.1-.18-.4-.46-.58-.57,1.4-1.36,1.55-3.27,1.55-4.81v-3.83l.59.19c1.12-.24,2.35-.59,3.06-.95l.66.6c-.94.42-2.31.75-3.53.99v1.96h3.67v.77Z"
      fill="#000" stroke-width="0" />
    <path
      d="M236.72,218.85c-.25.55-.56,1.1-.9,1.62v5.92h-.78v-4.86c-.4.47-.83.91-1.24,1.27-.1-.17-.36-.54-.52-.72,1.07-.83,2.08-2.12,2.7-3.47l.75.24ZM234.76,219.22h-.8v-1.94h4.13v-.94h.81v.94h4.19v1.79h-.83v-1.05h-7.5v1.19ZM240.35,220.05c-.12.4-.25.8-.37,1.16h2.72v5.17h-.79v-.38h-3.8v.42h-.77v-5.2h1.84c.11-.36.21-.78.27-1.16h-2.64v-.74h6.34v.74h-2.79ZM241.9,221.92h-3.8v1.25h3.8v-1.25ZM241.9,225.27v-1.42h-3.8v1.42h3.8Z"
      fill="#000" stroke-width="0" />
    <path
      d="M254.43,225.77h-8.55v.64h-.81v-9.38h9.11v.78h-8.29v7.2h8.55v.77ZM252.44,224.1c-.52-.66-1.32-1.44-2.24-2.23-.92,1.03-1.95,1.94-2.99,2.64-.14-.17-.46-.47-.66-.63,1.09-.66,2.12-1.52,3.04-2.52-.84-.67-1.74-1.31-2.57-1.85l.57-.52c.81.51,1.69,1.12,2.52,1.76.66-.8,1.23-1.66,1.69-2.56l.78.26c-.53.99-1.16,1.93-1.85,2.79.96.77,1.8,1.56,2.35,2.23l-.64.62Z"
      fill="#000" stroke-width="0" />
  </g>
  <g id="shibuya" data-js-ward-select="shibuya" class="c-ward-map__item">
    <path
      d="M259.05,311.5l-18.8,18.8-40.3-40.3c-.05-.05-.11-.08-.17-.11-.06-.02-.12-.04-.19-.04h-15.05v-6.46c0-.14-.05-.26-.14-.36l-10.34-10.34c-.1-.09-.22-.14-.36-.14h-16.84l12.68-12.68,16.97-16.97h40.65l19.83,19.84v11.63l-12.18,12.18c-.2.2-.2.51,0,.71l24.24,24.24Z"
      fill="#f9f9f9" stroke-width="0" />
    <path
      d="M192.91,270.63c-.43-.37-1.29-.87-2-1.17l.45-.62c.69.27,1.57.74,2.01,1.1l-.46.68ZM193.8,272.14c-.54,1.17-1.27,2.54-1.87,3.56l-.69-.52c.55-.86,1.35-2.3,1.95-3.55l.62.51ZM193.44,267.74c-.41-.4-1.25-.91-1.95-1.23l.44-.59c.7.3,1.56.78,1.98,1.18l-.47.65ZM193.64,275.1c.75-.41,1.88-1.09,2.96-1.77l.25.71c-.92.62-1.94,1.27-2.74,1.75l-.47-.69ZM200.99,269.53v.78h-7.32v-.78h1.32v-2.79h.76v2.79h1.44v-3.72h.79v1.52h2.59v.76h-2.59v1.44h3ZM196.04,272.83c-.33-.51-1.04-1.25-1.67-1.77l.59-.44c.63.49,1.38,1.21,1.72,1.72l-.64.5ZM198.29,273.28c.92.55,2.12,1.39,2.7,1.96l-.57.63c-.56-.59-1.73-1.45-2.67-2.04l.55-.55ZM200.51,270.96c-.62.66-1.42,1.4-2.05,1.87l-.58-.41c.6-.5,1.42-1.32,1.89-1.93l.74.46Z"
      fill="#000" stroke-width="0" />
    <path
      d="M207.28,267.88c1.14,1.69,3.06,3.26,4.76,4.05-.2.2-.39.47-.52.7-.47-.25-.97-.56-1.45-.91v4.13h-.85v-.43h-4.49v.45h-.81v-4.14c-.47.35-.97.68-1.47.96-.1-.18-.32-.46-.51-.64,1.88-.98,3.69-2.68,4.54-4.17h.79ZM205.9,266.34c-.77,1.09-1.91,2.18-2.94,2.87-.13-.15-.46-.45-.65-.57,1.05-.63,2.12-1.6,2.78-2.59l.8.29ZM209.73,271.48c-1.11-.84-2.15-1.84-2.81-2.79-.58.91-1.55,1.93-2.66,2.79h5.47ZM209.22,274.69v-2.49h-4.49v2.49h4.49ZM210.9,269.11c-.58-.76-1.86-1.88-2.93-2.64l.63-.44c1.06.73,2.35,1.82,2.97,2.57l-.67.51Z"
      fill="#000" stroke-width="0" />
    <path
      d="M222.89,275.24h-8.55v.64h-.81v-9.38h9.11v.78h-8.29v7.2h8.55v.77ZM220.9,273.57c-.52-.66-1.32-1.44-2.24-2.23-.92,1.03-1.95,1.94-2.99,2.64-.14-.17-.46-.47-.66-.63,1.09-.66,2.12-1.52,3.04-2.52-.84-.67-1.74-1.31-2.57-1.85l.57-.52c.81.51,1.69,1.12,2.52,1.76.66-.8,1.23-1.66,1.69-2.56l.78.26c-.53.99-1.16,1.93-1.85,2.79.96.77,1.8,1.56,2.35,2.23l-.64.62Z"
      fill="#000" stroke-width="0" />
  </g>
  <g id="meguro" data-js-ward-select="meguro" class="c-ward-map__item">
    <path
      d="M239.75,331.21v22.06l-30.29,30.29-2.37-2.37c-.09-.1-.22-.15-.35-.15h-10.87c-.27,0-.5.22-.5.5v14.37h-25.04l-7.85-7.85v-44.04h9.93l7.34,7.34c.1.09.22.14.36.14.13,0,.25-.05.35-.14l15.77-15.77c.09-.1.14-.22.14-.36v-24.45c0-.13-.05-.26-.14-.35l-11.69-11.68v-7.9h14.84l40.37,40.36Z"
      fill="#f9f9f9" stroke-width="0" />
    <path
      d="M195.45,351.95v9.3h-.85v-.75h-5.75v.75h-.8v-9.3h7.4ZM188.85,352.74v1.78h5.75v-1.78h-5.75ZM188.85,355.3v1.8h5.75v-1.8h-5.75ZM194.6,359.69v-1.8h-5.75v1.8h5.75Z"
      fill="#000" stroke-width="0" />
    <path
      d="M197.88,360.98c.55-.4,1.02-1.12,1.29-1.84l.76.19c-.25.76-.73,1.54-1.32,2l-.73-.35ZM207.66,358.81h-9.74v-.7h4.42v-.92h-3.5v-.67h3.5v-.79h-3.23v-4.08h7.39v4.08h-3.36v.79h3.69v.67h-3.69v.92h4.51v.7ZM199.89,353.36h2.45v-1.07h-2.45v1.07ZM202.34,355.06v-1.08h-2.45v1.08h2.45ZM201.81,359.38c.13.56.23,1.31.23,1.76l-.78.09c-.01-.45-.08-1.2-.2-1.79l.75-.05ZM205.7,352.29h-2.55v1.07h2.55v-1.07ZM205.7,353.98h-2.55v1.08h2.55v-1.08ZM204.04,359.32c.24.54.52,1.29.62,1.73l-.79.19c-.1-.46-.34-1.2-.58-1.77l.76-.14ZM206.25,359.14c.53.56,1.16,1.34,1.45,1.86l-.79.31c-.26-.51-.88-1.31-1.41-1.89l.75-.28Z"
      fill="#000" stroke-width="0" />
    <path
      d="M218.7,360.68h-8.55v.64h-.81v-9.38h9.11v.78h-8.29v7.2h8.55v.77ZM216.71,359.01c-.52-.66-1.32-1.44-2.24-2.23-.92,1.03-1.95,1.94-2.99,2.64-.14-.17-.46-.47-.66-.63,1.09-.66,2.12-1.52,3.04-2.52-.84-.67-1.74-1.31-2.57-1.85l.57-.52c.81.51,1.69,1.12,2.52,1.76.66-.8,1.23-1.66,1.69-2.56l.78.26c-.53.99-1.16,1.92-1.85,2.79.96.77,1.8,1.56,2.35,2.23l-.64.62Z"
      fill="#000" stroke-width="0" />
  </g>
  <g id="nakano" data-js-ward-select="nakano" class="c-ward-map__item">
    <path
      d="M200.5,198.68v28.82l-30.82,30.81v-28.16c0-.13-.05-.26-.14-.35l-61.27-61.27h54.8c.06,0,.13,0,.19-.03.06-.03.11-.07.16-.11l10.8-10.8,17.16,17.16v14.6c0,.07.01.13.04.19.02.06.06.12.11.17l8.97,8.97Z"
      fill="#f9f9f9" stroke-width="0" />
    <path
      d="M160.07,193.58v5.15h-.84v-.63h-3.16v3.56h-.85v-3.56h-3.15v.68h-.8v-5.2h3.95v-1.96h.85v1.96h3.99ZM155.23,197.3v-2.92h-3.15v2.92h3.15ZM159.24,197.3v-2.92h-3.16v2.92h3.16Z"
      fill="#000" stroke-width="0" />
    <path
      d="M164.77,200.06c.73-.1,1.49-.2,2.23-.31l.02.73c-1.89.29-3.89.57-5.27.78l-.1-.8c.64-.07,1.44-.18,2.32-.3v-1.6h-1.98v-.75h1.98v-1.24h-1.96v-4.4h4.72v4.4h-1.97v1.24h1.97v.75h-1.97v1.5ZM162.71,194.06h1.31v-1.2h-1.31v1.2ZM162.71,195.89h1.31v-1.2h-1.31v1.2ZM166.02,192.86h-1.3v1.2h1.3v-1.2ZM166.02,194.7h-1.3v1.2h1.3v-1.2ZM171.8,195.83c-.28.91-.61,1.95-.92,2.6l-.67-.19c.2-.44.44-1.1.63-1.75h-1.3v4.19c0,.46-.1.7-.44.85-.33.13-.89.14-1.71.14-.03-.24-.15-.57-.28-.81.65.02,1.22.02,1.4.01.18,0,.22-.06.22-.21v-4.17h-1.77v-.77h2.86c-.59-.55-1.49-1.19-2.3-1.61l.52-.49c.36.18.74.4,1.1.65.43-.39.87-.87,1.21-1.33h-3.25v-.74h3.82l.18-.04.53.37c-.48.74-1.21,1.54-1.91,2.13.38.27.73.57.97.81l-.23.24h.67l.13-.03.55.14Z"
      fill="#000" stroke-width="0" />
    <path
      d="M182.61,201.05h-8.55v.64h-.81v-9.38h9.11v.78h-8.29v7.2h8.55v.77ZM180.62,199.38c-.52-.66-1.32-1.44-2.24-2.23-.92,1.03-1.95,1.94-2.99,2.64-.14-.17-.46-.47-.66-.63,1.09-.66,2.12-1.52,3.04-2.52-.84-.67-1.74-1.31-2.57-1.85l.57-.52c.81.51,1.69,1.12,2.52,1.76.66-.8,1.23-1.66,1.69-2.56l.78.26c-.53.99-1.16,1.93-1.85,2.79.96.77,1.8,1.56,2.35,2.23l-.64.62Z"
      fill="#000" stroke-width="0" />
  </g>
  <g id="setagaya" data-js-ward-select="setagaya" class="c-ward-map__item">
    <path
      d="M195.37,310.99v24.04l-15.26,15.26-7.14-7.13c-.09-.09-.22-.14-.35-.14h-10.64c-.27,0-.5.22-.5.5v44.75c0,.13.06.26.15.35l8.14,8.14c.09.09.22.15.35.15h24.55l-16.45,16.45h-37.64l-37.96-37.96c-.1-.09-.22-.15-.36-.15h-35.65l-11.32-11.31v-87.86c0-.13-.05-.25-.14-.35l-9.58-9.58v-13.28h28.54l32.56,32.55c.09.1.22.15.35.15h21.88c.14,0,.26-.05.36-.15l11.87-11.87h32.37l10.04,10.04v15.36c0,.13.06.26.15.36l11.68,11.68Z"
      fill="#f9f9f9" stroke-width="0" />
    <path
      d="M97.23,332.87v-.48h-2.07v.54h-.8v-3.61h-2.05v4.93h7.06v.79h-7.06v.8h-.84v-6.52h-1.64v-.78h1.64v-2.44h.84v2.44h2.05v-2.67h.8v2.67h2.07v-2.54h.81v2.54h1.71v.78h-1.71v3.55h-.81ZM97.23,331.61v-2.3h-2.07v2.3h2.07Z"
      fill="#000" stroke-width="0" />
    <path
      d="M110.22,326.56v9.19h-.84v-.67h-7.21v.67h-.8v-9.19h8.85ZM102.18,327.35v3h3.12v-3h-3.12ZM102.18,334.26h3.12v-3.09h-3.12v3.09ZM109.38,327.35h-3.27v3h3.27v-3ZM109.38,334.26v-3.09h-3.27v3.09h3.27Z"
      fill="#000" stroke-width="0" />
    <path
      d="M117.09,327.86c1.14,1.69,3.06,3.26,4.76,4.05-.2.2-.39.47-.52.7-.47-.25-.97-.56-1.45-.91v4.13h-.85v-.43h-4.49v.45h-.81v-4.14c-.47.35-.97.68-1.47.96-.1-.18-.32-.46-.51-.64,1.88-.98,3.69-2.68,4.54-4.17h.79ZM115.72,326.32c-.77,1.09-1.91,2.18-2.94,2.87-.13-.15-.46-.45-.65-.57,1.05-.63,2.12-1.6,2.78-2.59l.8.29ZM119.55,331.46c-1.11-.84-2.15-1.84-2.81-2.79-.58.91-1.55,1.92-2.66,2.79h5.47ZM119.04,334.67v-2.49h-4.49v2.49h4.49ZM120.71,329.09c-.58-.76-1.86-1.88-2.93-2.64l.63-.44c1.06.73,2.35,1.82,2.97,2.57l-.67.51Z"
      fill="#000" stroke-width="0" />
    <path
      d="M132.7,335.22h-8.55v.64h-.81v-9.38h9.11v.78h-8.29v7.2h8.55v.77ZM130.71,333.55c-.52-.66-1.32-1.44-2.24-2.23-.92,1.03-1.95,1.94-2.99,2.64-.14-.17-.46-.47-.66-.63,1.09-.66,2.12-1.52,3.04-2.52-.84-.67-1.74-1.31-2.57-1.85l.57-.52c.81.51,1.69,1.12,2.52,1.76.66-.8,1.23-1.66,1.69-2.56l.78.26c-.53.99-1.16,1.93-1.85,2.79.96.77,1.8,1.56,2.35,2.23l-.64.62Z"
      fill="#000" stroke-width="0" />
  </g>
  <g id="nerima" data-js-ward-select="nerima" class="c-ward-map__item">
    <path
      d="M191.38,142.75v30.58l-16.81-16.8c-.19-.2-.51-.2-.7,0l-11.01,11h-90.8c-.14,0-.26.06-.36.15l-30.77,30.77-23.41-23.4v-45.22c0-.14-.05-.26-.14-.36L1.2,113.29l41.41-41.42h27.81v17.29c0,.28.23.5.5.5h21.46c.14,0,.26-.05.36-.14l10.73-10.73c.09-.1.14-.22.14-.36v-1.75h8.51v9c0,.13.05.26.15.36l6.87,6.87c.09.09.22.14.35.14h44.03l14.95,14.96v21.62c0,.14.06.26.15.36l12.76,12.76Z"
      fill="#f9f9f9" stroke-width="0" />
    <path
      d="M79.04,128.98c-.15,1.03-.41,2.09-.76,2.79-.12-.1-.45-.24-.61-.3.34-.67.55-1.66.67-2.62l.69.12ZM80.23,128.04v4.63h-.73v-4.59l-1.73.11-.08-.74.76-.03c.22-.27.45-.58.68-.91-.32-.5-.87-1.12-1.36-1.6l.44-.52c.11.1.22.2.33.31.36-.63.75-1.46.98-2.07l.71.26c-.37.76-.85,1.65-1.27,2.27.23.24.43.48.59.7.45-.68.87-1.4,1.18-1.99l.68.32c-.63,1-1.45,2.24-2.2,3.18l1.58-.08c-.15-.32-.32-.64-.5-.92l.59-.24c.46.7.9,1.65,1.07,2.26l-.65.3c-.04-.21-.12-.45-.23-.7l-.87.06ZM81.16,130.94c-.06-.53-.27-1.33-.54-1.94l.59-.18c.27.6.51,1.4.58,1.93l-.64.19ZM85.47,129.14c.65.96,1.69,1.94,2.61,2.44-.18.15-.43.43-.56.63-.83-.54-1.75-1.47-2.42-2.45v2.9h-.78v-2.84c-.7,1.02-1.68,1.94-2.64,2.48-.12-.2-.36-.47-.55-.63,1.06-.51,2.17-1.51,2.84-2.53h-1.93v-3.77h2.28v-.91h-2.62v-.72h2.62v-1.1h.78v1.1h2.6v.72h-2.6v.91h2.35v3.77h-1.98ZM82.77,126.95h1.6v-.96h-1.6v.96ZM82.77,128.51h1.6v-.97h-1.6v.97ZM86.71,125.99h-1.65v.96h1.65v-.96ZM86.71,127.54h-1.65v.97h1.65v-.97Z"
      fill="#000" stroke-width="0" />
    <path
      d="M88.77,132.15c.68-.58,1.07-1.55,1.23-2.51l.73.2c-.21,1.02-.55,2.1-1.3,2.73l-.66-.42ZM98.57,128.46s-.01.24-.03.35c-.14,2.3-.31,3.2-.62,3.54-.19.21-.4.29-.7.31-.29.02-.84.02-1.4-.02-.02-.21-.1-.54-.22-.75.54.07,1.06.07,1.24.07.2,0,.31-.02.4-.11.2-.22.34-.91.46-2.66h-7.5v-6.02h7.68v.73h-3.52v1.08h3.15v.66h-3.15v1.08h3.15v.67h-3.15v1.08h4.21ZM90.99,123.89v1.08h2.56v-1.08h-2.56ZM93.55,125.63h-2.56v1.08h2.56v-1.08ZM90.99,128.46h2.56v-1.08h-2.56v1.08ZM92.28,129.91c.2.69.34,1.58.36,2.18l-.73.12c-.01-.59-.15-1.49-.34-2.19l.7-.11ZM94.1,129.81c.32.59.61,1.41.69,1.91l-.68.2c-.08-.51-.35-1.34-.64-1.97l.63-.14ZM96.17,131.31c-.17-.41-.56-1.06-.94-1.52l.59-.24c.4.45.8,1.08.97,1.47l-.63.29Z"
      fill="#000" stroke-width="0" />
    <path
      d="M109.76,132.05h-8.55v.64h-.81v-9.38h9.11v.78h-8.29v7.2h8.55v.77ZM107.77,130.38c-.52-.66-1.32-1.44-2.24-2.23-.92,1.03-1.95,1.94-2.99,2.64-.14-.17-.46-.47-.66-.63,1.09-.66,2.12-1.52,3.04-2.52-.84-.67-1.74-1.31-2.57-1.85l.57-.52c.81.51,1.69,1.12,2.52,1.76.66-.8,1.23-1.66,1.69-2.56l.78.26c-.53.99-1.16,1.93-1.85,2.79.96.77,1.8,1.56,2.35,2.23l-.64.62Z"
      fill="#000" stroke-width="0" />
  </g>
  <g id="suginami" data-js-ward-select="suginami" class="c-ward-map__item">
    <path
      d="M168.68,230.36v28.95l-13.23,13.24h-14.52c-.14,0-.26.05-.36.14l-11.87,11.88h-21.47l-32.56-32.56c-.05-.04-.1-.08-.16-.11-.06-.02-.13-.03-.19-.03h-28.04l6.43-6.43c.09-.1.14-.22.14-.36v-34.5c0-.14-.05-.26-.14-.36l-11.07-11.06,30.62-30.63h34.6l61.82,61.83Z"
      fill="#f9f9f9" stroke-width="0" />
    <path
      d="M91.67,227.25c-.24-.37-.78-1.07-1.22-1.6v5.56h-.79v-5.32c-.47,1.3-1.1,2.55-1.75,3.31-.09-.23-.3-.56-.44-.76.83-.91,1.66-2.62,2.07-4.14h-1.8v-.78h1.93v-2.35h.79v2.35h1.74v.78h-1.74v.43c.37.35,1.47,1.53,1.74,1.84l-.52.68ZM97.56,227.55c-1.11,1.64-3.01,2.95-5.15,3.71-.11-.2-.34-.48-.54-.65,2.05-.66,3.91-1.89,4.88-3.39l.8.33ZM96.71,221.6c-.94,1.16-2.41,2.26-3.8,2.94-.12-.19-.37-.44-.58-.6,1.3-.59,2.79-1.64,3.6-2.67l.78.34ZM97.11,224.5c-.98,1.3-2.55,2.45-4.1,3.18-.13-.2-.36-.46-.58-.63,1.48-.62,3.06-1.72,3.89-2.89l.79.34Z"
      fill="#000" stroke-width="0" />
    <path
      d="M108.5,229.91v.83h-9.76v-.83h3.28v-5.75h-2.99v-.79h2.52c-.18-.53-.63-1.33-1.06-1.89l.71-.29c.46.58.92,1.34,1.1,1.87l-.69.31h3.73l-.45-.17c.39-.55.86-1.41,1.12-2.02l.87.26c-.36.66-.81,1.4-1.2,1.93h2.53v.79h-3.06v5.75h3.34ZM100.28,225.22c.54,1.09.97,2.52,1.1,3.47l-.78.2c-.1-.95-.53-2.38-1.04-3.47l.73-.2ZM102.82,229.91h1.53v-5.75h-1.53v5.75ZM105.68,228.68c.43-.94.95-2.48,1.21-3.56l.86.21c-.37,1.2-.9,2.64-1.33,3.58l-.74-.22Z"
      fill="#000" stroke-width="0" />
    <path
      d="M119.54,230.59h-8.55v.64h-.81v-9.38h9.11v.78h-8.29v7.2h8.55v.77ZM117.55,228.92c-.52-.66-1.32-1.44-2.24-2.23-.92,1.03-1.95,1.94-2.99,2.64-.14-.17-.46-.47-.66-.63,1.09-.66,2.12-1.52,3.04-2.52-.84-.67-1.74-1.31-2.57-1.85l.57-.52c.81.51,1.69,1.12,2.52,1.76.66-.8,1.23-1.66,1.69-2.56l.78.26c-.53.99-1.16,1.93-1.85,2.79.96.77,1.8,1.56,2.35,2.23l-.64.62Z"
      fill="#000" stroke-width="0" />
  </g>
  <path id="border"
    d="M328.86,411.9l-17.39,17.38c-.05.05-.1.08-.17.11-.06.03-.12.04-.19.04h-46.05c-.07,0-.13-.01-.2-.04-.06-.03-.11-.06-.16-.11l-22.69-22.69h-26.03c-.27,0-.5-.22-.5-.5v-15.1l-8.95-8.95h-10.16v14.37c0,.06-.01.13-.04.19-.02.06-.06.12-.1.16l-17.45,17.45c-.05.05-.1.08-.17.11-.06.02-.12.04-.19.04h-36.84l9.74,9.73h29.08c.28,0,.5.23.5.5v34.32l25.2,25.18h18.63c.28,0,.5.23.5.5v39.46h23.09l12.56-12.56c.09-.09.22-.15.35-.15h87.81c.14,0,.26.06.36.15l19.66,19.68,25.85-25.84-41.84-41.83h-25.03c-.06,0-.13-.02-.19-.04-.06-.03-.11-.07-.16-.11l-15.42-15.42c-.14-.14-.19-.36-.11-.55.08-.18.26-.3.46-.3h28.78l11.32-11.33-23.86-23.85ZM556.36,204.5v26.96c0,.14-.05.26-.14.36l-17.72,17.72c-.1.09-.22.14-.36.14h-34.45v65.36c0,.14-.05.26-.14.36l-20.47,20.46c-.1.09-.22.14-.36.14h-18.2c-.13,0-.26-.05-.35-.14l-13.05-13.05c-.09-.1-.15-.22-.15-.35v-23.02l-6.33-6.33v8.97c0,.28-.22.5-.5.5h-61.5c-.13,0-.26-.05-.35-.14l-21.24-21.25c-.05-.04-.09-.1-.11-.16-.03-.06-.04-.12-.04-.19v-13.98l-39.02,39.02h-.01l-8.75,8.75v80.12l40.66,40.65c.09.1.14.22.14.35,0,.14-.05.26-.14.36l-11.82,11.82c-.1.09-.22.15-.36.15h-27.77l14.42,14.42h25.02c.14,0,.26.05.36.14l42.34,42.34c.19.2.19.51,0,.71l-26.55,26.54c-.1.09-.22.14-.36.14-.13,0-.26-.05-.35-.14l-19.87-19.89h-87.4l-12.56,12.57c-.1.09-.22.14-.36.14h-23.79c-.27,0-.5-.22-.5-.5v-39.46h-18.34c-.13,0-.26-.05-.35-.14l-25.49-25.48c-.09-.1-.15-.22-.15-.35v-34.03h-28.79c-.13,0-.26-.05-.35-.14l-10.74-10.74-37.96-37.96h-35.66c-.13,0-.26-.05-.35-.14l-11.61-11.61s-.08-.1-.11-.16c-.02-.06-.04-.13-.04-.19v-87.86l-9.57-9.58c-.09-.1-.15-.22-.15-.36v-13.98c0-.07.02-.14.04-.2.03-.06.07-.11.11-.16l7.13-7.13v-34.1l-35.18-35.17c-.09-.1-.15-.22-.15-.36v-45.22L.14,113.64c-.19-.2-.19-.51,0-.71l41.91-41.91c.09-.09.22-.15.35-.15h28.52c.28,0,.5.23.5.5v17.29h20.76l10.43-10.43v-9.4c0-.13.06-.25.15-.35l33.6-33.6c.09-.09.22-.15.35-.15h73.51c.07,0,.13.02.19.04.06.03.12.07.16.11l18.63,18.64h39.98c.14,0,.26.05.36.14l6.24,6.23c.09.09.14.22.14.36v10.35h15.04l21.16-21.17v-13.99l-14.96-14.96c-.19-.2-.19-.51,0-.71L316.78.15c.09-.09.22-.15.35-.15h14.12c.14,0,.26.06.36.15l21.59,21.6h50.62c.28,0,.5.22.5.5v17.85h21.79v-7.98c0-.27.22-.5.5-.5h14.76c.14,0,.26.06.36.15l8.19,8.19,9.52,9.53,5.86-5.86c.09-.09.22-.15.35-.15h23.72c.28,0,.5.23.5.5v22.66h27.17c.28,0,.5.23.5.5v11.29c0,.14-.05.26-.14.36l-17.37,17.36v17.66l27.82,27.8c.09.09.14.22.14.35v33.96l28.23,28.23c.09.1.14.22.14.35ZM555.36,231.26v-26.55l-28.22-28.23c-.09-.1-.15-.22-.15-.36v-33.95l-16.42-16.42-29.81,29.82v37.5c0,.28-.23.5-.5.5h-29.66c-.14,0-.26-.05-.36-.15l-11.66-11.66-9.86,9.86v21.38h1.83c.13,0,.26.05.35.14l13.6,13.6c.09.09.14.22.14.35v64.61l7.19,7.18c.09.1.14.22.14.36v23.01l12.76,12.75h17.79l20.17-20.16v-65.66c0-.27.23-.5.5-.5h34.75l17.42-17.42ZM516.54,78.23v-10.59h-27.17c-.27,0-.5-.22-.5-.5v-22.66h-23.01l-6.06,6.07c-.19.19-.52.19-.71,0l-9.53-9.53-3.73,3.74v22.74l18.1,18.11c.1.09.15.22.15.35v6.14c0,.28-.22.5-.5.5h-16.85l-21.98,21.99s-.05.03-.08.05-.05.04-.08.06c-.06.02-.13.04-.19.04-.01,0-.01,0-.01,0h-18.78c-.28,0-.5-.22-.5-.5v-4.05h-13.59v13.5l14.44,14.45s.03.04.04.06l.03.03c.05.09.08.18.08.28v9.37l44.69,44.7h28.96v-37.21c0-.13.05-.26.14-.35l29.96-29.96-10.68-10.68c-.09-.1-.15-.22-.15-.35v-18.07c0-.14.06-.26.15-.36l17.36-17.36ZM463.08,91.6v-5.43l-18.1-18.11c-.1-.09-.15-.22-.15-.35v-23.16c0-.13.05-.26.15-.35l3.88-3.88-7.69-7.7h-14.06v7.98c0,.27-.23.5-.5.5h-22.79c-.27,0-.5-.23-.5-.5v-17.85h-50.33c-.13,0-.26-.06-.35-.15l-21.59-21.6h-13.71l-19.12,19.12,14.76,14.76c.09.1.14.22.14.35v14.41c0,.13-.05.25-.14.35l-21.46,21.46c-.1.09-.22.15-.36.15h-9.66v6.66l21.93,21.94c.05.05.09.1.11.16.03.06.04.13.04.19v18.36h36.84s.05.01.07.02c.04,0,.08,0,.12.02.06.03.12.06.17.11l27.21,27.2h29.13l7.78-7.78-14.23-14.24c-.1-.09-.15-.22-.15-.35v-14.21c0-.28.22-.5.5-.5h14.59c.28,0,.5.22.5.5v4.05h18.08l21.98-21.98c.09-.1.22-.15.35-.15h16.56ZM443.64,301.58v-74.28l-13.3-13.3h-26.44v14.41c0,.07-.02.13-.04.19-.03.06-.06.12-.11.16l-12.64,12.64c-.09.1-.22.15-.35.15h-28.86v39.08l20.95,20.95h60.79ZM427.86,191.06l10.01-10.01-32.62-32.61c-.09-.1-.14-.23-.14-.36v-8.39l-7.28,7.28v19.11c0,.28-.23.5-.5.5h-9.31v19.15c0,.13-.05.26-.14.35l-25.98,25.98v28.49h28.65l12.35-12.35v-14.7c0-.28.22-.5.5-.5h24.32v-21.59c0-.13.05-.26.14-.35ZM396.83,165.58v-18.32h-29.05c-.13,0-.26-.05-.35-.15l-27.22-27.2h-36.63v7.39l21.08,21.07c.09.1.14.22.14.36,0,.13-.05.26-.14.35l-10.23,10.23,5.73,5.74c.1.09.15.22.15.35v4.43h28.84l4.09-4.1c.05-.04.1-.08.16-.11.07-.02.13-.04.2-.04h43.23ZM387.02,185.52v-18.94h-33.22l-4.09,4.1c-.05.05-.11.08-.17.11s-.12.04-.19.04h-29.04v22l8.36,8.36c.09.09.14.22.14.35v15.04l13.93,13.93s.02.03.04.05h18.12v-18.71c0-.06.01-.13.04-.19.02-.06.06-.11.11-.16l25.97-25.98ZM360.9,265.44v-33.88h-27.96l-10.47,10.47v20.62c0,.13-.06.26-.15.36l-13.51,13.51,7.9,7.9c.09.09.15.22.15.35v15.39l4.66,4.66,39.38-39.38ZM332.73,230.56h8.65l-13.27-13.27h-36.18l-22.86,22.86v14.76l21.11,21.11h17.72l13.57-13.58v-20.62c0-.13.05-.26.14-.35l10.76-10.76c.1-.1.23-.15.36-.15ZM310.91,428.43l17.24-17.24-15.88-15.88s-.08-.1-.11-.16c-.02-.07-.04-.13-.04-.19v-42.37h-4.88l-10.89,10.89c-.09.09-.22.14-.35.14h-23.64c-.13,0-.26-.05-.35-.14l-31.26-31.27v21.27c0,.13-.06.26-.15.35l-30.43,30.43,6.17,6.17c.09.1.14.22.14.36v14.8h25.74c.13,0,.26.06.35.15l22.69,22.69h45.65ZM327.81,216.29v-14.54l-8.36-8.36c-.09-.1-.14-.22-.14-.35v-27.43l-5.8-5.8h-34.88l-26.69,26.69v10.59h20.59c.06,0,.13.01.19.04.06.02.11.06.16.1l19.05,19.06h35.88ZM313.51,158.81l10.09-10.08-20.87-20.87c-.1-.1-.15-.22-.15-.36v-26.74l-21.94-21.94c-.09-.09-.14-.22-.14-.35v-6.87h-5.08c-.27,0-.5-.23-.5-.5v-10.65l-5.94-5.93h-39.99c-.13,0-.26-.06-.35-.15l-17.92-17.93v29.21l42.63,42.63c.04.05.08.1.11.16.02.06.03.13.03.19v28.79h20.75c.13,0,.26.05.35.14l21.25,21.25h17.67ZM312.27,314.07l8.54-8.54-4.81-4.81c-.09-.1-.14-.22-.14-.36v-15.38l-7.96-7.96h-17.93c-.13,0-.26-.06-.35-.15l-21.25-21.25h-13.26l-7.12,7.12v11.84c0,.13-.05.26-.15.35l-11.97,11.98,24.24,24.23c.19.2.19.52,0,.71l-19.16,19.16,31.62,31.61h23.22l10.89-10.88c.09-.1.22-.15.35-.15h5.09v-37.17c0-.06.02-.13.04-.19.03-.06.06-.11.11-.16ZM278.43,158.81h16l-20.4-20.39h-38.36l-10.5,10.5c-.19.19-.51.19-.71,0l-9.18-9.19h-9.94l-12.96,12.97v21.34h37.23c.27,0,.5.22.5.5v22.55h20.83v-10.8c0-.13.06-.26.15-.35l26.98-26.98c.05-.05.1-.09.16-.11.07-.03.13-.04.2-.04ZM268.22,239.59l22.8-22.8-18.7-18.7h-42.71c-.28,0-.5-.23-.5-.5v-22.55h-36.73v14.1l8.97,8.98c.09.09.15.22.15.35v29.23c0,.14-.06.26-.15.36l-13.84,13.84h39.85c.07,0,.13.02.2.04.06.03.11.06.16.11l19.77,19.77,7.06-7.06c.09-.09.22-.14.35-.14h13.17v-14.68c0-.13.06-.26.15-.35ZM240.25,330.3l18.8-18.8-24.24-24.24c-.2-.2-.2-.51,0-.71l12.18-12.18v-11.63l-19.83-19.84h-40.65l-16.97,16.97-12.68,12.68h16.84c.14,0,.26.05.36.14l10.34,10.34c.09.1.14.22.14.36v6.46h15.05c.07,0,.13.02.19.04.06.03.12.06.17.11l40.3,40.3ZM252.49,137.42v-28.58l-42.62-42.63c-.1-.09-.15-.22-.15-.35v-30.13h-72.8l-33.31,33.31v6.64h9.01c.28,0,.5.22.5.5v9.3l6.58,6.57h44.03c.13,0,.26.06.35.15l15.25,15.25c.09.09.14.22.14.35v21.63l12.76,12.76c.1.09.15.22.15.35v8.75l12.4-12.41c.1-.09.23-.15.36-.15h10.35c.13,0,.26.06.35.15l8.98,8.97,10.29-10.29c.09-.09.22-.14.35-.14h17.03ZM239.75,353.27v-22.06l-40.37-40.36h-14.84v7.9l11.69,11.68c.09.09.14.22.14.35v24.45c0,.14-.05.26-.14.36l-15.77,15.77c-.1.09-.22.14-.35.14-.14,0-.26-.05-.36-.14l-7.34-7.34h-9.93v44.04l7.85,7.85h25.04v-14.37c0-.28.23-.5.5-.5h10.87c.13,0,.26.05.35.15l2.37,2.37,30.29-30.29ZM200.5,227.5v-28.82l-8.97-8.97c-.05-.05-.09-.11-.11-.17-.03-.06-.04-.12-.04-.19v-14.6l-17.16-17.16-10.8,10.8c-.05.04-.1.08-.16.11-.06.02-.13.03-.19.03h-54.8l61.27,61.27c.09.09.14.22.14.35v28.16l30.82-30.81ZM195.37,335.03v-24.04l-11.68-11.68c-.09-.1-.15-.23-.15-.36v-15.36l-10.04-10.04h-32.37l-11.87,11.87c-.1.1-.22.15-.36.15h-21.88c-.13,0-.26-.05-.35-.15l-32.56-32.55h-28.54v13.28l9.58,9.58c.09.1.14.22.14.35v87.86l11.32,11.31h35.65c.14,0,.26.06.36.15l37.96,37.96h37.64l16.45-16.45h-24.55c-.13,0-.26-.06-.35-.15l-8.14-8.14c-.09-.09-.15-.22-.15-.35v-44.75c0-.28.23-.5.5-.5h10.64c.13,0,.26.05.35.14l7.14,7.13,15.26-15.26ZM191.38,173.33v-30.58l-12.76-12.76c-.09-.1-.15-.22-.15-.36v-21.62l-14.95-14.96h-44.03c-.13,0-.26-.05-.35-.14l-6.87-6.87c-.1-.1-.15-.23-.15-.36v-9h-8.51v1.75c0,.14-.05.26-.14.36l-10.73,10.73c-.1.09-.22.14-.36.14h-21.46c-.27,0-.5-.22-.5-.5v-17.29h-27.81L1.2,113.29l16.18,16.18c.09.1.14.22.14.36v45.22l23.41,23.4,30.77-30.77c.1-.09.22-.15.36-.15h90.8l11.01-11c.19-.2.51-.2.7,0l16.81,16.8ZM168.68,259.31v-28.95l-61.82-61.83h-34.6l-30.62,30.63,11.07,11.06c.09.1.14.22.14.36v34.5c0,.14-.05.26-.14.36l-6.43,6.43h28.04c.06,0,.13.01.19.03.06.03.11.07.16.11l32.56,32.56h21.47l11.87-11.88c.1-.09.22-.14.36-.14h14.52l13.23-13.24Z"
    fill="#d6d6d6" stroke-width="0" />

</svg>